G04 EAGLE Gerber RS-274X export*
G75*
%MOMM*%
%FSLAX34Y34*%
%LPD*%
%INTop Copper*%
%IPPOS*%
%AMOC8*
5,1,8,0,0,1.08239X$1,22.5*%
G01*
%ADD10P,1.539592X8X112.500000*%
%ADD11P,1.539592X8X292.500000*%
%ADD12P,1.539592X8X22.500000*%
%ADD13P,1.539592X8X202.500000*%
%ADD14C,1.422400*%
%ADD15C,1.879600*%
%ADD16C,1.509600*%
%ADD17C,0.406400*%
%ADD18C,0.858000*%
%ADD19C,1.016000*%


D10*
X322580Y393700D03*
X322580Y419100D03*
D11*
X330200Y215900D03*
X330200Y190500D03*
D10*
X184150Y114300D03*
X184150Y139700D03*
D12*
X331470Y477520D03*
X356870Y477520D03*
D13*
X176530Y477520D03*
X151130Y477520D03*
D10*
X379730Y403860D03*
X379730Y480060D03*
X132080Y369570D03*
X132080Y445770D03*
D11*
X406400Y459740D03*
X406400Y383540D03*
X88900Y447040D03*
X88900Y370840D03*
D14*
X208788Y419100D02*
X223012Y419100D01*
X223012Y393700D02*
X208788Y393700D01*
X208788Y368300D02*
X223012Y368300D01*
X223012Y342900D02*
X208788Y342900D01*
X208788Y317500D02*
X223012Y317500D01*
X223012Y292100D02*
X208788Y292100D01*
X208788Y266700D02*
X223012Y266700D01*
X223012Y241300D02*
X208788Y241300D01*
X208788Y215900D02*
X223012Y215900D01*
X223012Y190500D02*
X208788Y190500D01*
X208788Y165100D02*
X223012Y165100D01*
X223012Y139700D02*
X208788Y139700D01*
X208788Y114300D02*
X223012Y114300D01*
X223012Y88900D02*
X208788Y88900D01*
X284988Y88900D02*
X299212Y88900D01*
X299212Y114300D02*
X284988Y114300D01*
X284988Y139700D02*
X299212Y139700D01*
X299212Y165100D02*
X284988Y165100D01*
X284988Y190500D02*
X299212Y190500D01*
X299212Y215900D02*
X284988Y215900D01*
X284988Y241300D02*
X299212Y241300D01*
X299212Y266700D02*
X284988Y266700D01*
X284988Y292100D02*
X299212Y292100D01*
X299212Y317500D02*
X284988Y317500D01*
X284988Y342900D02*
X299212Y342900D01*
X299212Y368300D02*
X284988Y368300D01*
X284988Y393700D02*
X299212Y393700D01*
X299212Y419100D02*
X284988Y419100D01*
D15*
X406400Y101600D03*
X406400Y76200D03*
X469900Y368300D03*
X469900Y342900D03*
X469900Y317500D03*
X469900Y292100D03*
X469900Y266700D03*
X469900Y241300D03*
X469900Y215900D03*
X469900Y190500D03*
X469900Y165100D03*
X469900Y139700D03*
X22860Y241300D03*
X22860Y215900D03*
X22860Y190500D03*
X22860Y165100D03*
X22860Y139700D03*
X22860Y368300D03*
X22860Y342900D03*
X22860Y317500D03*
X22860Y292100D03*
X22860Y266700D03*
X21590Y71120D03*
X21590Y20320D03*
X21590Y45720D03*
X156210Y45720D03*
X156210Y20320D03*
D16*
X192170Y17790D03*
X217170Y17790D03*
X242170Y17790D03*
X242170Y50790D03*
X217170Y50790D03*
X192170Y50790D03*
D15*
X115570Y20320D03*
X115570Y45720D03*
X115570Y71120D03*
X115570Y96520D03*
X281940Y20320D03*
X307340Y20320D03*
X332740Y20320D03*
X358140Y20320D03*
X383540Y20320D03*
X408940Y20320D03*
X203200Y480060D03*
X228600Y480060D03*
X254000Y480060D03*
X279400Y480060D03*
X304800Y480060D03*
X444500Y25400D03*
X444500Y50800D03*
X444500Y76200D03*
X444500Y101600D03*
X429260Y468630D03*
X480060Y468630D03*
X71120Y471170D03*
X20320Y471170D03*
D17*
X156210Y20320D02*
X189640Y20320D01*
X192170Y17790D01*
X192170Y50790D01*
X242170Y50790D02*
X242170Y17790D01*
X302270Y50790D02*
X332740Y20320D01*
X302270Y50790D02*
X242170Y50790D01*
X215900Y114300D02*
X184150Y114300D01*
X88900Y20320D02*
X21590Y20320D01*
X88900Y20320D02*
X115570Y20320D01*
D18*
X406400Y165100D03*
D17*
X469900Y165100D01*
D18*
X88900Y190500D03*
D17*
X22860Y190500D01*
D18*
X88900Y139700D03*
D17*
X152400Y139700D01*
X177800Y114300D01*
X184150Y114300D01*
D18*
X88900Y20320D03*
D17*
X167640Y419100D02*
X228600Y480060D01*
X167640Y419100D02*
X88900Y419100D01*
D18*
X88900Y419100D03*
D17*
X228600Y480060D02*
X289560Y419100D01*
X292100Y419100D01*
X356870Y477520D02*
X359410Y480060D01*
X379730Y480060D01*
X330200Y215900D02*
X292100Y215900D01*
X228600Y406400D02*
X215900Y419100D01*
X228600Y406400D02*
X355600Y406400D01*
X406400Y457200D01*
X406400Y459740D01*
X420370Y459740D01*
X429260Y468630D01*
X151130Y477520D02*
X132080Y458470D01*
X132080Y445770D01*
D18*
X116840Y166370D03*
D17*
X214630Y166370D01*
X215900Y165100D01*
X406400Y76200D02*
X410210Y76200D01*
X444500Y76200D01*
X346710Y139700D02*
X292100Y139700D01*
X346710Y139700D02*
X410210Y76200D01*
X406400Y101600D02*
X444500Y101600D01*
X342900Y165100D02*
X292100Y165100D01*
X342900Y165100D02*
X406400Y101600D01*
X227076Y255524D02*
X215900Y266700D01*
X369316Y255524D02*
X369570Y255270D01*
X369316Y255524D02*
X227076Y255524D01*
X368300Y254000D02*
X369570Y255270D01*
D19*
X368300Y254000D03*
D18*
X317500Y127000D03*
D17*
X241300Y127000D01*
D18*
X241300Y127000D03*
D17*
X292100Y368300D02*
X469900Y368300D01*
X469900Y342900D02*
X292100Y342900D01*
X292100Y317500D02*
X469900Y317500D01*
X469900Y292100D02*
X292100Y292100D01*
X292100Y266700D02*
X469900Y266700D01*
X469900Y241300D02*
X292100Y241300D01*
X355600Y215900D02*
X469900Y215900D01*
D18*
X355600Y215900D03*
X355600Y114300D03*
D17*
X292100Y114300D01*
X25400Y241300D02*
X22860Y241300D01*
X25400Y241300D02*
X38100Y228600D01*
X266700Y228600D01*
D18*
X266700Y228600D03*
X266700Y88900D03*
D17*
X292100Y88900D01*
X139700Y266700D02*
X22860Y266700D01*
D18*
X139700Y266700D03*
X139700Y114300D03*
D17*
X165100Y88900D02*
X215900Y88900D01*
X165100Y88900D02*
X139700Y114300D01*
X165100Y292100D02*
X22860Y292100D01*
D18*
X165100Y292100D03*
X165100Y190500D03*
D17*
X215900Y190500D01*
X177800Y317500D02*
X22860Y317500D01*
X203200Y292100D02*
X215900Y292100D01*
X203200Y292100D02*
X177800Y317500D01*
X190500Y342900D02*
X215900Y368300D01*
X190500Y342900D02*
X22860Y342900D01*
X22860Y368300D02*
X48260Y393700D01*
X215900Y393700D01*
X63500Y71120D02*
X21590Y71120D01*
X63500Y71120D02*
X115570Y71120D01*
X217170Y50790D02*
X217170Y17790D01*
X217170Y50790D02*
X217170Y50800D01*
X63500Y215900D02*
X22860Y215900D01*
D18*
X63500Y215900D03*
X63500Y71120D03*
D17*
X381000Y190500D02*
X469900Y190500D01*
D18*
X381000Y190500D03*
X381000Y71120D03*
D17*
X196850Y71120D02*
X115570Y71120D01*
X196850Y71120D02*
X217170Y50800D01*
X217170Y50790D02*
X237500Y71120D01*
X381000Y71120D01*
M02*
