G04 EAGLE Gerber RS-274X export*
G75*
%MOMM*%
%FSLAX34Y34*%
%LPD*%
%INBottom Copper*%
%IPPOS*%
%AMOC8*
5,1,8,0,0,1.08239X$1,22.5*%
G01*
%ADD10P,1.539592X8X112.500000*%
%ADD11P,1.539592X8X292.500000*%
%ADD12P,1.539592X8X22.500000*%
%ADD13P,1.539592X8X202.500000*%
%ADD14C,1.422400*%
%ADD15C,1.879600*%
%ADD16C,1.509600*%
%ADD17C,0.406400*%
%ADD18C,0.858000*%
%ADD19C,1.016000*%

G36*
X495194Y4068D02*
X495194Y4068D01*
X495213Y4066D01*
X495315Y4088D01*
X495417Y4104D01*
X495434Y4114D01*
X495454Y4118D01*
X495543Y4171D01*
X495634Y4220D01*
X495648Y4234D01*
X495665Y4244D01*
X495732Y4323D01*
X495804Y4398D01*
X495812Y4416D01*
X495825Y4431D01*
X495864Y4527D01*
X495907Y4621D01*
X495909Y4641D01*
X495917Y4659D01*
X495935Y4826D01*
X495935Y495174D01*
X495932Y495194D01*
X495934Y495213D01*
X495912Y495315D01*
X495896Y495417D01*
X495886Y495434D01*
X495882Y495454D01*
X495829Y495543D01*
X495780Y495634D01*
X495766Y495648D01*
X495756Y495665D01*
X495677Y495732D01*
X495602Y495804D01*
X495584Y495812D01*
X495569Y495825D01*
X495473Y495864D01*
X495379Y495907D01*
X495359Y495909D01*
X495341Y495917D01*
X495174Y495935D01*
X4826Y495935D01*
X4806Y495932D01*
X4787Y495934D01*
X4685Y495912D01*
X4583Y495896D01*
X4566Y495886D01*
X4546Y495882D01*
X4457Y495829D01*
X4366Y495780D01*
X4352Y495766D01*
X4335Y495756D01*
X4268Y495677D01*
X4196Y495602D01*
X4188Y495584D01*
X4175Y495569D01*
X4136Y495473D01*
X4093Y495379D01*
X4091Y495359D01*
X4083Y495341D01*
X4065Y495174D01*
X4065Y4826D01*
X4068Y4806D01*
X4066Y4787D01*
X4088Y4685D01*
X4104Y4583D01*
X4114Y4566D01*
X4118Y4546D01*
X4171Y4457D01*
X4220Y4366D01*
X4234Y4352D01*
X4244Y4335D01*
X4323Y4268D01*
X4398Y4196D01*
X4416Y4188D01*
X4431Y4175D01*
X4527Y4136D01*
X4621Y4093D01*
X4641Y4091D01*
X4659Y4083D01*
X4826Y4065D01*
X495174Y4065D01*
X495194Y4068D01*
G37*
%LPC*%
G36*
X444499Y25399D02*
X444499Y25399D01*
X444499Y26162D01*
X444497Y26173D01*
X444498Y26180D01*
X444497Y26188D01*
X444498Y26201D01*
X444476Y26303D01*
X444459Y26405D01*
X444450Y26422D01*
X444446Y26442D01*
X444393Y26531D01*
X444344Y26622D01*
X444330Y26636D01*
X444320Y26653D01*
X444241Y26720D01*
X444166Y26791D01*
X444148Y26800D01*
X444133Y26813D01*
X444037Y26852D01*
X443943Y26895D01*
X443923Y26897D01*
X443905Y26905D01*
X443738Y26923D01*
X432654Y26923D01*
X432855Y28196D01*
X433436Y29983D01*
X434289Y31657D01*
X435394Y33178D01*
X436722Y34506D01*
X438243Y35611D01*
X439917Y36464D01*
X440204Y36557D01*
X440294Y36604D01*
X440386Y36645D01*
X440402Y36660D01*
X440422Y36670D01*
X440493Y36743D01*
X440567Y36811D01*
X440578Y36831D01*
X440593Y36847D01*
X440637Y36938D01*
X440686Y37027D01*
X440690Y37049D01*
X440699Y37069D01*
X440712Y37169D01*
X440730Y37269D01*
X440726Y37291D01*
X440729Y37313D01*
X440709Y37412D01*
X440694Y37512D01*
X440684Y37532D01*
X440679Y37554D01*
X440628Y37641D01*
X440582Y37731D01*
X440566Y37747D01*
X440555Y37766D01*
X440479Y37833D01*
X440407Y37904D01*
X440383Y37917D01*
X440370Y37928D01*
X440340Y37940D01*
X440260Y37984D01*
X436874Y39387D01*
X433087Y43174D01*
X431037Y48122D01*
X431037Y50245D01*
X431023Y50335D01*
X431015Y50426D01*
X431003Y50456D01*
X430998Y50488D01*
X430955Y50569D01*
X430919Y50653D01*
X430893Y50685D01*
X430882Y50705D01*
X430859Y50728D01*
X430814Y50784D01*
X421551Y60046D01*
X420623Y62287D01*
X420623Y71531D01*
X420608Y71627D01*
X420598Y71724D01*
X420588Y71748D01*
X420584Y71774D01*
X420538Y71860D01*
X420498Y71949D01*
X420481Y71968D01*
X420468Y71991D01*
X420398Y72058D01*
X420332Y72130D01*
X420309Y72143D01*
X420290Y72161D01*
X420202Y72202D01*
X420116Y72249D01*
X420091Y72253D01*
X420067Y72264D01*
X419970Y72275D01*
X419874Y72292D01*
X419848Y72289D01*
X419823Y72291D01*
X419727Y72271D01*
X419631Y72257D01*
X419608Y72245D01*
X419582Y72239D01*
X419499Y72189D01*
X419412Y72145D01*
X419393Y72126D01*
X419371Y72113D01*
X419308Y72039D01*
X419240Y71969D01*
X419224Y71941D01*
X419211Y71926D01*
X419199Y71895D01*
X419159Y71823D01*
X417813Y68574D01*
X414026Y64787D01*
X409078Y62737D01*
X403722Y62737D01*
X398774Y64787D01*
X394987Y68574D01*
X392937Y73522D01*
X392937Y78878D01*
X394987Y83826D01*
X398774Y87613D01*
X400183Y88197D01*
X400244Y88234D01*
X400309Y88264D01*
X400348Y88299D01*
X400392Y88326D01*
X400438Y88382D01*
X400490Y88430D01*
X400515Y88476D01*
X400549Y88516D01*
X400574Y88583D01*
X400609Y88646D01*
X400618Y88697D01*
X400637Y88745D01*
X400640Y88817D01*
X400653Y88888D01*
X400645Y88939D01*
X400647Y88991D01*
X400627Y89060D01*
X400617Y89131D01*
X400593Y89177D01*
X400579Y89227D01*
X400538Y89286D01*
X400505Y89350D01*
X400468Y89387D01*
X400438Y89429D01*
X400381Y89472D01*
X400330Y89522D01*
X400267Y89557D01*
X400241Y89576D01*
X400219Y89583D01*
X400183Y89603D01*
X398774Y90187D01*
X394987Y93974D01*
X392937Y98922D01*
X392937Y104278D01*
X394987Y109226D01*
X398774Y113013D01*
X403722Y115063D01*
X409078Y115063D01*
X414026Y113013D01*
X417813Y109226D01*
X419159Y105977D01*
X419210Y105894D01*
X419256Y105809D01*
X419274Y105791D01*
X419288Y105768D01*
X419364Y105706D01*
X419434Y105639D01*
X419458Y105628D01*
X419478Y105612D01*
X419569Y105577D01*
X419657Y105536D01*
X419683Y105533D01*
X419707Y105523D01*
X419805Y105519D01*
X419901Y105509D01*
X419927Y105514D01*
X419953Y105513D01*
X420047Y105540D01*
X420142Y105561D01*
X420164Y105574D01*
X420189Y105582D01*
X420269Y105637D01*
X420353Y105687D01*
X420370Y105707D01*
X420391Y105722D01*
X420450Y105800D01*
X420513Y105874D01*
X420523Y105898D01*
X420538Y105919D01*
X420568Y106012D01*
X420605Y106102D01*
X420608Y106135D01*
X420614Y106153D01*
X420614Y106186D01*
X420623Y106269D01*
X420623Y141939D01*
X420609Y142029D01*
X420601Y142120D01*
X420589Y142150D01*
X420584Y142182D01*
X420541Y142263D01*
X420505Y142347D01*
X420479Y142379D01*
X420468Y142399D01*
X420445Y142422D01*
X420400Y142478D01*
X406356Y156522D01*
X406282Y156575D01*
X406212Y156635D01*
X406182Y156647D01*
X406156Y156666D01*
X406069Y156693D01*
X405984Y156727D01*
X405943Y156731D01*
X405921Y156738D01*
X405889Y156737D01*
X405817Y156745D01*
X404738Y156745D01*
X401667Y158017D01*
X399317Y160367D01*
X398045Y163438D01*
X398045Y166762D01*
X399317Y169833D01*
X400080Y170596D01*
X400133Y170670D01*
X400193Y170739D01*
X400205Y170769D01*
X400224Y170795D01*
X400251Y170882D01*
X400285Y170967D01*
X400289Y171008D01*
X400296Y171031D01*
X400295Y171063D01*
X400303Y171134D01*
X400303Y373515D01*
X400289Y373605D01*
X400281Y373696D01*
X400269Y373726D01*
X400264Y373758D01*
X400221Y373839D01*
X400185Y373922D01*
X400159Y373955D01*
X400148Y373975D01*
X400125Y373997D01*
X400080Y374053D01*
X396913Y377220D01*
X396840Y377273D01*
X396770Y377333D01*
X396740Y377345D01*
X396714Y377364D01*
X396627Y377391D01*
X396542Y377425D01*
X396501Y377429D01*
X396479Y377436D01*
X396446Y377435D01*
X396375Y377443D01*
X356927Y377443D01*
X354686Y378371D01*
X352864Y380194D01*
X325358Y407700D01*
X325284Y407753D01*
X325214Y407813D01*
X325184Y407825D01*
X325158Y407844D01*
X325071Y407871D01*
X324986Y407905D01*
X324945Y407909D01*
X324923Y407916D01*
X324891Y407915D01*
X324819Y407923D01*
X317950Y407923D01*
X313093Y412780D01*
X313019Y412833D01*
X312950Y412893D01*
X312920Y412905D01*
X312894Y412924D01*
X312807Y412951D01*
X312722Y412985D01*
X312681Y412989D01*
X312659Y412996D01*
X312626Y412995D01*
X312555Y413003D01*
X309237Y413003D01*
X309147Y412989D01*
X309056Y412981D01*
X309026Y412969D01*
X308994Y412964D01*
X308913Y412921D01*
X308830Y412885D01*
X308797Y412859D01*
X308777Y412848D01*
X308755Y412825D01*
X308699Y412780D01*
X305543Y409625D01*
X301435Y407923D01*
X282765Y407923D01*
X278657Y409625D01*
X275513Y412769D01*
X274261Y415790D01*
X274210Y415873D01*
X274164Y415959D01*
X274146Y415977D01*
X274132Y415999D01*
X274056Y416062D01*
X273986Y416129D01*
X273962Y416140D01*
X273942Y416156D01*
X273851Y416191D01*
X273763Y416232D01*
X273737Y416235D01*
X273713Y416244D01*
X273615Y416249D01*
X273519Y416259D01*
X273493Y416254D01*
X273467Y416255D01*
X273373Y416228D01*
X273278Y416207D01*
X273256Y416194D01*
X273231Y416186D01*
X273151Y416131D01*
X273067Y416081D01*
X273050Y416061D01*
X273029Y416046D01*
X272970Y415968D01*
X272907Y415894D01*
X272897Y415870D01*
X272882Y415849D01*
X272852Y415756D01*
X272815Y415666D01*
X272812Y415633D01*
X272806Y415615D01*
X272806Y415582D01*
X272797Y415499D01*
X272797Y371901D01*
X272812Y371805D01*
X272822Y371708D01*
X272832Y371684D01*
X272836Y371658D01*
X272882Y371572D01*
X272922Y371483D01*
X272939Y371464D01*
X272952Y371441D01*
X273022Y371374D01*
X273088Y371302D01*
X273111Y371289D01*
X273130Y371271D01*
X273218Y371230D01*
X273304Y371183D01*
X273329Y371179D01*
X273353Y371168D01*
X273450Y371157D01*
X273546Y371140D01*
X273572Y371144D01*
X273597Y371141D01*
X273693Y371161D01*
X273789Y371176D01*
X273812Y371187D01*
X273838Y371193D01*
X273921Y371243D01*
X274008Y371287D01*
X274027Y371306D01*
X274049Y371319D01*
X274112Y371393D01*
X274180Y371463D01*
X274196Y371491D01*
X274209Y371506D01*
X274221Y371537D01*
X274261Y371610D01*
X275513Y374631D01*
X278657Y377775D01*
X282765Y379477D01*
X301435Y379477D01*
X305543Y377775D01*
X308687Y374631D01*
X310389Y370523D01*
X310389Y366077D01*
X308687Y361969D01*
X305543Y358825D01*
X301435Y357123D01*
X282765Y357123D01*
X278657Y358825D01*
X275513Y361969D01*
X274261Y364990D01*
X274210Y365073D01*
X274164Y365159D01*
X274146Y365177D01*
X274132Y365199D01*
X274056Y365262D01*
X273986Y365329D01*
X273962Y365340D01*
X273942Y365356D01*
X273851Y365391D01*
X273763Y365432D01*
X273737Y365435D01*
X273713Y365444D01*
X273615Y365449D01*
X273519Y365459D01*
X273493Y365454D01*
X273467Y365455D01*
X273373Y365428D01*
X273278Y365407D01*
X273256Y365394D01*
X273231Y365386D01*
X273151Y365331D01*
X273067Y365281D01*
X273050Y365261D01*
X273029Y365246D01*
X272970Y365168D01*
X272907Y365094D01*
X272897Y365070D01*
X272882Y365049D01*
X272852Y364956D01*
X272815Y364866D01*
X272812Y364833D01*
X272806Y364815D01*
X272806Y364782D01*
X272797Y364699D01*
X272797Y354387D01*
X271869Y352146D01*
X233723Y314001D01*
X233685Y313948D01*
X233639Y313901D01*
X233599Y313828D01*
X233579Y313801D01*
X233574Y313783D01*
X233558Y313754D01*
X232487Y311169D01*
X229343Y308025D01*
X225235Y306323D01*
X206565Y306323D01*
X202457Y308025D01*
X199313Y311169D01*
X197611Y315277D01*
X197611Y319723D01*
X199313Y323831D01*
X202457Y326975D01*
X206565Y328677D01*
X225235Y328677D01*
X228951Y327138D01*
X229064Y327111D01*
X229178Y327082D01*
X229184Y327083D01*
X229190Y327081D01*
X229307Y327092D01*
X229423Y327102D01*
X229429Y327104D01*
X229435Y327105D01*
X229543Y327152D01*
X229650Y327198D01*
X229655Y327202D01*
X229660Y327205D01*
X229674Y327217D01*
X229781Y327303D01*
X260380Y357902D01*
X260433Y357976D01*
X260493Y358046D01*
X260505Y358076D01*
X260524Y358102D01*
X260551Y358189D01*
X260585Y358274D01*
X260589Y358315D01*
X260596Y358337D01*
X260595Y358369D01*
X260603Y358441D01*
X260603Y364483D01*
X260588Y364579D01*
X260578Y364676D01*
X260568Y364700D01*
X260564Y364726D01*
X260518Y364812D01*
X260478Y364901D01*
X260461Y364920D01*
X260448Y364943D01*
X260378Y365010D01*
X260312Y365082D01*
X260289Y365095D01*
X260270Y365113D01*
X260182Y365154D01*
X260096Y365201D01*
X260071Y365205D01*
X260047Y365216D01*
X259950Y365227D01*
X259854Y365244D01*
X259828Y365240D01*
X259803Y365243D01*
X259707Y365223D01*
X259611Y365208D01*
X259588Y365197D01*
X259562Y365191D01*
X259478Y365141D01*
X259392Y365097D01*
X259373Y365078D01*
X259351Y365065D01*
X259288Y364991D01*
X259219Y364921D01*
X259204Y364893D01*
X259191Y364878D01*
X259185Y364863D01*
X233723Y339401D01*
X233685Y339348D01*
X233639Y339301D01*
X233599Y339228D01*
X233579Y339201D01*
X233574Y339183D01*
X233558Y339154D01*
X232487Y336569D01*
X229343Y333425D01*
X225235Y331723D01*
X206565Y331723D01*
X202457Y333425D01*
X199313Y336569D01*
X197611Y340677D01*
X197611Y345123D01*
X199313Y349231D01*
X202457Y352375D01*
X206565Y354077D01*
X225235Y354077D01*
X228951Y352538D01*
X229064Y352511D01*
X229178Y352482D01*
X229184Y352483D01*
X229190Y352481D01*
X229307Y352492D01*
X229423Y352502D01*
X229429Y352504D01*
X229435Y352505D01*
X229543Y352552D01*
X229650Y352598D01*
X229655Y352602D01*
X229660Y352605D01*
X229674Y352617D01*
X229781Y352703D01*
X247680Y370602D01*
X247733Y370676D01*
X247793Y370746D01*
X247805Y370776D01*
X247824Y370802D01*
X247851Y370889D01*
X247885Y370974D01*
X247889Y371015D01*
X247896Y371037D01*
X247895Y371069D01*
X247903Y371141D01*
X247903Y433013D01*
X248831Y435254D01*
X273080Y459502D01*
X273133Y459576D01*
X273193Y459646D01*
X273205Y459676D01*
X273224Y459702D01*
X273251Y459789D01*
X273271Y459839D01*
X273275Y459848D01*
X273275Y459851D01*
X273285Y459874D01*
X273289Y459915D01*
X273296Y459937D01*
X273295Y459969D01*
X273303Y460041D01*
X273303Y467505D01*
X273284Y467619D01*
X273267Y467736D01*
X273265Y467741D01*
X273264Y467748D01*
X273209Y467850D01*
X273156Y467955D01*
X273151Y467959D01*
X273148Y467965D01*
X273064Y468045D01*
X272980Y468127D01*
X272974Y468131D01*
X272970Y468134D01*
X272953Y468142D01*
X272833Y468208D01*
X271774Y468647D01*
X267987Y472434D01*
X266584Y475820D01*
X266531Y475906D01*
X266483Y475995D01*
X266466Y476010D01*
X266455Y476029D01*
X266377Y476093D01*
X266303Y476162D01*
X266282Y476171D01*
X266265Y476186D01*
X266171Y476222D01*
X266078Y476264D01*
X266056Y476266D01*
X266036Y476274D01*
X265935Y476278D01*
X265834Y476288D01*
X265812Y476283D01*
X265790Y476284D01*
X265693Y476256D01*
X265594Y476233D01*
X265575Y476222D01*
X265554Y476216D01*
X265471Y476158D01*
X265384Y476105D01*
X265370Y476088D01*
X265352Y476075D01*
X265291Y475994D01*
X265226Y475916D01*
X265215Y475892D01*
X265205Y475878D01*
X265195Y475847D01*
X265157Y475764D01*
X265064Y475477D01*
X264211Y473803D01*
X263106Y472282D01*
X261778Y470954D01*
X260257Y469849D01*
X258583Y468996D01*
X256796Y468415D01*
X255523Y468214D01*
X255523Y479298D01*
X255520Y479318D01*
X255522Y479337D01*
X255500Y479439D01*
X255483Y479541D01*
X255474Y479558D01*
X255470Y479578D01*
X255417Y479667D01*
X255368Y479758D01*
X255354Y479772D01*
X255344Y479789D01*
X255265Y479856D01*
X255190Y479927D01*
X255172Y479936D01*
X255157Y479949D01*
X255061Y479987D01*
X254967Y480031D01*
X254947Y480033D01*
X254929Y480041D01*
X254762Y480059D01*
X253238Y480059D01*
X253218Y480056D01*
X253199Y480058D01*
X253097Y480036D01*
X252995Y480019D01*
X252978Y480010D01*
X252958Y480006D01*
X252869Y479953D01*
X252778Y479904D01*
X252764Y479890D01*
X252747Y479880D01*
X252680Y479801D01*
X252609Y479726D01*
X252600Y479708D01*
X252587Y479693D01*
X252548Y479597D01*
X252505Y479503D01*
X252503Y479483D01*
X252495Y479465D01*
X252477Y479298D01*
X252477Y468214D01*
X251204Y468415D01*
X249417Y468996D01*
X247743Y469849D01*
X246222Y470954D01*
X244894Y472282D01*
X243789Y473803D01*
X242936Y475477D01*
X242843Y475764D01*
X242796Y475854D01*
X242755Y475946D01*
X242740Y475962D01*
X242730Y475982D01*
X242657Y476053D01*
X242589Y476127D01*
X242569Y476138D01*
X242553Y476153D01*
X242462Y476197D01*
X242373Y476246D01*
X242351Y476250D01*
X242331Y476259D01*
X242231Y476272D01*
X242131Y476290D01*
X242109Y476286D01*
X242087Y476289D01*
X241988Y476269D01*
X241888Y476254D01*
X241868Y476244D01*
X241846Y476239D01*
X241759Y476188D01*
X241669Y476142D01*
X241653Y476126D01*
X241634Y476115D01*
X241567Y476039D01*
X241496Y475967D01*
X241483Y475943D01*
X241472Y475930D01*
X241460Y475900D01*
X241416Y475820D01*
X240013Y472434D01*
X236226Y468647D01*
X231278Y466597D01*
X225922Y466597D01*
X223049Y467787D01*
X223005Y467798D01*
X222963Y467817D01*
X222886Y467826D01*
X222810Y467843D01*
X222764Y467839D01*
X222719Y467844D01*
X222642Y467828D01*
X222565Y467820D01*
X222523Y467802D01*
X222478Y467792D01*
X222411Y467752D01*
X222340Y467720D01*
X222306Y467689D01*
X222267Y467666D01*
X222216Y467607D01*
X222159Y467554D01*
X222137Y467514D01*
X222107Y467479D01*
X222078Y467407D01*
X222041Y467338D01*
X222032Y467293D01*
X222015Y467251D01*
X222000Y467115D01*
X221997Y467096D01*
X221998Y467091D01*
X221997Y467084D01*
X221997Y431038D01*
X222000Y431018D01*
X221998Y430999D01*
X222020Y430897D01*
X222036Y430795D01*
X222046Y430778D01*
X222050Y430758D01*
X222103Y430669D01*
X222152Y430578D01*
X222166Y430564D01*
X222176Y430547D01*
X222255Y430480D01*
X222330Y430408D01*
X222348Y430400D01*
X222363Y430387D01*
X222459Y430348D01*
X222553Y430305D01*
X222573Y430303D01*
X222591Y430295D01*
X222758Y430277D01*
X225235Y430277D01*
X229343Y428575D01*
X232487Y425431D01*
X234189Y421323D01*
X234189Y416877D01*
X232487Y412769D01*
X229343Y409625D01*
X225235Y407923D01*
X206565Y407923D01*
X202457Y409625D01*
X199313Y412769D01*
X197611Y416877D01*
X197611Y421323D01*
X199313Y425431D01*
X202457Y428575D01*
X206565Y430277D01*
X209042Y430277D01*
X209062Y430280D01*
X209081Y430278D01*
X209183Y430300D01*
X209285Y430316D01*
X209302Y430326D01*
X209322Y430330D01*
X209411Y430383D01*
X209502Y430432D01*
X209516Y430446D01*
X209533Y430456D01*
X209600Y430535D01*
X209672Y430610D01*
X209680Y430628D01*
X209693Y430643D01*
X209732Y430739D01*
X209775Y430833D01*
X209777Y430853D01*
X209785Y430871D01*
X209803Y431038D01*
X209803Y464519D01*
X209789Y464609D01*
X209781Y464700D01*
X209769Y464730D01*
X209764Y464762D01*
X209721Y464843D01*
X209685Y464927D01*
X209659Y464959D01*
X209648Y464979D01*
X209625Y465002D01*
X209580Y465058D01*
X207767Y466871D01*
X207672Y466940D01*
X207578Y467009D01*
X207572Y467011D01*
X207567Y467015D01*
X207455Y467049D01*
X207344Y467085D01*
X207338Y467085D01*
X207332Y467087D01*
X207215Y467084D01*
X207098Y467083D01*
X207091Y467081D01*
X207086Y467081D01*
X207069Y467074D01*
X206937Y467036D01*
X205878Y466597D01*
X200522Y466597D01*
X195574Y468647D01*
X194740Y469481D01*
X194660Y469538D01*
X194585Y469600D01*
X194561Y469610D01*
X194540Y469625D01*
X194447Y469653D01*
X194356Y469688D01*
X194330Y469689D01*
X194305Y469697D01*
X194207Y469695D01*
X194110Y469699D01*
X194085Y469692D01*
X194059Y469691D01*
X193967Y469657D01*
X193874Y469630D01*
X193852Y469615D01*
X193828Y469606D01*
X193752Y469545D01*
X193672Y469490D01*
X193656Y469469D01*
X193636Y469453D01*
X193583Y469371D01*
X193525Y469293D01*
X193517Y469268D01*
X193503Y469246D01*
X193479Y469151D01*
X193449Y469059D01*
X193449Y469033D01*
X193443Y469007D01*
X193450Y468910D01*
X193451Y468813D01*
X193460Y468781D01*
X193462Y468762D01*
X193475Y468732D01*
X193498Y468652D01*
X194057Y467303D01*
X194057Y161873D01*
X194071Y161783D01*
X194079Y161692D01*
X194091Y161662D01*
X194096Y161630D01*
X194139Y161549D01*
X194175Y161465D01*
X194201Y161433D01*
X194212Y161413D01*
X194235Y161390D01*
X194280Y161334D01*
X204913Y150701D01*
X205008Y150633D01*
X205102Y150563D01*
X205108Y150561D01*
X205113Y150558D01*
X205224Y150523D01*
X205335Y150487D01*
X205342Y150487D01*
X205348Y150485D01*
X205465Y150488D01*
X205581Y150489D01*
X205589Y150491D01*
X205594Y150492D01*
X205611Y150498D01*
X205743Y150536D01*
X206565Y150877D01*
X225235Y150877D01*
X229343Y149175D01*
X232487Y146031D01*
X233739Y143010D01*
X233790Y142927D01*
X233836Y142841D01*
X233854Y142823D01*
X233868Y142801D01*
X233944Y142738D01*
X234014Y142671D01*
X234038Y142660D01*
X234058Y142644D01*
X234149Y142609D01*
X234237Y142568D01*
X234263Y142565D01*
X234287Y142556D01*
X234385Y142551D01*
X234481Y142541D01*
X234507Y142546D01*
X234533Y142545D01*
X234627Y142572D01*
X234722Y142593D01*
X234744Y142606D01*
X234769Y142614D01*
X234849Y142669D01*
X234933Y142719D01*
X234950Y142739D01*
X234971Y142754D01*
X235030Y142832D01*
X235093Y142906D01*
X235103Y142930D01*
X235118Y142951D01*
X235148Y143044D01*
X235185Y143134D01*
X235188Y143167D01*
X235194Y143185D01*
X235194Y143218D01*
X235203Y143301D01*
X235203Y161499D01*
X235188Y161595D01*
X235178Y161692D01*
X235168Y161716D01*
X235164Y161742D01*
X235118Y161828D01*
X235078Y161917D01*
X235061Y161936D01*
X235048Y161959D01*
X234978Y162026D01*
X234912Y162098D01*
X234889Y162111D01*
X234870Y162129D01*
X234782Y162170D01*
X234696Y162217D01*
X234671Y162221D01*
X234647Y162232D01*
X234550Y162243D01*
X234454Y162260D01*
X234428Y162256D01*
X234403Y162259D01*
X234307Y162239D01*
X234211Y162224D01*
X234188Y162213D01*
X234162Y162207D01*
X234079Y162157D01*
X233992Y162113D01*
X233973Y162094D01*
X233951Y162081D01*
X233888Y162007D01*
X233820Y161937D01*
X233804Y161909D01*
X233791Y161894D01*
X233779Y161863D01*
X233739Y161790D01*
X232487Y158769D01*
X229343Y155625D01*
X225235Y153923D01*
X206565Y153923D01*
X202457Y155625D01*
X199313Y158769D01*
X197611Y162877D01*
X197611Y167323D01*
X199313Y171431D01*
X202457Y174575D01*
X206565Y176277D01*
X225235Y176277D01*
X229343Y174575D01*
X232487Y171431D01*
X233739Y168410D01*
X233790Y168327D01*
X233836Y168241D01*
X233854Y168223D01*
X233868Y168201D01*
X233944Y168138D01*
X234014Y168071D01*
X234038Y168060D01*
X234058Y168044D01*
X234149Y168009D01*
X234237Y167968D01*
X234263Y167965D01*
X234287Y167956D01*
X234385Y167951D01*
X234481Y167941D01*
X234507Y167946D01*
X234533Y167945D01*
X234627Y167972D01*
X234722Y167993D01*
X234744Y168006D01*
X234769Y168014D01*
X234849Y168069D01*
X234933Y168119D01*
X234950Y168139D01*
X234971Y168154D01*
X235030Y168232D01*
X235093Y168306D01*
X235103Y168330D01*
X235118Y168351D01*
X235148Y168444D01*
X235185Y168534D01*
X235188Y168567D01*
X235194Y168585D01*
X235194Y168618D01*
X235203Y168701D01*
X235203Y186899D01*
X235188Y186995D01*
X235178Y187092D01*
X235168Y187116D01*
X235164Y187142D01*
X235118Y187228D01*
X235078Y187317D01*
X235061Y187336D01*
X235048Y187359D01*
X234978Y187426D01*
X234912Y187498D01*
X234889Y187511D01*
X234870Y187529D01*
X234782Y187570D01*
X234696Y187617D01*
X234671Y187621D01*
X234647Y187632D01*
X234550Y187643D01*
X234454Y187660D01*
X234428Y187656D01*
X234403Y187659D01*
X234307Y187639D01*
X234211Y187624D01*
X234188Y187613D01*
X234162Y187607D01*
X234079Y187557D01*
X233992Y187513D01*
X233973Y187494D01*
X233951Y187481D01*
X233888Y187407D01*
X233820Y187337D01*
X233804Y187309D01*
X233791Y187294D01*
X233779Y187263D01*
X233739Y187190D01*
X232487Y184169D01*
X229343Y181025D01*
X225235Y179323D01*
X206565Y179323D01*
X202457Y181025D01*
X199313Y184169D01*
X197611Y188277D01*
X197611Y192723D01*
X199313Y196831D01*
X202457Y199975D01*
X206565Y201677D01*
X219663Y201677D01*
X219734Y201688D01*
X219806Y201690D01*
X219855Y201708D01*
X219906Y201716D01*
X219969Y201750D01*
X220037Y201775D01*
X220077Y201807D01*
X220124Y201832D01*
X220173Y201884D01*
X220229Y201928D01*
X220257Y201972D01*
X220293Y202010D01*
X220323Y202075D01*
X220362Y202135D01*
X220375Y202186D01*
X220397Y202233D01*
X220404Y202304D01*
X220422Y202374D01*
X220418Y202426D01*
X220424Y202477D01*
X220408Y202548D01*
X220403Y202619D01*
X220382Y202667D01*
X220371Y202718D01*
X220335Y202779D01*
X220306Y202845D01*
X220262Y202901D01*
X220245Y202929D01*
X220227Y202944D01*
X220202Y202976D01*
X218678Y204500D01*
X218604Y204553D01*
X218534Y204613D01*
X218504Y204625D01*
X218478Y204644D01*
X218391Y204671D01*
X218306Y204705D01*
X218265Y204709D01*
X218243Y204716D01*
X218211Y204715D01*
X218139Y204723D01*
X206565Y204723D01*
X202457Y206425D01*
X199313Y209569D01*
X197611Y213677D01*
X197611Y218123D01*
X199313Y222231D01*
X202457Y225375D01*
X206565Y227077D01*
X225235Y227077D01*
X229343Y225375D01*
X232487Y222231D01*
X234189Y218123D01*
X234189Y213677D01*
X232487Y209569D01*
X232208Y209290D01*
X232197Y209274D01*
X232181Y209262D01*
X232125Y209174D01*
X232065Y209090D01*
X232059Y209071D01*
X232048Y209055D01*
X232023Y208954D01*
X231993Y208855D01*
X231993Y208835D01*
X231988Y208816D01*
X231996Y208713D01*
X231999Y208609D01*
X232006Y208591D01*
X232007Y208571D01*
X232048Y208476D01*
X232083Y208378D01*
X232096Y208363D01*
X232104Y208345D01*
X232208Y208214D01*
X246469Y193954D01*
X247397Y191713D01*
X247397Y133034D01*
X247411Y132944D01*
X247419Y132853D01*
X247431Y132823D01*
X247436Y132791D01*
X247479Y132711D01*
X247515Y132627D01*
X247541Y132595D01*
X247552Y132574D01*
X247575Y132552D01*
X247620Y132496D01*
X248383Y131733D01*
X249655Y128662D01*
X249655Y125338D01*
X248383Y122267D01*
X246033Y119917D01*
X242962Y118645D01*
X239638Y118645D01*
X236567Y119917D01*
X234217Y122267D01*
X232945Y125338D01*
X232945Y128662D01*
X234217Y131733D01*
X234980Y132496D01*
X235033Y132570D01*
X235093Y132639D01*
X235105Y132669D01*
X235124Y132695D01*
X235151Y132782D01*
X235185Y132867D01*
X235189Y132908D01*
X235196Y132931D01*
X235195Y132963D01*
X235203Y133034D01*
X235203Y136099D01*
X235188Y136195D01*
X235178Y136292D01*
X235168Y136316D01*
X235164Y136342D01*
X235118Y136428D01*
X235078Y136517D01*
X235061Y136536D01*
X235048Y136559D01*
X234978Y136626D01*
X234912Y136698D01*
X234889Y136711D01*
X234870Y136729D01*
X234782Y136770D01*
X234696Y136817D01*
X234671Y136821D01*
X234647Y136832D01*
X234550Y136843D01*
X234454Y136860D01*
X234428Y136856D01*
X234403Y136859D01*
X234307Y136839D01*
X234211Y136824D01*
X234188Y136813D01*
X234162Y136807D01*
X234079Y136757D01*
X233992Y136713D01*
X233973Y136694D01*
X233951Y136681D01*
X233888Y136607D01*
X233820Y136537D01*
X233804Y136509D01*
X233791Y136494D01*
X233779Y136463D01*
X233739Y136390D01*
X232487Y133369D01*
X229343Y130225D01*
X225235Y128523D01*
X206565Y128523D01*
X202457Y130225D01*
X199313Y133369D01*
X197611Y137477D01*
X197611Y140443D01*
X197597Y140533D01*
X197589Y140624D01*
X197577Y140654D01*
X197572Y140686D01*
X197529Y140767D01*
X197493Y140851D01*
X197467Y140883D01*
X197456Y140903D01*
X197433Y140926D01*
X197388Y140982D01*
X195102Y143268D01*
X195044Y143310D01*
X194992Y143359D01*
X194945Y143381D01*
X194902Y143411D01*
X194834Y143432D01*
X194769Y143463D01*
X194717Y143468D01*
X194667Y143484D01*
X194596Y143482D01*
X194524Y143490D01*
X194474Y143479D01*
X194422Y143477D01*
X194354Y143453D01*
X194284Y143437D01*
X194239Y143411D01*
X194191Y143393D01*
X194134Y143348D01*
X194073Y143311D01*
X194039Y143272D01*
X193998Y143239D01*
X193960Y143179D01*
X193913Y143124D01*
X193894Y143076D01*
X193865Y143032D01*
X193848Y142963D01*
X193821Y142896D01*
X193813Y142825D01*
X193805Y142794D01*
X193807Y142770D01*
X193803Y142729D01*
X193803Y141223D01*
X185673Y141223D01*
X185673Y149353D01*
X187179Y149353D01*
X187250Y149364D01*
X187322Y149366D01*
X187371Y149384D01*
X187422Y149392D01*
X187485Y149426D01*
X187553Y149451D01*
X187594Y149483D01*
X187640Y149508D01*
X187689Y149559D01*
X187745Y149604D01*
X187773Y149648D01*
X187809Y149686D01*
X187839Y149751D01*
X187878Y149811D01*
X187891Y149862D01*
X187913Y149909D01*
X187920Y149980D01*
X187938Y150050D01*
X187934Y150102D01*
X187940Y150153D01*
X187924Y150224D01*
X187919Y150295D01*
X187898Y150343D01*
X187887Y150394D01*
X187851Y150455D01*
X187822Y150521D01*
X187778Y150577D01*
X187761Y150605D01*
X187743Y150620D01*
X187718Y150652D01*
X184614Y153756D01*
X184613Y153756D01*
X182791Y155578D01*
X181863Y157819D01*
X181863Y463249D01*
X181849Y463339D01*
X181841Y463430D01*
X181829Y463460D01*
X181824Y463492D01*
X181781Y463573D01*
X181745Y463657D01*
X181719Y463689D01*
X181708Y463709D01*
X181685Y463732D01*
X181640Y463788D01*
X179308Y466120D01*
X179234Y466173D01*
X179164Y466233D01*
X179134Y466245D01*
X179108Y466264D01*
X179021Y466291D01*
X178936Y466325D01*
X178895Y466329D01*
X178873Y466336D01*
X178841Y466335D01*
X178769Y466343D01*
X171900Y466343D01*
X165353Y472890D01*
X165353Y482150D01*
X171900Y488697D01*
X181160Y488697D01*
X187707Y482150D01*
X187707Y475281D01*
X187711Y475252D01*
X187710Y475239D01*
X187722Y475183D01*
X187729Y475100D01*
X187741Y475070D01*
X187746Y475038D01*
X187759Y475015D01*
X187762Y474999D01*
X187795Y474944D01*
X187825Y474873D01*
X187851Y474841D01*
X187862Y474821D01*
X187878Y474805D01*
X187888Y474788D01*
X187905Y474774D01*
X187930Y474742D01*
X190176Y472496D01*
X190255Y472439D01*
X190330Y472377D01*
X190354Y472368D01*
X190376Y472353D01*
X190469Y472324D01*
X190560Y472289D01*
X190586Y472288D01*
X190611Y472280D01*
X190708Y472283D01*
X190805Y472279D01*
X190830Y472286D01*
X190857Y472287D01*
X190948Y472320D01*
X191042Y472347D01*
X191063Y472362D01*
X191088Y472371D01*
X191164Y472432D01*
X191244Y472487D01*
X191259Y472508D01*
X191280Y472525D01*
X191332Y472607D01*
X191390Y472685D01*
X191398Y472710D01*
X191413Y472732D01*
X191436Y472826D01*
X191467Y472919D01*
X191466Y472945D01*
X191473Y472970D01*
X191465Y473067D01*
X191464Y473165D01*
X191455Y473196D01*
X191454Y473215D01*
X191441Y473246D01*
X191417Y473326D01*
X189737Y477382D01*
X189737Y482738D01*
X191787Y487686D01*
X195574Y491473D01*
X200522Y493523D01*
X205878Y493523D01*
X210826Y491473D01*
X214613Y487686D01*
X215197Y486277D01*
X215235Y486216D01*
X215264Y486151D01*
X215299Y486112D01*
X215326Y486068D01*
X215382Y486022D01*
X215430Y485970D01*
X215476Y485945D01*
X215516Y485911D01*
X215583Y485886D01*
X215646Y485851D01*
X215697Y485842D01*
X215745Y485823D01*
X215817Y485820D01*
X215888Y485807D01*
X215939Y485815D01*
X215991Y485813D01*
X216060Y485833D01*
X216131Y485843D01*
X216177Y485867D01*
X216227Y485881D01*
X216286Y485922D01*
X216350Y485955D01*
X216387Y485992D01*
X216429Y486022D01*
X216472Y486079D01*
X216522Y486130D01*
X216557Y486193D01*
X216576Y486219D01*
X216583Y486241D01*
X216603Y486277D01*
X217187Y487686D01*
X220974Y491473D01*
X225922Y493523D01*
X231278Y493523D01*
X236226Y491473D01*
X240013Y487686D01*
X241416Y484300D01*
X241469Y484214D01*
X241517Y484125D01*
X241534Y484110D01*
X241545Y484091D01*
X241623Y484027D01*
X241697Y483958D01*
X241718Y483949D01*
X241735Y483934D01*
X241829Y483898D01*
X241922Y483856D01*
X241944Y483854D01*
X241964Y483846D01*
X242065Y483842D01*
X242166Y483832D01*
X242188Y483837D01*
X242210Y483836D01*
X242307Y483864D01*
X242406Y483887D01*
X242425Y483898D01*
X242446Y483904D01*
X242529Y483962D01*
X242616Y484015D01*
X242630Y484032D01*
X242648Y484045D01*
X242709Y484126D01*
X242774Y484204D01*
X242785Y484228D01*
X242795Y484242D01*
X242805Y484273D01*
X242843Y484356D01*
X242936Y484643D01*
X243789Y486317D01*
X244894Y487838D01*
X246222Y489166D01*
X247743Y490271D01*
X249417Y491124D01*
X251204Y491705D01*
X252477Y491906D01*
X252477Y480822D01*
X252480Y480802D01*
X252478Y480783D01*
X252500Y480681D01*
X252517Y480579D01*
X252526Y480562D01*
X252530Y480542D01*
X252583Y480453D01*
X252632Y480362D01*
X252646Y480348D01*
X252656Y480331D01*
X252735Y480264D01*
X252810Y480193D01*
X252828Y480184D01*
X252843Y480171D01*
X252939Y480133D01*
X253033Y480089D01*
X253053Y480087D01*
X253071Y480079D01*
X253238Y480061D01*
X254762Y480061D01*
X254782Y480064D01*
X254801Y480062D01*
X254903Y480084D01*
X255005Y480101D01*
X255022Y480110D01*
X255042Y480114D01*
X255131Y480167D01*
X255222Y480216D01*
X255236Y480230D01*
X255253Y480240D01*
X255320Y480319D01*
X255391Y480394D01*
X255400Y480412D01*
X255413Y480427D01*
X255452Y480523D01*
X255495Y480617D01*
X255497Y480637D01*
X255505Y480655D01*
X255523Y480822D01*
X255523Y491906D01*
X256796Y491705D01*
X258583Y491124D01*
X260257Y490271D01*
X261778Y489166D01*
X263106Y487838D01*
X264211Y486317D01*
X265064Y484643D01*
X265157Y484356D01*
X265204Y484266D01*
X265245Y484174D01*
X265260Y484158D01*
X265270Y484138D01*
X265343Y484067D01*
X265411Y483993D01*
X265431Y483982D01*
X265447Y483967D01*
X265538Y483923D01*
X265627Y483874D01*
X265649Y483870D01*
X265669Y483861D01*
X265769Y483848D01*
X265869Y483830D01*
X265891Y483834D01*
X265913Y483831D01*
X266012Y483851D01*
X266112Y483866D01*
X266132Y483876D01*
X266154Y483881D01*
X266241Y483932D01*
X266331Y483978D01*
X266347Y483994D01*
X266366Y484005D01*
X266433Y484081D01*
X266504Y484153D01*
X266517Y484177D01*
X266528Y484190D01*
X266540Y484220D01*
X266584Y484300D01*
X267987Y487686D01*
X271774Y491473D01*
X276722Y493523D01*
X282078Y493523D01*
X287026Y491473D01*
X290813Y487686D01*
X291397Y486277D01*
X291435Y486216D01*
X291464Y486151D01*
X291499Y486112D01*
X291526Y486068D01*
X291582Y486022D01*
X291630Y485970D01*
X291676Y485945D01*
X291716Y485911D01*
X291783Y485886D01*
X291846Y485851D01*
X291897Y485842D01*
X291945Y485823D01*
X292017Y485820D01*
X292088Y485807D01*
X292139Y485815D01*
X292191Y485813D01*
X292260Y485833D01*
X292331Y485843D01*
X292377Y485867D01*
X292427Y485881D01*
X292486Y485922D01*
X292550Y485955D01*
X292587Y485992D01*
X292629Y486022D01*
X292672Y486079D01*
X292722Y486130D01*
X292757Y486193D01*
X292776Y486219D01*
X292783Y486241D01*
X292803Y486277D01*
X293387Y487686D01*
X297174Y491473D01*
X302122Y493523D01*
X307478Y493523D01*
X312426Y491473D01*
X316213Y487686D01*
X318263Y482738D01*
X318263Y477382D01*
X316213Y472434D01*
X312426Y468647D01*
X311367Y468208D01*
X311267Y468146D01*
X311167Y468087D01*
X311163Y468082D01*
X311158Y468078D01*
X311083Y467988D01*
X311007Y467900D01*
X311005Y467894D01*
X311001Y467889D01*
X310959Y467781D01*
X310915Y467671D01*
X310914Y467664D01*
X310913Y467659D01*
X310912Y467641D01*
X310897Y467505D01*
X310897Y455987D01*
X309969Y453746D01*
X287798Y431576D01*
X287757Y431518D01*
X287707Y431466D01*
X287685Y431419D01*
X287655Y431377D01*
X287634Y431308D01*
X287603Y431243D01*
X287598Y431191D01*
X287582Y431141D01*
X287584Y431070D01*
X287576Y430999D01*
X287587Y430948D01*
X287589Y430896D01*
X287613Y430828D01*
X287629Y430758D01*
X287655Y430713D01*
X287673Y430665D01*
X287718Y430609D01*
X287755Y430547D01*
X287794Y430513D01*
X287827Y430473D01*
X287887Y430434D01*
X287942Y430387D01*
X287990Y430368D01*
X288034Y430340D01*
X288103Y430322D01*
X288170Y430295D01*
X288241Y430287D01*
X288272Y430279D01*
X288296Y430281D01*
X288337Y430277D01*
X301435Y430277D01*
X305543Y428575D01*
X308699Y425420D01*
X308773Y425367D01*
X308842Y425307D01*
X308872Y425295D01*
X308898Y425276D01*
X308985Y425249D01*
X309070Y425215D01*
X309111Y425211D01*
X309133Y425204D01*
X309166Y425205D01*
X309237Y425197D01*
X312555Y425197D01*
X312645Y425211D01*
X312736Y425219D01*
X312766Y425231D01*
X312798Y425236D01*
X312879Y425279D01*
X312962Y425315D01*
X312995Y425341D01*
X313015Y425352D01*
X313037Y425375D01*
X313093Y425420D01*
X317950Y430277D01*
X324612Y430277D01*
X324632Y430280D01*
X324651Y430278D01*
X324753Y430300D01*
X324855Y430316D01*
X324872Y430326D01*
X324892Y430330D01*
X324981Y430383D01*
X325072Y430432D01*
X325086Y430446D01*
X325103Y430456D01*
X325170Y430535D01*
X325242Y430610D01*
X325250Y430628D01*
X325263Y430643D01*
X325302Y430739D01*
X325345Y430833D01*
X325347Y430853D01*
X325355Y430871D01*
X325373Y431038D01*
X325373Y467495D01*
X325359Y467585D01*
X325351Y467676D01*
X325339Y467706D01*
X325334Y467738D01*
X325291Y467819D01*
X325255Y467902D01*
X325229Y467935D01*
X325218Y467955D01*
X325195Y467977D01*
X325150Y468033D01*
X320293Y472890D01*
X320293Y482150D01*
X326840Y488697D01*
X336100Y488697D01*
X342647Y482150D01*
X342647Y472890D01*
X337790Y468033D01*
X337737Y467959D01*
X337677Y467890D01*
X337665Y467860D01*
X337646Y467834D01*
X337619Y467747D01*
X337585Y467662D01*
X337581Y467621D01*
X337574Y467599D01*
X337575Y467566D01*
X337567Y467495D01*
X337567Y426777D01*
X336639Y424536D01*
X333980Y421878D01*
X333927Y421804D01*
X333867Y421734D01*
X333855Y421704D01*
X333836Y421678D01*
X333809Y421591D01*
X333775Y421506D01*
X333771Y421465D01*
X333764Y421443D01*
X333765Y421411D01*
X333757Y421339D01*
X333757Y416861D01*
X333771Y416771D01*
X333779Y416680D01*
X333791Y416650D01*
X333796Y416618D01*
X333839Y416537D01*
X333875Y416453D01*
X333901Y416421D01*
X333912Y416401D01*
X333935Y416378D01*
X333980Y416322D01*
X360442Y389860D01*
X360516Y389807D01*
X360586Y389747D01*
X360616Y389735D01*
X360642Y389716D01*
X360729Y389689D01*
X360814Y389655D01*
X360855Y389651D01*
X360877Y389644D01*
X360909Y389645D01*
X360981Y389637D01*
X396375Y389637D01*
X396465Y389651D01*
X396556Y389659D01*
X396586Y389671D01*
X396618Y389676D01*
X396699Y389719D01*
X396782Y389755D01*
X396815Y389781D01*
X396835Y389792D01*
X396857Y389815D01*
X396913Y389860D01*
X401770Y394717D01*
X411030Y394717D01*
X417577Y388170D01*
X417577Y378910D01*
X412720Y374053D01*
X412667Y373979D01*
X412607Y373910D01*
X412595Y373880D01*
X412576Y373854D01*
X412549Y373767D01*
X412515Y373682D01*
X412511Y373641D01*
X412504Y373619D01*
X412505Y373586D01*
X412497Y373515D01*
X412497Y171134D01*
X412511Y171044D01*
X412519Y170953D01*
X412531Y170923D01*
X412536Y170891D01*
X412579Y170811D01*
X412615Y170727D01*
X412641Y170695D01*
X412652Y170674D01*
X412675Y170652D01*
X412720Y170596D01*
X413483Y169833D01*
X414755Y166762D01*
X414755Y165683D01*
X414769Y165593D01*
X414777Y165502D01*
X414789Y165472D01*
X414794Y165440D01*
X414837Y165359D01*
X414873Y165275D01*
X414899Y165243D01*
X414910Y165223D01*
X414933Y165200D01*
X414978Y165144D01*
X431889Y148234D01*
X432817Y145993D01*
X432817Y110794D01*
X432828Y110723D01*
X432830Y110651D01*
X432848Y110602D01*
X432856Y110551D01*
X432890Y110488D01*
X432915Y110420D01*
X432947Y110380D01*
X432972Y110334D01*
X433024Y110284D01*
X433068Y110228D01*
X433112Y110200D01*
X433150Y110164D01*
X433215Y110134D01*
X433275Y110095D01*
X433326Y110083D01*
X433373Y110061D01*
X433444Y110053D01*
X433514Y110035D01*
X433566Y110039D01*
X433617Y110033D01*
X433688Y110049D01*
X433759Y110054D01*
X433807Y110075D01*
X433858Y110086D01*
X433919Y110123D01*
X433985Y110151D01*
X434041Y110195D01*
X434069Y110212D01*
X434084Y110230D01*
X434116Y110255D01*
X436874Y113013D01*
X441822Y115063D01*
X447178Y115063D01*
X452126Y113013D01*
X455913Y109226D01*
X457963Y104278D01*
X457963Y98922D01*
X455913Y93974D01*
X452126Y90187D01*
X450717Y89603D01*
X450656Y89566D01*
X450591Y89536D01*
X450552Y89501D01*
X450508Y89474D01*
X450462Y89418D01*
X450410Y89370D01*
X450385Y89324D01*
X450351Y89284D01*
X450326Y89217D01*
X450291Y89154D01*
X450282Y89103D01*
X450263Y89055D01*
X450260Y88983D01*
X450247Y88912D01*
X450255Y88861D01*
X450253Y88809D01*
X450273Y88740D01*
X450283Y88669D01*
X450307Y88623D01*
X450321Y88573D01*
X450362Y88514D01*
X450395Y88450D01*
X450432Y88413D01*
X450462Y88371D01*
X450519Y88328D01*
X450570Y88278D01*
X450633Y88243D01*
X450659Y88224D01*
X450681Y88217D01*
X450717Y88197D01*
X452126Y87613D01*
X455913Y83826D01*
X457963Y78878D01*
X457963Y73522D01*
X455913Y68574D01*
X452126Y64787D01*
X450717Y64203D01*
X450656Y64166D01*
X450591Y64136D01*
X450552Y64101D01*
X450508Y64074D01*
X450462Y64018D01*
X450410Y63970D01*
X450385Y63924D01*
X450351Y63884D01*
X450326Y63817D01*
X450291Y63754D01*
X450282Y63703D01*
X450263Y63655D01*
X450260Y63583D01*
X450247Y63512D01*
X450255Y63461D01*
X450253Y63409D01*
X450273Y63340D01*
X450283Y63269D01*
X450307Y63223D01*
X450321Y63173D01*
X450362Y63114D01*
X450395Y63050D01*
X450432Y63013D01*
X450462Y62971D01*
X450519Y62928D01*
X450570Y62878D01*
X450633Y62843D01*
X450659Y62824D01*
X450681Y62817D01*
X450717Y62797D01*
X452126Y62213D01*
X455913Y58426D01*
X457963Y53478D01*
X457963Y48122D01*
X455913Y43174D01*
X452126Y39387D01*
X448740Y37984D01*
X448654Y37931D01*
X448565Y37883D01*
X448550Y37866D01*
X448531Y37855D01*
X448467Y37777D01*
X448398Y37703D01*
X448389Y37682D01*
X448374Y37665D01*
X448338Y37571D01*
X448296Y37478D01*
X448294Y37456D01*
X448286Y37436D01*
X448282Y37335D01*
X448272Y37234D01*
X448277Y37212D01*
X448276Y37190D01*
X448304Y37093D01*
X448327Y36994D01*
X448338Y36975D01*
X448344Y36954D01*
X448402Y36871D01*
X448455Y36784D01*
X448472Y36770D01*
X448485Y36752D01*
X448566Y36691D01*
X448644Y36626D01*
X448668Y36615D01*
X448682Y36605D01*
X448713Y36595D01*
X448796Y36557D01*
X449083Y36464D01*
X450757Y35611D01*
X452278Y34506D01*
X453606Y33178D01*
X454711Y31657D01*
X455564Y29983D01*
X456145Y28196D01*
X456346Y26923D01*
X445262Y26923D01*
X445242Y26920D01*
X445223Y26922D01*
X445121Y26900D01*
X445019Y26883D01*
X445002Y26874D01*
X444982Y26870D01*
X444893Y26817D01*
X444802Y26768D01*
X444788Y26754D01*
X444771Y26744D01*
X444704Y26665D01*
X444633Y26590D01*
X444624Y26572D01*
X444611Y26557D01*
X444573Y26461D01*
X444529Y26367D01*
X444527Y26347D01*
X444519Y26329D01*
X444501Y26162D01*
X444501Y25399D01*
X444499Y25399D01*
G37*
%LPD*%
%LPC*%
G36*
X304662Y6857D02*
X304662Y6857D01*
X299714Y8907D01*
X295927Y12694D01*
X294524Y16080D01*
X294471Y16166D01*
X294423Y16255D01*
X294406Y16270D01*
X294395Y16289D01*
X294317Y16353D01*
X294243Y16422D01*
X294222Y16431D01*
X294205Y16446D01*
X294111Y16482D01*
X294018Y16524D01*
X293996Y16526D01*
X293976Y16534D01*
X293875Y16538D01*
X293774Y16548D01*
X293752Y16543D01*
X293730Y16544D01*
X293633Y16516D01*
X293534Y16493D01*
X293515Y16482D01*
X293494Y16476D01*
X293411Y16418D01*
X293324Y16365D01*
X293310Y16348D01*
X293292Y16335D01*
X293231Y16254D01*
X293166Y16176D01*
X293155Y16152D01*
X293145Y16138D01*
X293135Y16107D01*
X293097Y16024D01*
X293004Y15737D01*
X292151Y14063D01*
X291046Y12542D01*
X289718Y11214D01*
X288197Y10109D01*
X286523Y9256D01*
X284736Y8675D01*
X283463Y8474D01*
X283463Y19558D01*
X283460Y19578D01*
X283462Y19597D01*
X283440Y19699D01*
X283423Y19801D01*
X283414Y19818D01*
X283410Y19838D01*
X283357Y19927D01*
X283308Y20018D01*
X283294Y20032D01*
X283284Y20049D01*
X283205Y20116D01*
X283130Y20187D01*
X283112Y20196D01*
X283097Y20209D01*
X283001Y20247D01*
X282907Y20291D01*
X282887Y20293D01*
X282869Y20301D01*
X282702Y20319D01*
X281939Y20319D01*
X281939Y20321D01*
X282702Y20321D01*
X282722Y20324D01*
X282741Y20322D01*
X282843Y20344D01*
X282945Y20361D01*
X282962Y20370D01*
X282982Y20374D01*
X283071Y20427D01*
X283162Y20476D01*
X283176Y20490D01*
X283193Y20500D01*
X283260Y20579D01*
X283331Y20654D01*
X283340Y20672D01*
X283353Y20687D01*
X283392Y20783D01*
X283435Y20877D01*
X283437Y20897D01*
X283445Y20915D01*
X283463Y21082D01*
X283463Y32166D01*
X284736Y31965D01*
X286523Y31384D01*
X288197Y30531D01*
X289718Y29426D01*
X291046Y28098D01*
X292151Y26577D01*
X293004Y24903D01*
X293097Y24616D01*
X293144Y24526D01*
X293185Y24434D01*
X293200Y24418D01*
X293210Y24398D01*
X293283Y24327D01*
X293351Y24253D01*
X293371Y24242D01*
X293387Y24227D01*
X293478Y24183D01*
X293567Y24134D01*
X293589Y24130D01*
X293609Y24121D01*
X293709Y24108D01*
X293809Y24090D01*
X293831Y24094D01*
X293853Y24091D01*
X293952Y24111D01*
X294052Y24126D01*
X294072Y24136D01*
X294094Y24141D01*
X294181Y24192D01*
X294271Y24238D01*
X294287Y24254D01*
X294306Y24265D01*
X294373Y24341D01*
X294444Y24413D01*
X294457Y24437D01*
X294468Y24450D01*
X294480Y24480D01*
X294524Y24560D01*
X295927Y27946D01*
X299714Y31733D01*
X304662Y33783D01*
X310018Y33783D01*
X314966Y31733D01*
X318753Y27946D01*
X319337Y26537D01*
X319375Y26476D01*
X319404Y26411D01*
X319439Y26372D01*
X319466Y26328D01*
X319522Y26282D01*
X319570Y26230D01*
X319616Y26205D01*
X319656Y26171D01*
X319723Y26146D01*
X319786Y26111D01*
X319837Y26102D01*
X319885Y26083D01*
X319957Y26080D01*
X320028Y26067D01*
X320079Y26075D01*
X320131Y26073D01*
X320200Y26093D01*
X320271Y26103D01*
X320317Y26127D01*
X320367Y26141D01*
X320426Y26182D01*
X320490Y26215D01*
X320527Y26252D01*
X320569Y26282D01*
X320612Y26339D01*
X320662Y26390D01*
X320697Y26453D01*
X320716Y26479D01*
X320723Y26501D01*
X320743Y26537D01*
X321327Y27946D01*
X325114Y31733D01*
X330062Y33783D01*
X334217Y33783D01*
X334288Y33794D01*
X334360Y33796D01*
X334409Y33814D01*
X334460Y33822D01*
X334523Y33856D01*
X334591Y33881D01*
X334631Y33913D01*
X334678Y33938D01*
X334727Y33990D01*
X334783Y34034D01*
X334811Y34078D01*
X334847Y34116D01*
X334877Y34181D01*
X334916Y34241D01*
X334929Y34292D01*
X334951Y34339D01*
X334958Y34410D01*
X334976Y34480D01*
X334972Y34532D01*
X334978Y34583D01*
X334962Y34654D01*
X334957Y34725D01*
X334936Y34773D01*
X334925Y34824D01*
X334889Y34885D01*
X334860Y34951D01*
X334816Y35007D01*
X334799Y35035D01*
X334781Y35050D01*
X334756Y35082D01*
X314154Y55684D01*
X312331Y57506D01*
X311403Y59747D01*
X311403Y85299D01*
X311388Y85395D01*
X311378Y85492D01*
X311368Y85516D01*
X311364Y85542D01*
X311318Y85628D01*
X311278Y85717D01*
X311261Y85736D01*
X311248Y85759D01*
X311178Y85826D01*
X311112Y85898D01*
X311089Y85911D01*
X311070Y85929D01*
X310982Y85970D01*
X310896Y86017D01*
X310871Y86021D01*
X310847Y86032D01*
X310750Y86043D01*
X310654Y86060D01*
X310628Y86056D01*
X310603Y86059D01*
X310507Y86039D01*
X310411Y86024D01*
X310388Y86013D01*
X310362Y86007D01*
X310279Y85957D01*
X310192Y85913D01*
X310173Y85894D01*
X310151Y85881D01*
X310088Y85807D01*
X310020Y85737D01*
X310004Y85709D01*
X309991Y85694D01*
X309979Y85663D01*
X309939Y85590D01*
X308687Y82569D01*
X305543Y79425D01*
X301435Y77723D01*
X282765Y77723D01*
X278657Y79425D01*
X275513Y82569D01*
X274974Y83870D01*
X274950Y83909D01*
X274934Y83952D01*
X274885Y84013D01*
X274844Y84079D01*
X274809Y84108D01*
X274780Y84144D01*
X274715Y84186D01*
X274655Y84236D01*
X274612Y84252D01*
X274573Y84277D01*
X274498Y84296D01*
X274425Y84324D01*
X274379Y84326D01*
X274335Y84337D01*
X274257Y84331D01*
X274179Y84334D01*
X274135Y84322D01*
X274090Y84318D01*
X274018Y84288D01*
X273943Y84266D01*
X273905Y84240D01*
X273863Y84222D01*
X273757Y84136D01*
X273741Y84126D01*
X273738Y84122D01*
X273732Y84117D01*
X271433Y81817D01*
X268362Y80545D01*
X265038Y80545D01*
X261967Y81817D01*
X259617Y84167D01*
X258345Y87238D01*
X258345Y90562D01*
X259617Y93633D01*
X260380Y94396D01*
X260433Y94470D01*
X260493Y94539D01*
X260505Y94569D01*
X260524Y94595D01*
X260551Y94682D01*
X260585Y94767D01*
X260589Y94808D01*
X260596Y94831D01*
X260595Y94863D01*
X260603Y94934D01*
X260603Y222566D01*
X260602Y222577D01*
X260602Y222583D01*
X260595Y222615D01*
X260589Y222656D01*
X260581Y222747D01*
X260569Y222777D01*
X260564Y222809D01*
X260521Y222889D01*
X260485Y222973D01*
X260459Y223005D01*
X260448Y223026D01*
X260425Y223048D01*
X260380Y223104D01*
X259617Y223867D01*
X258345Y226938D01*
X258345Y230262D01*
X259617Y233333D01*
X261967Y235683D01*
X265038Y236955D01*
X268362Y236955D01*
X271433Y235683D01*
X273783Y233333D01*
X275055Y230262D01*
X275055Y226938D01*
X273783Y223867D01*
X273020Y223104D01*
X272967Y223030D01*
X272907Y222961D01*
X272895Y222931D01*
X272876Y222905D01*
X272849Y222818D01*
X272815Y222733D01*
X272811Y222692D01*
X272804Y222669D01*
X272805Y222637D01*
X272797Y222566D01*
X272797Y219501D01*
X272812Y219405D01*
X272822Y219308D01*
X272832Y219284D01*
X272836Y219258D01*
X272882Y219172D01*
X272922Y219083D01*
X272939Y219064D01*
X272952Y219041D01*
X273022Y218974D01*
X273088Y218902D01*
X273111Y218889D01*
X273130Y218871D01*
X273218Y218830D01*
X273304Y218783D01*
X273329Y218779D01*
X273353Y218768D01*
X273450Y218757D01*
X273546Y218740D01*
X273572Y218744D01*
X273597Y218741D01*
X273693Y218761D01*
X273789Y218776D01*
X273812Y218787D01*
X273838Y218793D01*
X273921Y218843D01*
X274008Y218887D01*
X274027Y218906D01*
X274049Y218919D01*
X274112Y218993D01*
X274180Y219063D01*
X274196Y219091D01*
X274209Y219106D01*
X274221Y219137D01*
X274261Y219210D01*
X275513Y222231D01*
X278657Y225375D01*
X282765Y227077D01*
X301435Y227077D01*
X305543Y225375D01*
X308687Y222231D01*
X310389Y218123D01*
X310389Y213677D01*
X308687Y209569D01*
X305543Y206425D01*
X301435Y204723D01*
X282765Y204723D01*
X278657Y206425D01*
X275513Y209569D01*
X274261Y212590D01*
X274210Y212673D01*
X274164Y212759D01*
X274145Y212777D01*
X274132Y212799D01*
X274057Y212862D01*
X273986Y212929D01*
X273962Y212940D01*
X273942Y212956D01*
X273851Y212991D01*
X273763Y213032D01*
X273737Y213035D01*
X273713Y213044D01*
X273615Y213049D01*
X273519Y213059D01*
X273493Y213054D01*
X273467Y213055D01*
X273373Y213028D01*
X273278Y213007D01*
X273256Y212994D01*
X273231Y212986D01*
X273151Y212931D01*
X273067Y212881D01*
X273050Y212861D01*
X273029Y212846D01*
X272970Y212768D01*
X272907Y212694D01*
X272897Y212670D01*
X272882Y212649D01*
X272852Y212556D01*
X272815Y212466D01*
X272812Y212433D01*
X272806Y212415D01*
X272806Y212382D01*
X272797Y212299D01*
X272797Y168701D01*
X272812Y168605D01*
X272822Y168508D01*
X272832Y168484D01*
X272836Y168458D01*
X272882Y168372D01*
X272922Y168283D01*
X272939Y168264D01*
X272952Y168241D01*
X273022Y168174D01*
X273088Y168102D01*
X273111Y168089D01*
X273130Y168071D01*
X273218Y168030D01*
X273304Y167983D01*
X273329Y167979D01*
X273353Y167968D01*
X273450Y167957D01*
X273546Y167940D01*
X273572Y167944D01*
X273597Y167941D01*
X273693Y167961D01*
X273789Y167976D01*
X273812Y167987D01*
X273838Y167993D01*
X273921Y168043D01*
X274008Y168087D01*
X274027Y168106D01*
X274049Y168119D01*
X274112Y168193D01*
X274180Y168263D01*
X274196Y168291D01*
X274209Y168306D01*
X274221Y168337D01*
X274261Y168410D01*
X275513Y171431D01*
X278657Y174575D01*
X282765Y176277D01*
X301435Y176277D01*
X305543Y174575D01*
X308687Y171431D01*
X310389Y167323D01*
X310389Y162877D01*
X308687Y158769D01*
X305543Y155625D01*
X301435Y153923D01*
X282765Y153923D01*
X278657Y155625D01*
X275513Y158769D01*
X274261Y161790D01*
X274210Y161873D01*
X274164Y161959D01*
X274146Y161977D01*
X274132Y161999D01*
X274056Y162062D01*
X273986Y162129D01*
X273962Y162140D01*
X273942Y162156D01*
X273851Y162191D01*
X273763Y162232D01*
X273737Y162235D01*
X273713Y162244D01*
X273615Y162249D01*
X273519Y162259D01*
X273493Y162254D01*
X273467Y162255D01*
X273373Y162228D01*
X273278Y162207D01*
X273256Y162194D01*
X273231Y162186D01*
X273151Y162131D01*
X273067Y162081D01*
X273050Y162061D01*
X273029Y162046D01*
X272970Y161968D01*
X272907Y161894D01*
X272897Y161870D01*
X272882Y161849D01*
X272852Y161756D01*
X272815Y161666D01*
X272812Y161633D01*
X272806Y161615D01*
X272806Y161582D01*
X272797Y161499D01*
X272797Y143301D01*
X272812Y143205D01*
X272822Y143108D01*
X272832Y143084D01*
X272836Y143058D01*
X272882Y142972D01*
X272922Y142883D01*
X272939Y142864D01*
X272952Y142841D01*
X273022Y142774D01*
X273088Y142702D01*
X273111Y142689D01*
X273130Y142671D01*
X273218Y142630D01*
X273304Y142583D01*
X273329Y142579D01*
X273353Y142568D01*
X273450Y142557D01*
X273546Y142540D01*
X273572Y142544D01*
X273597Y142541D01*
X273693Y142561D01*
X273789Y142576D01*
X273812Y142587D01*
X273838Y142593D01*
X273921Y142643D01*
X274008Y142687D01*
X274027Y142706D01*
X274049Y142719D01*
X274112Y142793D01*
X274180Y142863D01*
X274196Y142891D01*
X274209Y142906D01*
X274221Y142937D01*
X274261Y143010D01*
X275513Y146031D01*
X278657Y149175D01*
X282765Y150877D01*
X301435Y150877D01*
X305543Y149175D01*
X308687Y146031D01*
X310389Y141923D01*
X310389Y137477D01*
X308687Y133369D01*
X305543Y130225D01*
X301435Y128523D01*
X282765Y128523D01*
X278657Y130225D01*
X275513Y133369D01*
X274261Y136390D01*
X274210Y136473D01*
X274164Y136559D01*
X274146Y136577D01*
X274132Y136599D01*
X274056Y136662D01*
X273986Y136729D01*
X273962Y136740D01*
X273942Y136756D01*
X273851Y136791D01*
X273763Y136832D01*
X273737Y136835D01*
X273713Y136844D01*
X273615Y136849D01*
X273519Y136859D01*
X273493Y136854D01*
X273467Y136855D01*
X273373Y136828D01*
X273278Y136807D01*
X273256Y136794D01*
X273231Y136786D01*
X273151Y136731D01*
X273067Y136681D01*
X273050Y136661D01*
X273029Y136646D01*
X272970Y136568D01*
X272907Y136494D01*
X272897Y136470D01*
X272882Y136449D01*
X272852Y136356D01*
X272815Y136266D01*
X272812Y136233D01*
X272806Y136215D01*
X272806Y136182D01*
X272797Y136099D01*
X272797Y117901D01*
X272812Y117805D01*
X272822Y117708D01*
X272832Y117684D01*
X272836Y117658D01*
X272882Y117572D01*
X272922Y117483D01*
X272939Y117464D01*
X272952Y117441D01*
X273022Y117374D01*
X273088Y117302D01*
X273111Y117289D01*
X273130Y117271D01*
X273218Y117230D01*
X273304Y117183D01*
X273329Y117179D01*
X273353Y117168D01*
X273450Y117157D01*
X273546Y117140D01*
X273572Y117144D01*
X273597Y117141D01*
X273693Y117161D01*
X273789Y117176D01*
X273812Y117187D01*
X273838Y117193D01*
X273921Y117243D01*
X274008Y117287D01*
X274027Y117306D01*
X274049Y117319D01*
X274112Y117393D01*
X274180Y117463D01*
X274196Y117491D01*
X274209Y117506D01*
X274221Y117537D01*
X274261Y117610D01*
X275513Y120631D01*
X278657Y123775D01*
X282765Y125477D01*
X301435Y125477D01*
X305543Y123775D01*
X308687Y120631D01*
X309939Y117610D01*
X309990Y117527D01*
X310036Y117441D01*
X310054Y117423D01*
X310068Y117401D01*
X310144Y117338D01*
X310214Y117271D01*
X310238Y117260D01*
X310258Y117244D01*
X310349Y117209D01*
X310437Y117168D01*
X310463Y117165D01*
X310487Y117156D01*
X310585Y117151D01*
X310681Y117141D01*
X310707Y117146D01*
X310733Y117145D01*
X310827Y117172D01*
X310922Y117193D01*
X310944Y117206D01*
X310969Y117214D01*
X311049Y117269D01*
X311133Y117319D01*
X311150Y117339D01*
X311171Y117354D01*
X311230Y117432D01*
X311293Y117506D01*
X311303Y117530D01*
X311318Y117551D01*
X311348Y117644D01*
X311385Y117734D01*
X311388Y117767D01*
X311394Y117785D01*
X311394Y117818D01*
X311403Y117901D01*
X311403Y120966D01*
X311389Y121056D01*
X311381Y121147D01*
X311369Y121177D01*
X311364Y121209D01*
X311321Y121289D01*
X311285Y121373D01*
X311259Y121405D01*
X311248Y121426D01*
X311225Y121448D01*
X311180Y121504D01*
X310417Y122267D01*
X309145Y125338D01*
X309145Y128662D01*
X310417Y131733D01*
X312767Y134083D01*
X315838Y135355D01*
X319162Y135355D01*
X322233Y134083D01*
X324583Y131733D01*
X325855Y128662D01*
X325855Y125338D01*
X324583Y122267D01*
X323820Y121504D01*
X323767Y121430D01*
X323707Y121361D01*
X323695Y121331D01*
X323676Y121305D01*
X323649Y121218D01*
X323615Y121133D01*
X323611Y121092D01*
X323604Y121069D01*
X323605Y121037D01*
X323597Y120966D01*
X323597Y63801D01*
X323611Y63711D01*
X323619Y63620D01*
X323631Y63590D01*
X323636Y63558D01*
X323679Y63477D01*
X323715Y63393D01*
X323741Y63361D01*
X323752Y63341D01*
X323775Y63318D01*
X323820Y63262D01*
X353573Y33509D01*
X353668Y33441D01*
X353762Y33371D01*
X353768Y33369D01*
X353773Y33365D01*
X353884Y33331D01*
X353996Y33295D01*
X354002Y33295D01*
X354008Y33293D01*
X354125Y33296D01*
X354242Y33297D01*
X354249Y33299D01*
X354254Y33299D01*
X354271Y33306D01*
X354403Y33344D01*
X355462Y33783D01*
X360818Y33783D01*
X361151Y33645D01*
X361195Y33634D01*
X361237Y33615D01*
X361314Y33606D01*
X361390Y33589D01*
X361436Y33593D01*
X361481Y33588D01*
X361558Y33604D01*
X361635Y33612D01*
X361677Y33630D01*
X361722Y33640D01*
X361789Y33680D01*
X361860Y33712D01*
X361894Y33743D01*
X361933Y33766D01*
X361984Y33826D01*
X362041Y33878D01*
X362063Y33918D01*
X362093Y33953D01*
X362122Y34026D01*
X362159Y34094D01*
X362168Y34139D01*
X362185Y34181D01*
X362200Y34317D01*
X362203Y34336D01*
X362202Y34341D01*
X362203Y34348D01*
X362203Y107250D01*
X362192Y107321D01*
X362190Y107393D01*
X362172Y107441D01*
X362164Y107493D01*
X362130Y107556D01*
X362105Y107624D01*
X362073Y107664D01*
X362048Y107710D01*
X361997Y107760D01*
X361952Y107816D01*
X361908Y107844D01*
X361870Y107880D01*
X361805Y107910D01*
X361745Y107949D01*
X361694Y107961D01*
X361647Y107983D01*
X361576Y107991D01*
X361506Y108009D01*
X361454Y108005D01*
X361403Y108010D01*
X361332Y107995D01*
X361261Y107989D01*
X361213Y107969D01*
X361162Y107958D01*
X361101Y107921D01*
X361035Y107893D01*
X360979Y107848D01*
X360951Y107832D01*
X360936Y107814D01*
X360904Y107788D01*
X360333Y107217D01*
X357262Y105945D01*
X353938Y105945D01*
X350867Y107217D01*
X348517Y109567D01*
X347245Y112638D01*
X347245Y115962D01*
X348517Y119033D01*
X349280Y119796D01*
X349333Y119870D01*
X349393Y119939D01*
X349405Y119969D01*
X349424Y119995D01*
X349451Y120082D01*
X349485Y120167D01*
X349489Y120208D01*
X349496Y120231D01*
X349495Y120263D01*
X349503Y120334D01*
X349503Y209866D01*
X349489Y209956D01*
X349481Y210047D01*
X349469Y210077D01*
X349464Y210109D01*
X349421Y210189D01*
X349385Y210273D01*
X349359Y210305D01*
X349348Y210326D01*
X349325Y210348D01*
X349280Y210404D01*
X348517Y211167D01*
X347245Y214238D01*
X347245Y217562D01*
X348517Y220633D01*
X350867Y222983D01*
X353938Y224255D01*
X357262Y224255D01*
X360333Y222983D01*
X360904Y222412D01*
X360962Y222370D01*
X361014Y222320D01*
X361061Y222298D01*
X361103Y222268D01*
X361172Y222247D01*
X361237Y222217D01*
X361289Y222211D01*
X361339Y222196D01*
X361410Y222198D01*
X361481Y222190D01*
X361532Y222201D01*
X361584Y222202D01*
X361652Y222227D01*
X361722Y222242D01*
X361767Y222269D01*
X361815Y222287D01*
X361871Y222331D01*
X361933Y222368D01*
X361967Y222408D01*
X362007Y222440D01*
X362046Y222501D01*
X362093Y222555D01*
X362112Y222603D01*
X362140Y222647D01*
X362158Y222717D01*
X362185Y222783D01*
X362193Y222854D01*
X362201Y222886D01*
X362199Y222909D01*
X362203Y222950D01*
X362203Y246849D01*
X362189Y246939D01*
X362181Y247030D01*
X362169Y247060D01*
X362164Y247092D01*
X362121Y247172D01*
X362085Y247256D01*
X362059Y247288D01*
X362048Y247309D01*
X362025Y247331D01*
X361980Y247387D01*
X360547Y248820D01*
X359155Y252181D01*
X359155Y255819D01*
X360547Y259180D01*
X363120Y261753D01*
X366481Y263145D01*
X370119Y263145D01*
X373480Y261753D01*
X376053Y259180D01*
X377445Y255819D01*
X377445Y252181D01*
X376053Y248820D01*
X374620Y247387D01*
X374567Y247313D01*
X374507Y247244D01*
X374495Y247214D01*
X374476Y247187D01*
X374449Y247100D01*
X374415Y247016D01*
X374411Y246975D01*
X374404Y246952D01*
X374405Y246920D01*
X374397Y246849D01*
X374397Y197550D01*
X374408Y197479D01*
X374410Y197407D01*
X374428Y197359D01*
X374436Y197307D01*
X374470Y197244D01*
X374495Y197176D01*
X374527Y197136D01*
X374552Y197090D01*
X374603Y197040D01*
X374648Y196984D01*
X374692Y196956D01*
X374730Y196920D01*
X374795Y196890D01*
X374855Y196851D01*
X374906Y196839D01*
X374953Y196817D01*
X375024Y196809D01*
X375094Y196791D01*
X375146Y196795D01*
X375197Y196790D01*
X375268Y196805D01*
X375339Y196811D01*
X375387Y196831D01*
X375438Y196842D01*
X375499Y196879D01*
X375565Y196907D01*
X375621Y196952D01*
X375649Y196968D01*
X375664Y196986D01*
X375696Y197012D01*
X376267Y197583D01*
X379338Y198855D01*
X382662Y198855D01*
X385733Y197583D01*
X388083Y195233D01*
X389355Y192162D01*
X389355Y188838D01*
X388083Y185767D01*
X387320Y185004D01*
X387276Y184943D01*
X387243Y184909D01*
X387238Y184897D01*
X387207Y184861D01*
X387195Y184831D01*
X387176Y184805D01*
X387149Y184718D01*
X387115Y184633D01*
X387111Y184592D01*
X387104Y184569D01*
X387105Y184537D01*
X387097Y184466D01*
X387097Y77154D01*
X387111Y77064D01*
X387119Y76973D01*
X387131Y76943D01*
X387136Y76911D01*
X387158Y76870D01*
X387159Y76865D01*
X387174Y76840D01*
X387179Y76831D01*
X387215Y76747D01*
X387241Y76715D01*
X387252Y76694D01*
X387275Y76672D01*
X387285Y76654D01*
X387297Y76644D01*
X387320Y76616D01*
X388083Y75853D01*
X389355Y72782D01*
X389355Y69458D01*
X388083Y66387D01*
X385733Y64037D01*
X382662Y62765D01*
X379338Y62765D01*
X376267Y64037D01*
X375696Y64608D01*
X375638Y64650D01*
X375586Y64700D01*
X375539Y64722D01*
X375497Y64752D01*
X375428Y64773D01*
X375363Y64803D01*
X375311Y64809D01*
X375261Y64824D01*
X375190Y64822D01*
X375119Y64830D01*
X375068Y64819D01*
X375016Y64818D01*
X374948Y64793D01*
X374878Y64778D01*
X374833Y64751D01*
X374785Y64733D01*
X374729Y64689D01*
X374667Y64652D01*
X374633Y64612D01*
X374593Y64580D01*
X374554Y64519D01*
X374507Y64465D01*
X374488Y64417D01*
X374460Y64373D01*
X374442Y64303D01*
X374415Y64237D01*
X374407Y64166D01*
X374399Y64134D01*
X374401Y64111D01*
X374397Y64070D01*
X374397Y38401D01*
X374411Y38311D01*
X374419Y38220D01*
X374431Y38190D01*
X374436Y38158D01*
X374479Y38077D01*
X374515Y37993D01*
X374541Y37961D01*
X374552Y37941D01*
X374575Y37918D01*
X374620Y37862D01*
X378973Y33509D01*
X379068Y33440D01*
X379162Y33371D01*
X379168Y33369D01*
X379173Y33365D01*
X379285Y33331D01*
X379396Y33295D01*
X379402Y33295D01*
X379408Y33293D01*
X379525Y33296D01*
X379642Y33297D01*
X379649Y33299D01*
X379654Y33299D01*
X379671Y33306D01*
X379803Y33344D01*
X380862Y33783D01*
X386218Y33783D01*
X391166Y31733D01*
X394953Y27946D01*
X395537Y26537D01*
X395575Y26476D01*
X395604Y26411D01*
X395639Y26372D01*
X395666Y26328D01*
X395722Y26282D01*
X395770Y26230D01*
X395816Y26205D01*
X395856Y26171D01*
X395923Y26146D01*
X395986Y26111D01*
X396037Y26102D01*
X396085Y26083D01*
X396157Y26080D01*
X396228Y26067D01*
X396279Y26075D01*
X396331Y26073D01*
X396400Y26093D01*
X396471Y26103D01*
X396517Y26127D01*
X396567Y26141D01*
X396626Y26182D01*
X396690Y26215D01*
X396727Y26252D01*
X396769Y26282D01*
X396812Y26339D01*
X396862Y26390D01*
X396897Y26453D01*
X396916Y26479D01*
X396923Y26501D01*
X396943Y26537D01*
X397527Y27946D01*
X401314Y31733D01*
X406262Y33783D01*
X411618Y33783D01*
X416566Y31733D01*
X420353Y27946D01*
X422403Y22998D01*
X422403Y17642D01*
X420353Y12694D01*
X416566Y8907D01*
X411618Y6857D01*
X406262Y6857D01*
X401314Y8907D01*
X397527Y12694D01*
X396943Y14103D01*
X396906Y14164D01*
X396876Y14229D01*
X396841Y14268D01*
X396814Y14312D01*
X396758Y14358D01*
X396710Y14410D01*
X396664Y14435D01*
X396624Y14469D01*
X396557Y14494D01*
X396494Y14529D01*
X396443Y14538D01*
X396395Y14557D01*
X396323Y14560D01*
X396252Y14573D01*
X396201Y14565D01*
X396149Y14567D01*
X396080Y14547D01*
X396009Y14537D01*
X395963Y14513D01*
X395913Y14499D01*
X395854Y14458D01*
X395790Y14425D01*
X395753Y14388D01*
X395711Y14358D01*
X395668Y14301D01*
X395618Y14250D01*
X395583Y14187D01*
X395564Y14161D01*
X395557Y14139D01*
X395537Y14103D01*
X394953Y12694D01*
X391166Y8907D01*
X386218Y6857D01*
X380862Y6857D01*
X375914Y8907D01*
X372127Y12694D01*
X371543Y14103D01*
X371506Y14164D01*
X371476Y14229D01*
X371441Y14268D01*
X371414Y14312D01*
X371358Y14358D01*
X371310Y14410D01*
X371264Y14435D01*
X371224Y14469D01*
X371157Y14494D01*
X371094Y14529D01*
X371043Y14538D01*
X370995Y14557D01*
X370923Y14560D01*
X370852Y14573D01*
X370801Y14565D01*
X370749Y14567D01*
X370680Y14547D01*
X370609Y14537D01*
X370563Y14513D01*
X370513Y14499D01*
X370454Y14458D01*
X370390Y14425D01*
X370353Y14388D01*
X370311Y14358D01*
X370268Y14301D01*
X370218Y14250D01*
X370183Y14187D01*
X370164Y14161D01*
X370157Y14139D01*
X370137Y14103D01*
X369553Y12694D01*
X365766Y8907D01*
X360818Y6857D01*
X355462Y6857D01*
X350514Y8907D01*
X346727Y12694D01*
X346143Y14103D01*
X346106Y14164D01*
X346076Y14229D01*
X346041Y14268D01*
X346014Y14312D01*
X345958Y14358D01*
X345910Y14410D01*
X345864Y14435D01*
X345824Y14469D01*
X345757Y14494D01*
X345694Y14529D01*
X345643Y14538D01*
X345595Y14557D01*
X345523Y14560D01*
X345452Y14573D01*
X345401Y14565D01*
X345349Y14567D01*
X345280Y14547D01*
X345209Y14537D01*
X345163Y14513D01*
X345113Y14499D01*
X345054Y14458D01*
X344990Y14425D01*
X344953Y14388D01*
X344911Y14358D01*
X344868Y14301D01*
X344818Y14250D01*
X344783Y14187D01*
X344764Y14161D01*
X344757Y14139D01*
X344737Y14103D01*
X344153Y12694D01*
X340366Y8907D01*
X335418Y6857D01*
X330062Y6857D01*
X325114Y8907D01*
X321327Y12694D01*
X320743Y14103D01*
X320706Y14164D01*
X320676Y14229D01*
X320641Y14268D01*
X320614Y14312D01*
X320558Y14358D01*
X320510Y14410D01*
X320464Y14435D01*
X320424Y14469D01*
X320357Y14494D01*
X320294Y14529D01*
X320243Y14538D01*
X320195Y14557D01*
X320123Y14560D01*
X320052Y14573D01*
X320001Y14565D01*
X319949Y14567D01*
X319880Y14547D01*
X319809Y14537D01*
X319763Y14513D01*
X319713Y14499D01*
X319654Y14458D01*
X319590Y14425D01*
X319553Y14388D01*
X319511Y14358D01*
X319468Y14301D01*
X319418Y14250D01*
X319383Y14187D01*
X319364Y14161D01*
X319357Y14139D01*
X319337Y14103D01*
X318753Y12694D01*
X314966Y8907D01*
X310018Y6857D01*
X304662Y6857D01*
G37*
%LPD*%
%LPC*%
G36*
X87238Y11965D02*
X87238Y11965D01*
X84167Y13237D01*
X81817Y15587D01*
X80545Y18658D01*
X80545Y21982D01*
X81475Y24227D01*
X81490Y24291D01*
X81515Y24352D01*
X81524Y24435D01*
X81531Y24467D01*
X81530Y24486D01*
X81533Y24519D01*
X81533Y135501D01*
X81523Y135566D01*
X81522Y135632D01*
X81499Y135712D01*
X81494Y135744D01*
X81484Y135761D01*
X81475Y135793D01*
X80545Y138038D01*
X80545Y141362D01*
X81817Y144433D01*
X82580Y145196D01*
X82633Y145270D01*
X82693Y145339D01*
X82705Y145369D01*
X82724Y145395D01*
X82751Y145482D01*
X82785Y145567D01*
X82789Y145608D01*
X82796Y145631D01*
X82795Y145663D01*
X82803Y145734D01*
X82803Y184466D01*
X82789Y184556D01*
X82781Y184647D01*
X82769Y184677D01*
X82764Y184709D01*
X82721Y184789D01*
X82685Y184873D01*
X82659Y184905D01*
X82648Y184926D01*
X82625Y184948D01*
X82617Y184959D01*
X82609Y184972D01*
X82601Y184979D01*
X82580Y185004D01*
X81817Y185767D01*
X80545Y188838D01*
X80545Y192162D01*
X81817Y195233D01*
X82580Y195996D01*
X82633Y196070D01*
X82693Y196139D01*
X82705Y196169D01*
X82724Y196195D01*
X82751Y196282D01*
X82785Y196367D01*
X82789Y196408D01*
X82796Y196431D01*
X82795Y196463D01*
X82803Y196534D01*
X82803Y360815D01*
X82789Y360905D01*
X82781Y360996D01*
X82769Y361026D01*
X82764Y361058D01*
X82721Y361139D01*
X82685Y361222D01*
X82659Y361255D01*
X82648Y361275D01*
X82625Y361297D01*
X82580Y361353D01*
X77723Y366210D01*
X77723Y375470D01*
X82580Y380327D01*
X82633Y380401D01*
X82693Y380470D01*
X82705Y380500D01*
X82724Y380526D01*
X82751Y380613D01*
X82785Y380698D01*
X82789Y380739D01*
X82796Y380761D01*
X82795Y380794D01*
X82803Y380865D01*
X82803Y413066D01*
X82789Y413156D01*
X82781Y413247D01*
X82769Y413277D01*
X82764Y413309D01*
X82721Y413389D01*
X82685Y413473D01*
X82659Y413505D01*
X82648Y413526D01*
X82625Y413548D01*
X82580Y413604D01*
X81817Y414367D01*
X80545Y417438D01*
X80545Y420762D01*
X81817Y423833D01*
X84167Y426183D01*
X87238Y427455D01*
X90562Y427455D01*
X93633Y426183D01*
X95983Y423833D01*
X97255Y420762D01*
X97255Y417438D01*
X95983Y414367D01*
X95220Y413604D01*
X95167Y413530D01*
X95107Y413461D01*
X95095Y413431D01*
X95076Y413405D01*
X95049Y413318D01*
X95015Y413233D01*
X95011Y413192D01*
X95004Y413169D01*
X95005Y413137D01*
X94997Y413066D01*
X94997Y380865D01*
X94999Y380853D01*
X94998Y380844D01*
X95007Y380800D01*
X95011Y380775D01*
X95019Y380684D01*
X95031Y380654D01*
X95036Y380622D01*
X95079Y380541D01*
X95115Y380458D01*
X95141Y380425D01*
X95152Y380405D01*
X95175Y380383D01*
X95220Y380327D01*
X100077Y375470D01*
X100077Y366210D01*
X95220Y361353D01*
X95167Y361279D01*
X95107Y361210D01*
X95095Y361180D01*
X95076Y361154D01*
X95049Y361067D01*
X95015Y360982D01*
X95011Y360941D01*
X95004Y360919D01*
X95005Y360886D01*
X94997Y360815D01*
X94997Y196534D01*
X95011Y196444D01*
X95019Y196353D01*
X95031Y196323D01*
X95036Y196291D01*
X95079Y196211D01*
X95115Y196127D01*
X95141Y196095D01*
X95152Y196074D01*
X95175Y196052D01*
X95220Y195996D01*
X95983Y195233D01*
X97255Y192162D01*
X97255Y188838D01*
X95983Y185767D01*
X95220Y185004D01*
X95176Y184943D01*
X95143Y184909D01*
X95138Y184897D01*
X95107Y184861D01*
X95095Y184831D01*
X95076Y184805D01*
X95049Y184718D01*
X95015Y184633D01*
X95011Y184592D01*
X95004Y184569D01*
X95005Y184537D01*
X94997Y184466D01*
X94997Y145734D01*
X95011Y145644D01*
X95019Y145553D01*
X95031Y145523D01*
X95036Y145491D01*
X95079Y145411D01*
X95115Y145327D01*
X95141Y145295D01*
X95152Y145274D01*
X95175Y145252D01*
X95220Y145196D01*
X95983Y144433D01*
X97255Y141362D01*
X97255Y138038D01*
X95983Y134967D01*
X93950Y132934D01*
X93897Y132860D01*
X93837Y132791D01*
X93825Y132761D01*
X93806Y132735D01*
X93779Y132648D01*
X93745Y132563D01*
X93741Y132522D01*
X93734Y132499D01*
X93735Y132467D01*
X93727Y132396D01*
X93727Y27624D01*
X93741Y27534D01*
X93749Y27443D01*
X93761Y27413D01*
X93766Y27381D01*
X93809Y27301D01*
X93845Y27217D01*
X93871Y27185D01*
X93882Y27164D01*
X93905Y27142D01*
X93950Y27086D01*
X95983Y25053D01*
X97255Y21982D01*
X97255Y18658D01*
X95983Y15587D01*
X93633Y13237D01*
X90562Y11965D01*
X87238Y11965D01*
G37*
%LPD*%
%LPC*%
G36*
X469899Y139699D02*
X469899Y139699D01*
X469899Y140462D01*
X469896Y140482D01*
X469898Y140501D01*
X469876Y140603D01*
X469859Y140705D01*
X469850Y140722D01*
X469846Y140742D01*
X469793Y140831D01*
X469744Y140922D01*
X469730Y140936D01*
X469720Y140953D01*
X469641Y141020D01*
X469566Y141091D01*
X469548Y141100D01*
X469533Y141113D01*
X469437Y141152D01*
X469343Y141195D01*
X469323Y141197D01*
X469305Y141205D01*
X469138Y141223D01*
X458054Y141223D01*
X458255Y142496D01*
X458836Y144283D01*
X459689Y145957D01*
X460794Y147478D01*
X462122Y148806D01*
X463643Y149911D01*
X465317Y150764D01*
X465604Y150857D01*
X465694Y150904D01*
X465786Y150945D01*
X465802Y150960D01*
X465822Y150970D01*
X465893Y151043D01*
X465967Y151111D01*
X465978Y151131D01*
X465993Y151147D01*
X466037Y151238D01*
X466086Y151327D01*
X466090Y151349D01*
X466099Y151369D01*
X466112Y151469D01*
X466130Y151569D01*
X466126Y151591D01*
X466129Y151613D01*
X466109Y151712D01*
X466094Y151812D01*
X466084Y151832D01*
X466079Y151854D01*
X466028Y151941D01*
X465982Y152031D01*
X465966Y152047D01*
X465955Y152066D01*
X465879Y152133D01*
X465807Y152204D01*
X465783Y152217D01*
X465770Y152228D01*
X465740Y152240D01*
X465660Y152284D01*
X462274Y153687D01*
X458487Y157474D01*
X456437Y162422D01*
X456437Y167778D01*
X458487Y172726D01*
X462274Y176513D01*
X463683Y177097D01*
X463744Y177134D01*
X463809Y177164D01*
X463848Y177199D01*
X463892Y177226D01*
X463938Y177282D01*
X463990Y177330D01*
X464015Y177376D01*
X464049Y177416D01*
X464074Y177483D01*
X464109Y177546D01*
X464118Y177597D01*
X464137Y177645D01*
X464140Y177717D01*
X464153Y177788D01*
X464145Y177839D01*
X464147Y177891D01*
X464127Y177960D01*
X464117Y178031D01*
X464093Y178077D01*
X464079Y178127D01*
X464038Y178186D01*
X464005Y178250D01*
X463968Y178287D01*
X463938Y178329D01*
X463881Y178372D01*
X463830Y178422D01*
X463767Y178457D01*
X463741Y178476D01*
X463719Y178483D01*
X463683Y178503D01*
X462274Y179087D01*
X458487Y182874D01*
X456437Y187822D01*
X456437Y193178D01*
X458487Y198126D01*
X462274Y201913D01*
X463683Y202497D01*
X463744Y202534D01*
X463809Y202564D01*
X463848Y202599D01*
X463892Y202626D01*
X463938Y202682D01*
X463990Y202730D01*
X464015Y202776D01*
X464049Y202816D01*
X464074Y202883D01*
X464109Y202946D01*
X464118Y202997D01*
X464137Y203045D01*
X464140Y203117D01*
X464153Y203188D01*
X464145Y203239D01*
X464147Y203291D01*
X464127Y203360D01*
X464117Y203431D01*
X464093Y203477D01*
X464079Y203527D01*
X464038Y203586D01*
X464005Y203650D01*
X463968Y203687D01*
X463938Y203729D01*
X463881Y203772D01*
X463830Y203822D01*
X463767Y203857D01*
X463741Y203876D01*
X463719Y203883D01*
X463683Y203903D01*
X462274Y204487D01*
X458487Y208274D01*
X456437Y213222D01*
X456437Y218578D01*
X458487Y223526D01*
X462274Y227313D01*
X463683Y227897D01*
X463744Y227934D01*
X463809Y227964D01*
X463848Y227999D01*
X463892Y228026D01*
X463938Y228082D01*
X463990Y228130D01*
X464015Y228176D01*
X464049Y228216D01*
X464074Y228283D01*
X464109Y228346D01*
X464118Y228397D01*
X464137Y228445D01*
X464140Y228517D01*
X464153Y228588D01*
X464145Y228639D01*
X464147Y228691D01*
X464127Y228760D01*
X464117Y228831D01*
X464093Y228877D01*
X464079Y228927D01*
X464038Y228986D01*
X464005Y229050D01*
X463968Y229087D01*
X463938Y229129D01*
X463881Y229172D01*
X463830Y229222D01*
X463767Y229257D01*
X463741Y229276D01*
X463719Y229283D01*
X463683Y229303D01*
X462274Y229887D01*
X458487Y233674D01*
X456437Y238622D01*
X456437Y243978D01*
X458487Y248926D01*
X462274Y252713D01*
X463683Y253297D01*
X463744Y253334D01*
X463809Y253364D01*
X463848Y253399D01*
X463892Y253426D01*
X463938Y253482D01*
X463990Y253530D01*
X464015Y253576D01*
X464049Y253616D01*
X464074Y253683D01*
X464109Y253746D01*
X464118Y253797D01*
X464137Y253845D01*
X464140Y253917D01*
X464153Y253988D01*
X464145Y254039D01*
X464147Y254091D01*
X464127Y254160D01*
X464117Y254231D01*
X464093Y254277D01*
X464079Y254327D01*
X464038Y254386D01*
X464005Y254450D01*
X463968Y254487D01*
X463938Y254529D01*
X463881Y254572D01*
X463830Y254622D01*
X463767Y254657D01*
X463741Y254676D01*
X463719Y254683D01*
X463683Y254703D01*
X462274Y255287D01*
X458487Y259074D01*
X456437Y264022D01*
X456437Y269378D01*
X458487Y274326D01*
X462274Y278113D01*
X463683Y278697D01*
X463744Y278734D01*
X463809Y278764D01*
X463848Y278799D01*
X463892Y278826D01*
X463938Y278882D01*
X463990Y278930D01*
X464015Y278976D01*
X464049Y279016D01*
X464074Y279083D01*
X464109Y279146D01*
X464118Y279197D01*
X464137Y279245D01*
X464140Y279317D01*
X464153Y279388D01*
X464145Y279439D01*
X464147Y279491D01*
X464127Y279560D01*
X464117Y279631D01*
X464093Y279677D01*
X464079Y279727D01*
X464038Y279786D01*
X464005Y279850D01*
X463968Y279887D01*
X463938Y279929D01*
X463881Y279972D01*
X463830Y280022D01*
X463767Y280057D01*
X463741Y280076D01*
X463719Y280083D01*
X463683Y280103D01*
X462274Y280687D01*
X458487Y284474D01*
X456437Y289422D01*
X456437Y294778D01*
X458487Y299726D01*
X462274Y303513D01*
X463683Y304097D01*
X463744Y304134D01*
X463809Y304164D01*
X463848Y304199D01*
X463892Y304226D01*
X463938Y304282D01*
X463990Y304330D01*
X464015Y304376D01*
X464049Y304416D01*
X464074Y304483D01*
X464109Y304546D01*
X464118Y304597D01*
X464137Y304645D01*
X464140Y304717D01*
X464153Y304788D01*
X464145Y304839D01*
X464147Y304891D01*
X464127Y304960D01*
X464117Y305031D01*
X464093Y305077D01*
X464079Y305127D01*
X464038Y305186D01*
X464005Y305250D01*
X463968Y305287D01*
X463938Y305329D01*
X463881Y305372D01*
X463830Y305422D01*
X463767Y305457D01*
X463741Y305476D01*
X463719Y305483D01*
X463683Y305503D01*
X462274Y306087D01*
X458487Y309874D01*
X456437Y314822D01*
X456437Y320178D01*
X458487Y325126D01*
X462274Y328913D01*
X463683Y329497D01*
X463744Y329534D01*
X463809Y329564D01*
X463848Y329599D01*
X463892Y329626D01*
X463938Y329682D01*
X463990Y329730D01*
X464015Y329776D01*
X464049Y329816D01*
X464074Y329883D01*
X464109Y329946D01*
X464118Y329997D01*
X464137Y330045D01*
X464140Y330117D01*
X464153Y330188D01*
X464145Y330239D01*
X464147Y330291D01*
X464127Y330360D01*
X464117Y330431D01*
X464093Y330477D01*
X464079Y330527D01*
X464038Y330586D01*
X464005Y330650D01*
X463968Y330687D01*
X463938Y330729D01*
X463881Y330772D01*
X463830Y330822D01*
X463767Y330857D01*
X463741Y330876D01*
X463719Y330883D01*
X463683Y330903D01*
X462274Y331487D01*
X458487Y335274D01*
X456437Y340222D01*
X456437Y345578D01*
X458487Y350526D01*
X462274Y354313D01*
X463683Y354897D01*
X463744Y354934D01*
X463809Y354964D01*
X463848Y354999D01*
X463892Y355026D01*
X463938Y355082D01*
X463990Y355130D01*
X464015Y355176D01*
X464049Y355216D01*
X464074Y355283D01*
X464109Y355346D01*
X464118Y355397D01*
X464137Y355445D01*
X464140Y355517D01*
X464153Y355588D01*
X464145Y355639D01*
X464147Y355691D01*
X464127Y355760D01*
X464117Y355831D01*
X464093Y355877D01*
X464079Y355927D01*
X464038Y355986D01*
X464005Y356050D01*
X463968Y356087D01*
X463938Y356129D01*
X463881Y356172D01*
X463830Y356222D01*
X463767Y356257D01*
X463741Y356276D01*
X463719Y356283D01*
X463683Y356303D01*
X462274Y356887D01*
X458487Y360674D01*
X456437Y365622D01*
X456437Y370978D01*
X458487Y375926D01*
X462274Y379713D01*
X467222Y381763D01*
X472578Y381763D01*
X477526Y379713D01*
X481313Y375926D01*
X483363Y370978D01*
X483363Y365622D01*
X481313Y360674D01*
X477526Y356887D01*
X476117Y356303D01*
X476056Y356265D01*
X475991Y356236D01*
X475952Y356201D01*
X475908Y356174D01*
X475862Y356118D01*
X475810Y356070D01*
X475785Y356024D01*
X475751Y355984D01*
X475726Y355917D01*
X475691Y355854D01*
X475682Y355803D01*
X475663Y355755D01*
X475660Y355683D01*
X475647Y355612D01*
X475655Y355561D01*
X475653Y355509D01*
X475673Y355440D01*
X475683Y355369D01*
X475707Y355323D01*
X475721Y355273D01*
X475762Y355214D01*
X475795Y355150D01*
X475832Y355113D01*
X475862Y355071D01*
X475919Y355028D01*
X475970Y354978D01*
X476033Y354943D01*
X476059Y354924D01*
X476081Y354917D01*
X476117Y354897D01*
X477526Y354313D01*
X481313Y350526D01*
X483363Y345578D01*
X483363Y340222D01*
X481313Y335274D01*
X477526Y331487D01*
X476117Y330903D01*
X476056Y330865D01*
X475991Y330836D01*
X475952Y330801D01*
X475908Y330774D01*
X475862Y330718D01*
X475810Y330670D01*
X475785Y330624D01*
X475751Y330584D01*
X475726Y330517D01*
X475691Y330454D01*
X475682Y330403D01*
X475663Y330355D01*
X475660Y330283D01*
X475647Y330212D01*
X475655Y330161D01*
X475653Y330109D01*
X475673Y330040D01*
X475683Y329969D01*
X475707Y329923D01*
X475721Y329873D01*
X475762Y329814D01*
X475795Y329750D01*
X475832Y329713D01*
X475862Y329671D01*
X475919Y329628D01*
X475970Y329578D01*
X476033Y329543D01*
X476059Y329524D01*
X476081Y329517D01*
X476117Y329497D01*
X477526Y328913D01*
X481313Y325126D01*
X483363Y320178D01*
X483363Y314822D01*
X481313Y309874D01*
X477526Y306087D01*
X476117Y305503D01*
X476056Y305465D01*
X475991Y305436D01*
X475952Y305401D01*
X475908Y305374D01*
X475862Y305318D01*
X475810Y305270D01*
X475785Y305224D01*
X475751Y305184D01*
X475726Y305117D01*
X475691Y305054D01*
X475682Y305003D01*
X475663Y304955D01*
X475660Y304883D01*
X475647Y304812D01*
X475655Y304761D01*
X475653Y304709D01*
X475673Y304640D01*
X475683Y304569D01*
X475707Y304523D01*
X475721Y304473D01*
X475762Y304414D01*
X475795Y304350D01*
X475832Y304313D01*
X475862Y304271D01*
X475919Y304228D01*
X475970Y304178D01*
X476033Y304143D01*
X476059Y304124D01*
X476081Y304117D01*
X476117Y304097D01*
X477526Y303513D01*
X481313Y299726D01*
X483363Y294778D01*
X483363Y289422D01*
X481313Y284474D01*
X477526Y280687D01*
X476117Y280103D01*
X476056Y280065D01*
X475991Y280036D01*
X475952Y280001D01*
X475908Y279974D01*
X475862Y279918D01*
X475810Y279870D01*
X475785Y279824D01*
X475751Y279784D01*
X475726Y279717D01*
X475691Y279654D01*
X475682Y279603D01*
X475663Y279555D01*
X475660Y279483D01*
X475647Y279412D01*
X475655Y279361D01*
X475653Y279309D01*
X475673Y279240D01*
X475683Y279169D01*
X475707Y279123D01*
X475721Y279073D01*
X475762Y279014D01*
X475795Y278950D01*
X475832Y278913D01*
X475862Y278871D01*
X475919Y278828D01*
X475970Y278778D01*
X476033Y278743D01*
X476059Y278724D01*
X476081Y278717D01*
X476117Y278697D01*
X477526Y278113D01*
X481313Y274326D01*
X483363Y269378D01*
X483363Y264022D01*
X481313Y259074D01*
X477526Y255287D01*
X476117Y254703D01*
X476056Y254665D01*
X475991Y254636D01*
X475952Y254601D01*
X475908Y254574D01*
X475862Y254518D01*
X475810Y254470D01*
X475785Y254424D01*
X475751Y254384D01*
X475726Y254317D01*
X475691Y254254D01*
X475682Y254203D01*
X475663Y254155D01*
X475660Y254083D01*
X475647Y254012D01*
X475655Y253961D01*
X475653Y253909D01*
X475673Y253840D01*
X475683Y253769D01*
X475707Y253723D01*
X475721Y253673D01*
X475762Y253614D01*
X475795Y253550D01*
X475832Y253513D01*
X475862Y253471D01*
X475919Y253428D01*
X475970Y253378D01*
X476033Y253343D01*
X476059Y253324D01*
X476081Y253317D01*
X476117Y253297D01*
X477526Y252713D01*
X481313Y248926D01*
X483363Y243978D01*
X483363Y238622D01*
X481313Y233674D01*
X477526Y229887D01*
X476117Y229303D01*
X476056Y229265D01*
X475991Y229236D01*
X475952Y229201D01*
X475908Y229174D01*
X475862Y229118D01*
X475810Y229070D01*
X475785Y229024D01*
X475751Y228984D01*
X475726Y228917D01*
X475691Y228854D01*
X475682Y228803D01*
X475663Y228755D01*
X475660Y228683D01*
X475647Y228612D01*
X475655Y228561D01*
X475653Y228509D01*
X475673Y228440D01*
X475683Y228369D01*
X475707Y228323D01*
X475721Y228273D01*
X475762Y228214D01*
X475795Y228150D01*
X475832Y228113D01*
X475862Y228071D01*
X475919Y228028D01*
X475970Y227978D01*
X476033Y227943D01*
X476059Y227924D01*
X476081Y227917D01*
X476117Y227897D01*
X477526Y227313D01*
X481313Y223526D01*
X483363Y218578D01*
X483363Y213222D01*
X481313Y208274D01*
X477526Y204487D01*
X476117Y203903D01*
X476056Y203865D01*
X475991Y203836D01*
X475952Y203801D01*
X475908Y203774D01*
X475862Y203718D01*
X475810Y203670D01*
X475785Y203624D01*
X475751Y203584D01*
X475726Y203517D01*
X475691Y203454D01*
X475682Y203403D01*
X475663Y203355D01*
X475660Y203283D01*
X475647Y203212D01*
X475655Y203161D01*
X475653Y203109D01*
X475673Y203040D01*
X475683Y202969D01*
X475707Y202923D01*
X475721Y202873D01*
X475762Y202814D01*
X475795Y202750D01*
X475832Y202713D01*
X475862Y202671D01*
X475919Y202628D01*
X475970Y202578D01*
X476033Y202543D01*
X476059Y202524D01*
X476081Y202517D01*
X476117Y202497D01*
X477526Y201913D01*
X481313Y198126D01*
X483363Y193178D01*
X483363Y187822D01*
X481313Y182874D01*
X477526Y179087D01*
X476117Y178503D01*
X476056Y178465D01*
X475991Y178436D01*
X475952Y178401D01*
X475908Y178374D01*
X475862Y178318D01*
X475810Y178270D01*
X475785Y178224D01*
X475751Y178184D01*
X475726Y178117D01*
X475691Y178054D01*
X475682Y178003D01*
X475663Y177955D01*
X475660Y177883D01*
X475647Y177812D01*
X475655Y177761D01*
X475653Y177709D01*
X475673Y177640D01*
X475683Y177569D01*
X475707Y177523D01*
X475721Y177473D01*
X475762Y177414D01*
X475795Y177350D01*
X475832Y177313D01*
X475862Y177271D01*
X475919Y177228D01*
X475970Y177178D01*
X476033Y177143D01*
X476059Y177124D01*
X476081Y177117D01*
X476117Y177097D01*
X477526Y176513D01*
X481313Y172726D01*
X483363Y167778D01*
X483363Y162422D01*
X481313Y157474D01*
X477526Y153687D01*
X474140Y152284D01*
X474054Y152231D01*
X473965Y152183D01*
X473950Y152166D01*
X473931Y152155D01*
X473867Y152077D01*
X473798Y152003D01*
X473789Y151982D01*
X473774Y151965D01*
X473738Y151871D01*
X473696Y151778D01*
X473694Y151756D01*
X473686Y151736D01*
X473682Y151635D01*
X473672Y151534D01*
X473677Y151512D01*
X473676Y151490D01*
X473704Y151393D01*
X473727Y151294D01*
X473738Y151275D01*
X473744Y151254D01*
X473802Y151171D01*
X473855Y151084D01*
X473872Y151070D01*
X473885Y151052D01*
X473966Y150991D01*
X474044Y150926D01*
X474068Y150915D01*
X474082Y150905D01*
X474113Y150895D01*
X474196Y150857D01*
X474483Y150764D01*
X476157Y149911D01*
X477678Y148806D01*
X479006Y147478D01*
X480111Y145957D01*
X480964Y144283D01*
X481545Y142496D01*
X481746Y141223D01*
X470662Y141223D01*
X470642Y141220D01*
X470623Y141222D01*
X470521Y141200D01*
X470419Y141183D01*
X470402Y141174D01*
X470382Y141170D01*
X470293Y141117D01*
X470202Y141068D01*
X470188Y141054D01*
X470171Y141044D01*
X470104Y140965D01*
X470033Y140890D01*
X470024Y140872D01*
X470011Y140857D01*
X469973Y140761D01*
X469929Y140667D01*
X469927Y140647D01*
X469919Y140629D01*
X469901Y140462D01*
X469901Y139699D01*
X469899Y139699D01*
G37*
%LPD*%
%LPC*%
G36*
X115178Y158015D02*
X115178Y158015D01*
X112107Y159287D01*
X109757Y161637D01*
X108485Y164708D01*
X108485Y168032D01*
X109757Y171103D01*
X110520Y171866D01*
X110573Y171940D01*
X110633Y172009D01*
X110645Y172039D01*
X110664Y172065D01*
X110691Y172152D01*
X110725Y172237D01*
X110729Y172278D01*
X110736Y172301D01*
X110735Y172333D01*
X110743Y172404D01*
X110743Y416259D01*
X110729Y416349D01*
X110721Y416440D01*
X110709Y416470D01*
X110704Y416502D01*
X110661Y416583D01*
X110625Y416667D01*
X110599Y416699D01*
X110588Y416719D01*
X110565Y416742D01*
X110520Y416798D01*
X91678Y435640D01*
X91604Y435693D01*
X91534Y435753D01*
X91504Y435765D01*
X91478Y435784D01*
X91391Y435811D01*
X91306Y435845D01*
X91265Y435849D01*
X91243Y435856D01*
X91211Y435855D01*
X91139Y435863D01*
X84270Y435863D01*
X77723Y442410D01*
X77723Y451670D01*
X79323Y453269D01*
X79334Y453285D01*
X79350Y453297D01*
X79406Y453385D01*
X79466Y453469D01*
X79472Y453488D01*
X79483Y453504D01*
X79508Y453605D01*
X79538Y453704D01*
X79538Y453724D01*
X79543Y453743D01*
X79535Y453846D01*
X79532Y453949D01*
X79525Y453968D01*
X79524Y453988D01*
X79483Y454083D01*
X79448Y454181D01*
X79435Y454196D01*
X79427Y454214D01*
X79323Y454345D01*
X75687Y457981D01*
X75592Y458049D01*
X75498Y458119D01*
X75492Y458121D01*
X75487Y458125D01*
X75376Y458159D01*
X75264Y458195D01*
X75258Y458195D01*
X75252Y458197D01*
X75135Y458194D01*
X75018Y458193D01*
X75011Y458191D01*
X75006Y458191D01*
X74989Y458184D01*
X74857Y458146D01*
X73798Y457707D01*
X68442Y457707D01*
X63494Y459757D01*
X59707Y463544D01*
X57657Y468492D01*
X57657Y473848D01*
X59707Y478796D01*
X63494Y482583D01*
X68442Y484633D01*
X73798Y484633D01*
X78746Y482583D01*
X82533Y478796D01*
X84583Y473848D01*
X84583Y468492D01*
X84144Y467433D01*
X84117Y467319D01*
X84089Y467206D01*
X84089Y467199D01*
X84088Y467193D01*
X84099Y467077D01*
X84108Y466960D01*
X84110Y466955D01*
X84111Y466948D01*
X84159Y466841D01*
X84204Y466734D01*
X84209Y466728D01*
X84211Y466724D01*
X84224Y466710D01*
X84309Y466603D01*
X92246Y458666D01*
X92472Y458440D01*
X92546Y458387D01*
X92616Y458327D01*
X92646Y458315D01*
X92672Y458296D01*
X92759Y458269D01*
X92844Y458235D01*
X92885Y458231D01*
X92907Y458224D01*
X92939Y458225D01*
X93011Y458217D01*
X93530Y458217D01*
X100077Y451670D01*
X100077Y444801D01*
X100078Y444792D01*
X100078Y444789D01*
X100081Y444773D01*
X100091Y444711D01*
X100099Y444620D01*
X100111Y444590D01*
X100116Y444558D01*
X100159Y444477D01*
X100195Y444393D01*
X100221Y444361D01*
X100232Y444341D01*
X100255Y444318D01*
X100300Y444262D01*
X120186Y424376D01*
X120187Y424376D01*
X122009Y422554D01*
X122937Y420313D01*
X122937Y375916D01*
X122948Y375845D01*
X122950Y375773D01*
X122968Y375724D01*
X122976Y375673D01*
X123010Y375609D01*
X123035Y375542D01*
X123067Y375501D01*
X123092Y375455D01*
X123144Y375406D01*
X123188Y375350D01*
X123232Y375322D01*
X123270Y375286D01*
X123335Y375256D01*
X123395Y375217D01*
X123446Y375204D01*
X123493Y375182D01*
X123564Y375175D01*
X123634Y375157D01*
X123686Y375161D01*
X123737Y375155D01*
X123808Y375171D01*
X123879Y375176D01*
X123927Y375196D01*
X123978Y375208D01*
X124039Y375244D01*
X124105Y375272D01*
X124161Y375317D01*
X124189Y375334D01*
X124204Y375352D01*
X124236Y375377D01*
X128082Y379223D01*
X130557Y379223D01*
X130557Y370332D01*
X130560Y370312D01*
X130558Y370293D01*
X130580Y370191D01*
X130597Y370089D01*
X130606Y370072D01*
X130610Y370052D01*
X130663Y369963D01*
X130712Y369872D01*
X130726Y369858D01*
X130736Y369841D01*
X130815Y369774D01*
X130890Y369703D01*
X130908Y369694D01*
X130923Y369681D01*
X131019Y369643D01*
X131113Y369599D01*
X131133Y369597D01*
X131151Y369589D01*
X131318Y369571D01*
X132081Y369571D01*
X132081Y369569D01*
X131318Y369569D01*
X131298Y369566D01*
X131279Y369568D01*
X131177Y369546D01*
X131075Y369529D01*
X131058Y369520D01*
X131038Y369516D01*
X130949Y369463D01*
X130858Y369414D01*
X130844Y369400D01*
X130827Y369390D01*
X130760Y369311D01*
X130689Y369236D01*
X130680Y369218D01*
X130667Y369203D01*
X130628Y369107D01*
X130585Y369013D01*
X130583Y368993D01*
X130575Y368975D01*
X130557Y368808D01*
X130557Y359917D01*
X128082Y359917D01*
X124236Y363763D01*
X124178Y363805D01*
X124126Y363854D01*
X124079Y363876D01*
X124037Y363906D01*
X123968Y363927D01*
X123903Y363958D01*
X123851Y363963D01*
X123801Y363979D01*
X123730Y363977D01*
X123659Y363985D01*
X123608Y363974D01*
X123556Y363972D01*
X123488Y363948D01*
X123418Y363932D01*
X123373Y363906D01*
X123325Y363888D01*
X123269Y363843D01*
X123207Y363806D01*
X123173Y363767D01*
X123133Y363734D01*
X123094Y363674D01*
X123047Y363619D01*
X123028Y363571D01*
X123000Y363527D01*
X122982Y363458D01*
X122955Y363391D01*
X122947Y363320D01*
X122939Y363289D01*
X122941Y363265D01*
X122937Y363224D01*
X122937Y172404D01*
X122951Y172314D01*
X122959Y172223D01*
X122971Y172193D01*
X122976Y172161D01*
X123019Y172081D01*
X123055Y171997D01*
X123081Y171965D01*
X123092Y171944D01*
X123115Y171922D01*
X123160Y171866D01*
X123923Y171103D01*
X125195Y168032D01*
X125195Y164708D01*
X123923Y161637D01*
X121573Y159287D01*
X118502Y158015D01*
X115178Y158015D01*
G37*
%LPD*%
%LPC*%
G36*
X22859Y165099D02*
X22859Y165099D01*
X22859Y165862D01*
X22856Y165882D01*
X22858Y165901D01*
X22836Y166003D01*
X22819Y166105D01*
X22810Y166122D01*
X22806Y166142D01*
X22753Y166231D01*
X22704Y166322D01*
X22690Y166336D01*
X22680Y166353D01*
X22601Y166420D01*
X22526Y166491D01*
X22508Y166500D01*
X22493Y166513D01*
X22397Y166552D01*
X22303Y166595D01*
X22283Y166597D01*
X22265Y166605D01*
X22098Y166623D01*
X11014Y166623D01*
X11215Y167896D01*
X11796Y169683D01*
X12649Y171357D01*
X13754Y172878D01*
X15082Y174206D01*
X16603Y175311D01*
X18277Y176164D01*
X18564Y176257D01*
X18654Y176304D01*
X18746Y176345D01*
X18762Y176360D01*
X18782Y176370D01*
X18853Y176443D01*
X18927Y176511D01*
X18938Y176531D01*
X18953Y176547D01*
X18997Y176638D01*
X19046Y176727D01*
X19050Y176749D01*
X19059Y176769D01*
X19072Y176869D01*
X19090Y176969D01*
X19086Y176991D01*
X19089Y177013D01*
X19069Y177112D01*
X19054Y177212D01*
X19044Y177232D01*
X19039Y177254D01*
X18988Y177341D01*
X18942Y177431D01*
X18926Y177447D01*
X18915Y177466D01*
X18839Y177533D01*
X18767Y177604D01*
X18743Y177617D01*
X18730Y177628D01*
X18700Y177640D01*
X18620Y177684D01*
X15234Y179087D01*
X11447Y182874D01*
X9397Y187822D01*
X9397Y193178D01*
X11447Y198126D01*
X15234Y201913D01*
X16643Y202497D01*
X16704Y202534D01*
X16769Y202564D01*
X16808Y202599D01*
X16852Y202626D01*
X16898Y202682D01*
X16950Y202730D01*
X16975Y202776D01*
X17009Y202816D01*
X17034Y202883D01*
X17069Y202946D01*
X17078Y202997D01*
X17097Y203045D01*
X17100Y203117D01*
X17113Y203188D01*
X17105Y203239D01*
X17107Y203291D01*
X17087Y203360D01*
X17077Y203431D01*
X17053Y203477D01*
X17039Y203527D01*
X16998Y203586D01*
X16965Y203650D01*
X16928Y203687D01*
X16898Y203729D01*
X16841Y203772D01*
X16790Y203822D01*
X16727Y203857D01*
X16701Y203876D01*
X16679Y203883D01*
X16643Y203903D01*
X15234Y204487D01*
X11447Y208274D01*
X9397Y213222D01*
X9397Y218578D01*
X11447Y223526D01*
X15234Y227313D01*
X16643Y227897D01*
X16704Y227934D01*
X16769Y227964D01*
X16808Y227999D01*
X16852Y228026D01*
X16898Y228082D01*
X16950Y228130D01*
X16975Y228176D01*
X17009Y228216D01*
X17034Y228283D01*
X17069Y228346D01*
X17078Y228397D01*
X17097Y228445D01*
X17100Y228517D01*
X17113Y228588D01*
X17105Y228639D01*
X17107Y228691D01*
X17087Y228760D01*
X17077Y228831D01*
X17053Y228877D01*
X17039Y228927D01*
X16998Y228986D01*
X16965Y229050D01*
X16928Y229087D01*
X16898Y229129D01*
X16841Y229172D01*
X16790Y229222D01*
X16727Y229257D01*
X16701Y229276D01*
X16679Y229283D01*
X16643Y229303D01*
X15234Y229887D01*
X11447Y233674D01*
X9397Y238622D01*
X9397Y243978D01*
X11447Y248926D01*
X15234Y252713D01*
X16643Y253297D01*
X16704Y253334D01*
X16769Y253364D01*
X16808Y253399D01*
X16852Y253426D01*
X16898Y253482D01*
X16950Y253530D01*
X16975Y253576D01*
X17009Y253616D01*
X17034Y253683D01*
X17069Y253746D01*
X17078Y253797D01*
X17097Y253845D01*
X17100Y253917D01*
X17113Y253988D01*
X17105Y254039D01*
X17107Y254091D01*
X17087Y254160D01*
X17077Y254231D01*
X17053Y254277D01*
X17039Y254327D01*
X16998Y254386D01*
X16965Y254450D01*
X16928Y254487D01*
X16898Y254529D01*
X16841Y254572D01*
X16790Y254622D01*
X16727Y254657D01*
X16701Y254676D01*
X16679Y254683D01*
X16643Y254703D01*
X15234Y255287D01*
X11447Y259074D01*
X9397Y264022D01*
X9397Y269378D01*
X11447Y274326D01*
X15234Y278113D01*
X16643Y278697D01*
X16704Y278734D01*
X16769Y278764D01*
X16808Y278799D01*
X16852Y278826D01*
X16898Y278882D01*
X16950Y278930D01*
X16975Y278976D01*
X17009Y279016D01*
X17034Y279083D01*
X17069Y279146D01*
X17078Y279197D01*
X17097Y279245D01*
X17100Y279317D01*
X17113Y279388D01*
X17105Y279439D01*
X17107Y279491D01*
X17087Y279560D01*
X17077Y279631D01*
X17053Y279677D01*
X17039Y279727D01*
X16998Y279786D01*
X16965Y279850D01*
X16928Y279887D01*
X16898Y279929D01*
X16841Y279972D01*
X16790Y280022D01*
X16727Y280057D01*
X16701Y280076D01*
X16679Y280083D01*
X16643Y280103D01*
X15234Y280687D01*
X11447Y284474D01*
X9397Y289422D01*
X9397Y294778D01*
X11447Y299726D01*
X15234Y303513D01*
X16643Y304097D01*
X16704Y304134D01*
X16769Y304164D01*
X16808Y304199D01*
X16852Y304226D01*
X16898Y304282D01*
X16950Y304330D01*
X16975Y304376D01*
X17009Y304416D01*
X17034Y304483D01*
X17069Y304546D01*
X17078Y304597D01*
X17097Y304645D01*
X17100Y304717D01*
X17113Y304788D01*
X17105Y304839D01*
X17107Y304891D01*
X17087Y304960D01*
X17077Y305031D01*
X17053Y305077D01*
X17039Y305127D01*
X16998Y305186D01*
X16965Y305250D01*
X16928Y305287D01*
X16898Y305329D01*
X16841Y305372D01*
X16790Y305422D01*
X16727Y305457D01*
X16701Y305476D01*
X16679Y305483D01*
X16643Y305503D01*
X15234Y306087D01*
X11447Y309874D01*
X9397Y314822D01*
X9397Y320178D01*
X11447Y325126D01*
X15234Y328913D01*
X16643Y329497D01*
X16704Y329534D01*
X16769Y329564D01*
X16808Y329599D01*
X16852Y329626D01*
X16898Y329682D01*
X16950Y329730D01*
X16975Y329776D01*
X17009Y329816D01*
X17034Y329883D01*
X17069Y329946D01*
X17078Y329997D01*
X17097Y330045D01*
X17100Y330117D01*
X17113Y330188D01*
X17105Y330239D01*
X17107Y330291D01*
X17087Y330360D01*
X17077Y330431D01*
X17053Y330477D01*
X17039Y330527D01*
X16998Y330586D01*
X16965Y330650D01*
X16928Y330687D01*
X16898Y330729D01*
X16841Y330772D01*
X16790Y330822D01*
X16727Y330857D01*
X16701Y330876D01*
X16679Y330883D01*
X16643Y330903D01*
X15234Y331487D01*
X11447Y335274D01*
X9397Y340222D01*
X9397Y345578D01*
X11447Y350526D01*
X15234Y354313D01*
X16643Y354897D01*
X16704Y354934D01*
X16769Y354964D01*
X16808Y354999D01*
X16852Y355026D01*
X16898Y355082D01*
X16950Y355130D01*
X16975Y355176D01*
X17009Y355216D01*
X17034Y355283D01*
X17069Y355346D01*
X17078Y355397D01*
X17097Y355445D01*
X17100Y355517D01*
X17113Y355588D01*
X17105Y355639D01*
X17107Y355691D01*
X17087Y355760D01*
X17077Y355831D01*
X17053Y355877D01*
X17039Y355927D01*
X16998Y355986D01*
X16965Y356050D01*
X16928Y356087D01*
X16898Y356129D01*
X16841Y356172D01*
X16790Y356222D01*
X16727Y356257D01*
X16701Y356276D01*
X16679Y356283D01*
X16643Y356303D01*
X15234Y356887D01*
X11447Y360674D01*
X9397Y365622D01*
X9397Y370978D01*
X11447Y375926D01*
X15234Y379713D01*
X20182Y381763D01*
X25538Y381763D01*
X30486Y379713D01*
X34273Y375926D01*
X36323Y370978D01*
X36323Y365622D01*
X34273Y360674D01*
X30486Y356887D01*
X29077Y356303D01*
X29016Y356265D01*
X28951Y356236D01*
X28912Y356201D01*
X28868Y356174D01*
X28822Y356118D01*
X28770Y356070D01*
X28745Y356024D01*
X28711Y355984D01*
X28686Y355917D01*
X28651Y355854D01*
X28642Y355803D01*
X28623Y355755D01*
X28620Y355683D01*
X28607Y355612D01*
X28615Y355561D01*
X28613Y355509D01*
X28633Y355440D01*
X28643Y355369D01*
X28667Y355323D01*
X28681Y355273D01*
X28722Y355214D01*
X28755Y355150D01*
X28792Y355113D01*
X28822Y355071D01*
X28879Y355028D01*
X28930Y354978D01*
X28993Y354943D01*
X29019Y354924D01*
X29041Y354917D01*
X29077Y354897D01*
X30486Y354313D01*
X34273Y350526D01*
X36323Y345578D01*
X36323Y340222D01*
X34273Y335274D01*
X30486Y331487D01*
X29077Y330903D01*
X29016Y330865D01*
X28951Y330836D01*
X28912Y330801D01*
X28868Y330774D01*
X28822Y330718D01*
X28770Y330670D01*
X28745Y330624D01*
X28711Y330584D01*
X28686Y330517D01*
X28651Y330454D01*
X28642Y330403D01*
X28623Y330355D01*
X28620Y330283D01*
X28607Y330212D01*
X28615Y330161D01*
X28613Y330109D01*
X28633Y330040D01*
X28643Y329969D01*
X28667Y329923D01*
X28681Y329873D01*
X28722Y329814D01*
X28755Y329750D01*
X28792Y329713D01*
X28822Y329671D01*
X28879Y329628D01*
X28930Y329578D01*
X28993Y329543D01*
X29019Y329524D01*
X29041Y329517D01*
X29077Y329497D01*
X30486Y328913D01*
X34273Y325126D01*
X36323Y320178D01*
X36323Y314822D01*
X34273Y309874D01*
X30486Y306087D01*
X29077Y305503D01*
X29016Y305465D01*
X28951Y305436D01*
X28912Y305401D01*
X28868Y305374D01*
X28822Y305318D01*
X28770Y305270D01*
X28745Y305224D01*
X28711Y305184D01*
X28686Y305117D01*
X28651Y305054D01*
X28642Y305003D01*
X28623Y304955D01*
X28620Y304883D01*
X28607Y304812D01*
X28615Y304761D01*
X28613Y304709D01*
X28633Y304640D01*
X28643Y304569D01*
X28667Y304523D01*
X28681Y304473D01*
X28722Y304414D01*
X28755Y304350D01*
X28792Y304313D01*
X28822Y304271D01*
X28879Y304228D01*
X28930Y304178D01*
X28993Y304143D01*
X29019Y304124D01*
X29041Y304117D01*
X29077Y304097D01*
X30486Y303513D01*
X34273Y299726D01*
X36323Y294778D01*
X36323Y289422D01*
X34273Y284474D01*
X30486Y280687D01*
X29077Y280103D01*
X29016Y280065D01*
X28951Y280036D01*
X28912Y280001D01*
X28868Y279974D01*
X28822Y279918D01*
X28770Y279870D01*
X28745Y279824D01*
X28711Y279784D01*
X28686Y279717D01*
X28651Y279654D01*
X28642Y279603D01*
X28623Y279555D01*
X28620Y279483D01*
X28607Y279412D01*
X28615Y279361D01*
X28613Y279309D01*
X28633Y279240D01*
X28643Y279169D01*
X28667Y279123D01*
X28681Y279073D01*
X28722Y279014D01*
X28755Y278950D01*
X28792Y278913D01*
X28822Y278871D01*
X28879Y278828D01*
X28930Y278778D01*
X28993Y278743D01*
X29019Y278724D01*
X29041Y278717D01*
X29077Y278697D01*
X30486Y278113D01*
X34273Y274326D01*
X36323Y269378D01*
X36323Y264022D01*
X34273Y259074D01*
X30486Y255287D01*
X29077Y254703D01*
X29016Y254665D01*
X28951Y254636D01*
X28912Y254601D01*
X28868Y254574D01*
X28822Y254518D01*
X28770Y254470D01*
X28745Y254424D01*
X28711Y254384D01*
X28686Y254317D01*
X28651Y254254D01*
X28642Y254203D01*
X28623Y254155D01*
X28620Y254083D01*
X28607Y254012D01*
X28615Y253961D01*
X28613Y253909D01*
X28633Y253840D01*
X28643Y253769D01*
X28667Y253723D01*
X28681Y253673D01*
X28722Y253614D01*
X28755Y253550D01*
X28792Y253513D01*
X28822Y253471D01*
X28879Y253428D01*
X28930Y253378D01*
X28993Y253343D01*
X29019Y253324D01*
X29041Y253317D01*
X29077Y253297D01*
X30486Y252713D01*
X34273Y248926D01*
X36323Y243978D01*
X36323Y238622D01*
X34273Y233674D01*
X30486Y229887D01*
X29077Y229303D01*
X29016Y229265D01*
X28951Y229236D01*
X28912Y229201D01*
X28868Y229174D01*
X28822Y229118D01*
X28770Y229070D01*
X28745Y229024D01*
X28711Y228984D01*
X28686Y228917D01*
X28651Y228854D01*
X28642Y228803D01*
X28623Y228755D01*
X28620Y228683D01*
X28607Y228612D01*
X28615Y228561D01*
X28613Y228509D01*
X28633Y228440D01*
X28643Y228369D01*
X28667Y228323D01*
X28681Y228273D01*
X28722Y228214D01*
X28755Y228150D01*
X28792Y228113D01*
X28822Y228071D01*
X28879Y228028D01*
X28930Y227978D01*
X28993Y227943D01*
X29019Y227924D01*
X29041Y227917D01*
X29077Y227897D01*
X30486Y227313D01*
X34273Y223526D01*
X36323Y218578D01*
X36323Y213222D01*
X34273Y208274D01*
X30486Y204487D01*
X29077Y203903D01*
X29016Y203865D01*
X28951Y203836D01*
X28912Y203801D01*
X28868Y203774D01*
X28822Y203718D01*
X28770Y203670D01*
X28745Y203624D01*
X28711Y203584D01*
X28686Y203517D01*
X28651Y203454D01*
X28642Y203403D01*
X28623Y203355D01*
X28620Y203283D01*
X28607Y203212D01*
X28615Y203161D01*
X28613Y203109D01*
X28633Y203040D01*
X28643Y202969D01*
X28667Y202923D01*
X28681Y202873D01*
X28722Y202814D01*
X28755Y202750D01*
X28792Y202713D01*
X28822Y202671D01*
X28879Y202628D01*
X28930Y202578D01*
X28993Y202543D01*
X29019Y202524D01*
X29041Y202517D01*
X29077Y202497D01*
X30486Y201913D01*
X34273Y198126D01*
X36323Y193178D01*
X36323Y187822D01*
X34273Y182874D01*
X30486Y179087D01*
X27100Y177684D01*
X27014Y177631D01*
X26925Y177583D01*
X26910Y177566D01*
X26891Y177555D01*
X26827Y177477D01*
X26758Y177403D01*
X26749Y177382D01*
X26734Y177365D01*
X26698Y177271D01*
X26656Y177178D01*
X26654Y177156D01*
X26646Y177136D01*
X26642Y177035D01*
X26632Y176934D01*
X26637Y176912D01*
X26636Y176890D01*
X26664Y176793D01*
X26687Y176694D01*
X26698Y176675D01*
X26704Y176654D01*
X26762Y176571D01*
X26815Y176484D01*
X26832Y176470D01*
X26845Y176452D01*
X26926Y176391D01*
X27004Y176326D01*
X27028Y176315D01*
X27042Y176305D01*
X27073Y176295D01*
X27156Y176257D01*
X27443Y176164D01*
X29117Y175311D01*
X30638Y174206D01*
X31966Y172878D01*
X33071Y171357D01*
X33924Y169683D01*
X34505Y167896D01*
X34706Y166623D01*
X23622Y166623D01*
X23602Y166620D01*
X23583Y166622D01*
X23481Y166600D01*
X23379Y166583D01*
X23362Y166574D01*
X23342Y166570D01*
X23253Y166517D01*
X23162Y166468D01*
X23148Y166454D01*
X23131Y166444D01*
X23064Y166365D01*
X22993Y166290D01*
X22984Y166272D01*
X22971Y166257D01*
X22933Y166161D01*
X22889Y166067D01*
X22887Y166047D01*
X22879Y166029D01*
X22861Y165862D01*
X22861Y165099D01*
X22859Y165099D01*
G37*
%LPD*%
%LPC*%
G36*
X138038Y105945D02*
X138038Y105945D01*
X134967Y107217D01*
X132617Y109567D01*
X131345Y112638D01*
X131345Y115962D01*
X132617Y119033D01*
X133380Y119796D01*
X133433Y119870D01*
X133493Y119939D01*
X133505Y119969D01*
X133524Y119995D01*
X133551Y120082D01*
X133585Y120167D01*
X133589Y120208D01*
X133596Y120231D01*
X133595Y120263D01*
X133603Y120334D01*
X133603Y260666D01*
X133589Y260756D01*
X133581Y260847D01*
X133569Y260877D01*
X133564Y260909D01*
X133521Y260989D01*
X133485Y261073D01*
X133459Y261105D01*
X133448Y261126D01*
X133425Y261148D01*
X133380Y261204D01*
X132617Y261967D01*
X131345Y265038D01*
X131345Y268362D01*
X132617Y271433D01*
X134967Y273783D01*
X138038Y275055D01*
X141362Y275055D01*
X144433Y273783D01*
X146783Y271433D01*
X148055Y268362D01*
X148055Y265038D01*
X146783Y261967D01*
X146020Y261204D01*
X145967Y261130D01*
X145907Y261061D01*
X145895Y261031D01*
X145876Y261005D01*
X145849Y260918D01*
X145815Y260833D01*
X145811Y260792D01*
X145804Y260769D01*
X145805Y260737D01*
X145797Y260666D01*
X145797Y120334D01*
X145811Y120244D01*
X145819Y120153D01*
X145831Y120123D01*
X145836Y120091D01*
X145879Y120011D01*
X145915Y119927D01*
X145941Y119895D01*
X145952Y119874D01*
X145975Y119852D01*
X146020Y119796D01*
X146783Y119033D01*
X148055Y115962D01*
X148055Y112638D01*
X146783Y109567D01*
X144433Y107217D01*
X141362Y105945D01*
X138038Y105945D01*
G37*
%LPD*%
%LPC*%
G36*
X112892Y6857D02*
X112892Y6857D01*
X107944Y8907D01*
X104157Y12694D01*
X102107Y17642D01*
X102107Y22998D01*
X104157Y27946D01*
X107944Y31733D01*
X111330Y33136D01*
X111416Y33189D01*
X111505Y33237D01*
X111520Y33254D01*
X111539Y33265D01*
X111603Y33343D01*
X111672Y33417D01*
X111681Y33438D01*
X111696Y33455D01*
X111732Y33549D01*
X111774Y33642D01*
X111776Y33664D01*
X111784Y33684D01*
X111788Y33785D01*
X111798Y33886D01*
X111793Y33908D01*
X111794Y33930D01*
X111766Y34027D01*
X111743Y34126D01*
X111732Y34145D01*
X111726Y34166D01*
X111668Y34249D01*
X111615Y34336D01*
X111598Y34350D01*
X111585Y34368D01*
X111504Y34429D01*
X111426Y34494D01*
X111402Y34505D01*
X111388Y34515D01*
X111357Y34525D01*
X111274Y34563D01*
X110987Y34656D01*
X109313Y35509D01*
X107792Y36614D01*
X106464Y37942D01*
X105359Y39463D01*
X104506Y41137D01*
X103925Y42924D01*
X103724Y44197D01*
X114808Y44197D01*
X114828Y44200D01*
X114847Y44198D01*
X114949Y44220D01*
X115051Y44237D01*
X115068Y44246D01*
X115088Y44250D01*
X115177Y44303D01*
X115268Y44352D01*
X115282Y44366D01*
X115299Y44376D01*
X115366Y44455D01*
X115437Y44530D01*
X115446Y44548D01*
X115459Y44563D01*
X115497Y44659D01*
X115541Y44753D01*
X115543Y44773D01*
X115551Y44791D01*
X115569Y44958D01*
X115569Y46482D01*
X115566Y46502D01*
X115568Y46521D01*
X115546Y46623D01*
X115529Y46725D01*
X115520Y46742D01*
X115516Y46762D01*
X115463Y46851D01*
X115414Y46942D01*
X115400Y46956D01*
X115390Y46973D01*
X115311Y47040D01*
X115236Y47111D01*
X115218Y47120D01*
X115203Y47133D01*
X115107Y47172D01*
X115013Y47215D01*
X114993Y47217D01*
X114975Y47225D01*
X114808Y47243D01*
X103724Y47243D01*
X103925Y48516D01*
X104506Y50303D01*
X105359Y51977D01*
X106464Y53498D01*
X107792Y54826D01*
X109313Y55931D01*
X110987Y56784D01*
X111274Y56877D01*
X111364Y56924D01*
X111456Y56965D01*
X111472Y56980D01*
X111492Y56990D01*
X111563Y57063D01*
X111637Y57131D01*
X111648Y57151D01*
X111663Y57167D01*
X111707Y57258D01*
X111756Y57347D01*
X111760Y57369D01*
X111769Y57389D01*
X111782Y57489D01*
X111800Y57589D01*
X111796Y57611D01*
X111799Y57633D01*
X111779Y57732D01*
X111764Y57832D01*
X111754Y57852D01*
X111749Y57874D01*
X111698Y57961D01*
X111652Y58051D01*
X111636Y58067D01*
X111625Y58086D01*
X111549Y58153D01*
X111477Y58224D01*
X111453Y58237D01*
X111440Y58248D01*
X111410Y58260D01*
X111330Y58304D01*
X107944Y59707D01*
X104157Y63494D01*
X102107Y68442D01*
X102107Y73798D01*
X104157Y78746D01*
X107944Y82533D01*
X109353Y83117D01*
X109414Y83155D01*
X109479Y83184D01*
X109518Y83219D01*
X109562Y83246D01*
X109608Y83302D01*
X109660Y83350D01*
X109685Y83396D01*
X109719Y83436D01*
X109744Y83503D01*
X109779Y83566D01*
X109788Y83617D01*
X109807Y83665D01*
X109810Y83737D01*
X109823Y83808D01*
X109815Y83859D01*
X109817Y83911D01*
X109797Y83980D01*
X109787Y84051D01*
X109763Y84097D01*
X109749Y84147D01*
X109708Y84206D01*
X109675Y84270D01*
X109638Y84307D01*
X109608Y84349D01*
X109551Y84392D01*
X109500Y84442D01*
X109437Y84477D01*
X109411Y84496D01*
X109389Y84503D01*
X109353Y84523D01*
X107944Y85107D01*
X104157Y88894D01*
X102107Y93842D01*
X102107Y99198D01*
X104157Y104146D01*
X107944Y107933D01*
X112892Y109983D01*
X118248Y109983D01*
X123196Y107933D01*
X126983Y104146D01*
X129033Y99198D01*
X129033Y93842D01*
X126983Y88894D01*
X123196Y85107D01*
X121787Y84523D01*
X121726Y84486D01*
X121661Y84456D01*
X121622Y84421D01*
X121578Y84394D01*
X121532Y84338D01*
X121480Y84290D01*
X121455Y84244D01*
X121421Y84204D01*
X121396Y84137D01*
X121361Y84074D01*
X121352Y84023D01*
X121333Y83975D01*
X121330Y83903D01*
X121317Y83832D01*
X121325Y83781D01*
X121323Y83729D01*
X121343Y83660D01*
X121353Y83589D01*
X121377Y83543D01*
X121391Y83493D01*
X121432Y83434D01*
X121465Y83370D01*
X121502Y83333D01*
X121532Y83291D01*
X121589Y83248D01*
X121640Y83198D01*
X121703Y83163D01*
X121729Y83144D01*
X121751Y83137D01*
X121787Y83117D01*
X123196Y82533D01*
X126983Y78746D01*
X129033Y73798D01*
X129033Y68442D01*
X126983Y63494D01*
X123196Y59707D01*
X119810Y58304D01*
X119724Y58251D01*
X119635Y58203D01*
X119620Y58186D01*
X119601Y58175D01*
X119537Y58097D01*
X119468Y58023D01*
X119459Y58002D01*
X119444Y57985D01*
X119408Y57891D01*
X119366Y57798D01*
X119364Y57776D01*
X119356Y57756D01*
X119352Y57655D01*
X119342Y57554D01*
X119347Y57532D01*
X119346Y57510D01*
X119374Y57413D01*
X119397Y57314D01*
X119408Y57295D01*
X119414Y57274D01*
X119472Y57191D01*
X119525Y57104D01*
X119542Y57090D01*
X119555Y57072D01*
X119636Y57011D01*
X119714Y56946D01*
X119738Y56935D01*
X119752Y56925D01*
X119783Y56915D01*
X119866Y56877D01*
X120153Y56784D01*
X121827Y55931D01*
X123348Y54826D01*
X124676Y53498D01*
X125781Y51977D01*
X126634Y50303D01*
X127215Y48516D01*
X127416Y47243D01*
X116332Y47243D01*
X116312Y47240D01*
X116293Y47242D01*
X116191Y47220D01*
X116089Y47203D01*
X116072Y47194D01*
X116052Y47190D01*
X115963Y47137D01*
X115872Y47088D01*
X115858Y47074D01*
X115841Y47064D01*
X115774Y46985D01*
X115703Y46910D01*
X115694Y46892D01*
X115681Y46877D01*
X115643Y46781D01*
X115599Y46687D01*
X115597Y46667D01*
X115589Y46649D01*
X115571Y46482D01*
X115571Y44958D01*
X115574Y44938D01*
X115572Y44919D01*
X115594Y44817D01*
X115611Y44715D01*
X115620Y44698D01*
X115624Y44678D01*
X115677Y44589D01*
X115726Y44498D01*
X115740Y44484D01*
X115750Y44467D01*
X115829Y44400D01*
X115904Y44329D01*
X115922Y44320D01*
X115937Y44307D01*
X116033Y44268D01*
X116127Y44225D01*
X116147Y44223D01*
X116165Y44215D01*
X116332Y44197D01*
X127416Y44197D01*
X127215Y42924D01*
X126634Y41137D01*
X125781Y39463D01*
X124676Y37942D01*
X123348Y36614D01*
X121827Y35509D01*
X120153Y34656D01*
X119866Y34563D01*
X119776Y34516D01*
X119684Y34475D01*
X119668Y34460D01*
X119648Y34450D01*
X119577Y34377D01*
X119503Y34309D01*
X119492Y34289D01*
X119477Y34273D01*
X119433Y34182D01*
X119384Y34093D01*
X119380Y34071D01*
X119371Y34051D01*
X119358Y33951D01*
X119340Y33851D01*
X119344Y33829D01*
X119341Y33807D01*
X119361Y33708D01*
X119376Y33608D01*
X119386Y33588D01*
X119391Y33566D01*
X119442Y33479D01*
X119488Y33389D01*
X119504Y33373D01*
X119515Y33354D01*
X119591Y33287D01*
X119663Y33216D01*
X119687Y33203D01*
X119700Y33192D01*
X119730Y33180D01*
X119810Y33136D01*
X123196Y31733D01*
X126983Y27946D01*
X129033Y22998D01*
X129033Y17642D01*
X126983Y12694D01*
X123196Y8907D01*
X118248Y6857D01*
X112892Y6857D01*
G37*
%LPD*%
%LPC*%
G36*
X61838Y62765D02*
X61838Y62765D01*
X58767Y64037D01*
X56417Y66387D01*
X55145Y69458D01*
X55145Y72782D01*
X56417Y75853D01*
X57180Y76616D01*
X57224Y76676D01*
X57262Y76717D01*
X57269Y76731D01*
X57293Y76759D01*
X57305Y76789D01*
X57324Y76815D01*
X57351Y76902D01*
X57364Y76936D01*
X57366Y76940D01*
X57366Y76941D01*
X57385Y76987D01*
X57389Y77028D01*
X57396Y77051D01*
X57395Y77083D01*
X57403Y77154D01*
X57403Y209866D01*
X57389Y209956D01*
X57381Y210047D01*
X57369Y210077D01*
X57364Y210109D01*
X57321Y210189D01*
X57285Y210273D01*
X57259Y210305D01*
X57248Y210326D01*
X57225Y210348D01*
X57180Y210404D01*
X56417Y211167D01*
X55145Y214238D01*
X55145Y217562D01*
X56417Y220633D01*
X58767Y222983D01*
X61838Y224255D01*
X65162Y224255D01*
X68233Y222983D01*
X70583Y220633D01*
X71855Y217562D01*
X71855Y214238D01*
X70583Y211167D01*
X69820Y210404D01*
X69767Y210330D01*
X69707Y210261D01*
X69695Y210231D01*
X69676Y210205D01*
X69649Y210118D01*
X69615Y210033D01*
X69611Y209992D01*
X69604Y209969D01*
X69605Y209937D01*
X69597Y209866D01*
X69597Y77154D01*
X69611Y77064D01*
X69619Y76973D01*
X69631Y76943D01*
X69636Y76911D01*
X69658Y76870D01*
X69659Y76865D01*
X69674Y76840D01*
X69679Y76831D01*
X69715Y76747D01*
X69741Y76715D01*
X69752Y76694D01*
X69775Y76672D01*
X69785Y76654D01*
X69797Y76644D01*
X69820Y76616D01*
X70583Y75853D01*
X71855Y72782D01*
X71855Y69458D01*
X70583Y66387D01*
X68233Y64037D01*
X65162Y62765D01*
X61838Y62765D01*
G37*
%LPD*%
%LPC*%
G36*
X18912Y6857D02*
X18912Y6857D01*
X13964Y8907D01*
X10177Y12694D01*
X8127Y17642D01*
X8127Y22998D01*
X10177Y27946D01*
X13964Y31733D01*
X17350Y33136D01*
X17436Y33189D01*
X17525Y33237D01*
X17540Y33254D01*
X17559Y33265D01*
X17623Y33343D01*
X17692Y33417D01*
X17701Y33438D01*
X17716Y33455D01*
X17752Y33549D01*
X17794Y33642D01*
X17796Y33664D01*
X17804Y33684D01*
X17808Y33785D01*
X17818Y33886D01*
X17813Y33908D01*
X17814Y33930D01*
X17786Y34027D01*
X17763Y34126D01*
X17752Y34145D01*
X17746Y34166D01*
X17688Y34249D01*
X17635Y34336D01*
X17618Y34350D01*
X17605Y34368D01*
X17524Y34429D01*
X17446Y34494D01*
X17422Y34505D01*
X17408Y34515D01*
X17377Y34525D01*
X17294Y34563D01*
X17007Y34656D01*
X15333Y35509D01*
X13812Y36614D01*
X12484Y37942D01*
X11379Y39463D01*
X10526Y41137D01*
X9945Y42924D01*
X9744Y44197D01*
X20828Y44197D01*
X20848Y44200D01*
X20867Y44198D01*
X20969Y44220D01*
X21071Y44237D01*
X21088Y44246D01*
X21108Y44250D01*
X21197Y44303D01*
X21288Y44352D01*
X21302Y44366D01*
X21319Y44376D01*
X21386Y44455D01*
X21457Y44530D01*
X21466Y44548D01*
X21479Y44563D01*
X21517Y44659D01*
X21561Y44753D01*
X21563Y44773D01*
X21571Y44791D01*
X21589Y44958D01*
X21589Y46482D01*
X21586Y46502D01*
X21588Y46521D01*
X21566Y46623D01*
X21549Y46725D01*
X21540Y46742D01*
X21536Y46762D01*
X21483Y46851D01*
X21434Y46942D01*
X21420Y46956D01*
X21410Y46973D01*
X21331Y47040D01*
X21256Y47111D01*
X21238Y47120D01*
X21223Y47133D01*
X21127Y47172D01*
X21033Y47215D01*
X21013Y47217D01*
X20995Y47225D01*
X20828Y47243D01*
X9744Y47243D01*
X9945Y48516D01*
X10526Y50303D01*
X11379Y51977D01*
X12484Y53498D01*
X13812Y54826D01*
X15333Y55931D01*
X17007Y56784D01*
X17294Y56877D01*
X17384Y56924D01*
X17476Y56965D01*
X17492Y56980D01*
X17512Y56990D01*
X17583Y57063D01*
X17657Y57131D01*
X17668Y57151D01*
X17683Y57167D01*
X17727Y57258D01*
X17776Y57347D01*
X17780Y57369D01*
X17789Y57389D01*
X17802Y57489D01*
X17820Y57589D01*
X17816Y57611D01*
X17819Y57633D01*
X17799Y57732D01*
X17784Y57832D01*
X17774Y57852D01*
X17769Y57874D01*
X17718Y57961D01*
X17672Y58051D01*
X17656Y58067D01*
X17645Y58086D01*
X17569Y58153D01*
X17497Y58224D01*
X17473Y58237D01*
X17460Y58248D01*
X17430Y58260D01*
X17350Y58304D01*
X13964Y59707D01*
X10177Y63494D01*
X8127Y68442D01*
X8127Y73798D01*
X10177Y78746D01*
X13964Y82533D01*
X18912Y84583D01*
X24268Y84583D01*
X29216Y82533D01*
X33003Y78746D01*
X35053Y73798D01*
X35053Y68442D01*
X33003Y63494D01*
X29216Y59707D01*
X25830Y58304D01*
X25744Y58251D01*
X25655Y58203D01*
X25640Y58186D01*
X25621Y58175D01*
X25557Y58097D01*
X25488Y58023D01*
X25479Y58002D01*
X25464Y57985D01*
X25428Y57891D01*
X25386Y57798D01*
X25384Y57776D01*
X25376Y57756D01*
X25372Y57655D01*
X25362Y57554D01*
X25367Y57532D01*
X25366Y57510D01*
X25394Y57413D01*
X25417Y57314D01*
X25428Y57295D01*
X25434Y57274D01*
X25492Y57191D01*
X25545Y57104D01*
X25562Y57090D01*
X25575Y57072D01*
X25656Y57011D01*
X25734Y56946D01*
X25758Y56935D01*
X25772Y56925D01*
X25803Y56915D01*
X25886Y56877D01*
X26173Y56784D01*
X27847Y55931D01*
X29368Y54826D01*
X30696Y53498D01*
X31801Y51977D01*
X32654Y50303D01*
X33235Y48516D01*
X33436Y47243D01*
X22352Y47243D01*
X22332Y47240D01*
X22313Y47242D01*
X22211Y47220D01*
X22109Y47203D01*
X22092Y47194D01*
X22072Y47190D01*
X21983Y47137D01*
X21892Y47088D01*
X21878Y47074D01*
X21861Y47064D01*
X21794Y46985D01*
X21723Y46910D01*
X21714Y46892D01*
X21701Y46877D01*
X21663Y46781D01*
X21619Y46687D01*
X21617Y46667D01*
X21609Y46649D01*
X21591Y46482D01*
X21591Y44958D01*
X21594Y44938D01*
X21592Y44919D01*
X21614Y44817D01*
X21631Y44715D01*
X21640Y44698D01*
X21644Y44678D01*
X21697Y44589D01*
X21746Y44498D01*
X21760Y44484D01*
X21770Y44467D01*
X21849Y44400D01*
X21924Y44329D01*
X21942Y44320D01*
X21957Y44307D01*
X22053Y44268D01*
X22147Y44225D01*
X22167Y44223D01*
X22185Y44215D01*
X22352Y44197D01*
X33436Y44197D01*
X33235Y42924D01*
X32654Y41137D01*
X31801Y39463D01*
X30696Y37942D01*
X29368Y36614D01*
X27847Y35509D01*
X26173Y34656D01*
X25886Y34563D01*
X25796Y34516D01*
X25704Y34475D01*
X25688Y34460D01*
X25668Y34450D01*
X25597Y34377D01*
X25523Y34309D01*
X25512Y34289D01*
X25497Y34273D01*
X25453Y34182D01*
X25404Y34093D01*
X25400Y34071D01*
X25391Y34051D01*
X25378Y33951D01*
X25360Y33851D01*
X25364Y33829D01*
X25361Y33807D01*
X25381Y33708D01*
X25396Y33608D01*
X25406Y33588D01*
X25411Y33566D01*
X25462Y33479D01*
X25508Y33389D01*
X25524Y33373D01*
X25535Y33354D01*
X25611Y33287D01*
X25683Y33216D01*
X25707Y33203D01*
X25720Y33192D01*
X25750Y33180D01*
X25830Y33136D01*
X29216Y31733D01*
X33003Y27946D01*
X35053Y22998D01*
X35053Y17642D01*
X33003Y12694D01*
X29216Y8907D01*
X24268Y6857D01*
X18912Y6857D01*
G37*
%LPD*%
%LPC*%
G36*
X163438Y182145D02*
X163438Y182145D01*
X160367Y183417D01*
X158017Y185767D01*
X156745Y188838D01*
X156745Y192162D01*
X158017Y195233D01*
X158780Y195996D01*
X158833Y196070D01*
X158893Y196139D01*
X158905Y196169D01*
X158924Y196195D01*
X158951Y196282D01*
X158985Y196367D01*
X158989Y196408D01*
X158996Y196431D01*
X158995Y196463D01*
X159003Y196534D01*
X159003Y286066D01*
X158989Y286156D01*
X158981Y286247D01*
X158969Y286277D01*
X158964Y286309D01*
X158921Y286389D01*
X158885Y286473D01*
X158859Y286505D01*
X158848Y286526D01*
X158825Y286548D01*
X158780Y286604D01*
X158017Y287367D01*
X156745Y290438D01*
X156745Y293762D01*
X158017Y296833D01*
X160367Y299183D01*
X163438Y300455D01*
X166762Y300455D01*
X169833Y299183D01*
X172183Y296833D01*
X173455Y293762D01*
X173455Y290438D01*
X172183Y287367D01*
X171420Y286604D01*
X171367Y286530D01*
X171307Y286461D01*
X171295Y286431D01*
X171276Y286405D01*
X171249Y286318D01*
X171215Y286233D01*
X171211Y286192D01*
X171204Y286169D01*
X171205Y286137D01*
X171197Y286066D01*
X171197Y196534D01*
X171211Y196444D01*
X171219Y196353D01*
X171231Y196323D01*
X171236Y196291D01*
X171279Y196211D01*
X171315Y196127D01*
X171341Y196095D01*
X171352Y196074D01*
X171375Y196052D01*
X171420Y195996D01*
X172183Y195233D01*
X173455Y192162D01*
X173455Y188838D01*
X172183Y185767D01*
X169833Y183417D01*
X166762Y182145D01*
X163438Y182145D01*
G37*
%LPD*%
%LPC*%
G36*
X401770Y448563D02*
X401770Y448563D01*
X395223Y455110D01*
X395223Y464370D01*
X401770Y470917D01*
X411030Y470917D01*
X414498Y467449D01*
X414556Y467407D01*
X414608Y467357D01*
X414655Y467335D01*
X414697Y467305D01*
X414766Y467284D01*
X414831Y467254D01*
X414883Y467248D01*
X414933Y467233D01*
X415004Y467234D01*
X415075Y467227D01*
X415126Y467238D01*
X415178Y467239D01*
X415246Y467264D01*
X415316Y467279D01*
X415361Y467306D01*
X415409Y467323D01*
X415465Y467368D01*
X415527Y467405D01*
X415561Y467445D01*
X415601Y467477D01*
X415640Y467537D01*
X415687Y467592D01*
X415706Y467640D01*
X415734Y467684D01*
X415752Y467754D01*
X415779Y467820D01*
X415787Y467891D01*
X415795Y467923D01*
X415793Y467946D01*
X415797Y467987D01*
X415797Y471308D01*
X417847Y476256D01*
X421634Y480043D01*
X426582Y482093D01*
X431938Y482093D01*
X436886Y480043D01*
X440673Y476256D01*
X442723Y471308D01*
X442723Y465952D01*
X440673Y461004D01*
X436886Y457217D01*
X431938Y455167D01*
X426582Y455167D01*
X421634Y457217D01*
X418876Y459975D01*
X418818Y460016D01*
X418766Y460066D01*
X418719Y460088D01*
X418677Y460118D01*
X418608Y460139D01*
X418543Y460169D01*
X418491Y460175D01*
X418441Y460190D01*
X418370Y460189D01*
X418299Y460197D01*
X418248Y460185D01*
X418196Y460184D01*
X418128Y460159D01*
X418058Y460144D01*
X418013Y460118D01*
X417965Y460100D01*
X417909Y460055D01*
X417847Y460018D01*
X417813Y459979D01*
X417773Y459946D01*
X417734Y459886D01*
X417687Y459831D01*
X417668Y459783D01*
X417640Y459739D01*
X417622Y459670D01*
X417595Y459603D01*
X417587Y459532D01*
X417579Y459501D01*
X417581Y459477D01*
X417577Y459436D01*
X417577Y455110D01*
X411030Y448563D01*
X401770Y448563D01*
G37*
%LPD*%
%LPC*%
G36*
X352240Y466343D02*
X352240Y466343D01*
X345693Y472890D01*
X345693Y482150D01*
X352240Y488697D01*
X361500Y488697D01*
X367254Y482943D01*
X367312Y482901D01*
X367364Y482851D01*
X367411Y482829D01*
X367453Y482799D01*
X367522Y482778D01*
X367587Y482748D01*
X367639Y482742D01*
X367689Y482727D01*
X367760Y482728D01*
X367831Y482721D01*
X367882Y482732D01*
X367934Y482733D01*
X368002Y482758D01*
X368072Y482773D01*
X368117Y482800D01*
X368165Y482817D01*
X368221Y482862D01*
X368283Y482899D01*
X368317Y482939D01*
X368357Y482971D01*
X368396Y483031D01*
X368443Y483086D01*
X368462Y483134D01*
X368490Y483178D01*
X368508Y483248D01*
X368535Y483314D01*
X368543Y483385D01*
X368551Y483417D01*
X368549Y483440D01*
X368553Y483481D01*
X368553Y484690D01*
X375100Y491237D01*
X384360Y491237D01*
X390907Y484690D01*
X390907Y475430D01*
X384360Y468883D01*
X375100Y468883D01*
X369346Y474637D01*
X369288Y474679D01*
X369236Y474729D01*
X369189Y474751D01*
X369147Y474781D01*
X369078Y474802D01*
X369013Y474832D01*
X368961Y474838D01*
X368911Y474853D01*
X368840Y474852D01*
X368769Y474859D01*
X368718Y474848D01*
X368666Y474847D01*
X368598Y474822D01*
X368528Y474807D01*
X368483Y474780D01*
X368435Y474763D01*
X368379Y474718D01*
X368317Y474681D01*
X368283Y474641D01*
X368243Y474609D01*
X368204Y474549D01*
X368157Y474494D01*
X368138Y474446D01*
X368110Y474402D01*
X368092Y474332D01*
X368065Y474266D01*
X368057Y474195D01*
X368049Y474163D01*
X368051Y474140D01*
X368047Y474099D01*
X368047Y472890D01*
X361500Y466343D01*
X352240Y466343D01*
G37*
%LPD*%
%LPC*%
G36*
X153532Y6857D02*
X153532Y6857D01*
X148584Y8907D01*
X144797Y12694D01*
X142747Y17642D01*
X142747Y22998D01*
X144797Y27946D01*
X148584Y31733D01*
X151970Y33136D01*
X152056Y33189D01*
X152145Y33237D01*
X152160Y33254D01*
X152179Y33265D01*
X152243Y33343D01*
X152312Y33417D01*
X152321Y33438D01*
X152336Y33455D01*
X152372Y33549D01*
X152414Y33642D01*
X152416Y33664D01*
X152424Y33684D01*
X152428Y33785D01*
X152438Y33886D01*
X152433Y33908D01*
X152434Y33930D01*
X152406Y34027D01*
X152383Y34126D01*
X152372Y34145D01*
X152366Y34166D01*
X152308Y34249D01*
X152255Y34336D01*
X152238Y34350D01*
X152225Y34368D01*
X152144Y34429D01*
X152066Y34494D01*
X152042Y34505D01*
X152028Y34515D01*
X151997Y34525D01*
X151914Y34563D01*
X151627Y34656D01*
X149953Y35509D01*
X148432Y36614D01*
X147104Y37942D01*
X145999Y39463D01*
X145146Y41137D01*
X144565Y42924D01*
X144364Y44197D01*
X155448Y44197D01*
X155468Y44200D01*
X155487Y44198D01*
X155589Y44220D01*
X155691Y44237D01*
X155708Y44246D01*
X155728Y44250D01*
X155817Y44303D01*
X155908Y44352D01*
X155922Y44366D01*
X155939Y44376D01*
X156006Y44455D01*
X156077Y44530D01*
X156086Y44548D01*
X156099Y44563D01*
X156137Y44659D01*
X156181Y44753D01*
X156183Y44773D01*
X156191Y44791D01*
X156209Y44958D01*
X156209Y45721D01*
X156211Y45721D01*
X156211Y44958D01*
X156214Y44938D01*
X156212Y44919D01*
X156234Y44817D01*
X156251Y44715D01*
X156260Y44698D01*
X156264Y44678D01*
X156317Y44589D01*
X156366Y44498D01*
X156380Y44484D01*
X156390Y44467D01*
X156469Y44400D01*
X156544Y44329D01*
X156562Y44320D01*
X156577Y44307D01*
X156673Y44268D01*
X156767Y44225D01*
X156787Y44223D01*
X156805Y44215D01*
X156972Y44197D01*
X168056Y44197D01*
X167855Y42924D01*
X167274Y41137D01*
X166421Y39463D01*
X165316Y37942D01*
X163988Y36614D01*
X162467Y35509D01*
X160793Y34656D01*
X160506Y34563D01*
X160416Y34516D01*
X160324Y34475D01*
X160308Y34460D01*
X160288Y34450D01*
X160217Y34377D01*
X160143Y34309D01*
X160132Y34289D01*
X160117Y34273D01*
X160073Y34182D01*
X160024Y34093D01*
X160020Y34071D01*
X160011Y34051D01*
X159998Y33951D01*
X159980Y33851D01*
X159984Y33829D01*
X159981Y33807D01*
X160001Y33708D01*
X160016Y33608D01*
X160026Y33588D01*
X160031Y33566D01*
X160082Y33479D01*
X160128Y33389D01*
X160144Y33373D01*
X160155Y33354D01*
X160231Y33287D01*
X160303Y33216D01*
X160327Y33203D01*
X160340Y33192D01*
X160370Y33180D01*
X160450Y33136D01*
X163836Y31733D01*
X167623Y27946D01*
X169673Y22998D01*
X169673Y17642D01*
X167623Y12694D01*
X163836Y8907D01*
X158888Y6857D01*
X153532Y6857D01*
G37*
%LPD*%
%LPC*%
G36*
X282765Y331723D02*
X282765Y331723D01*
X278657Y333425D01*
X275513Y336569D01*
X273811Y340677D01*
X273811Y345123D01*
X275513Y349231D01*
X278657Y352375D01*
X282765Y354077D01*
X301435Y354077D01*
X305543Y352375D01*
X308687Y349231D01*
X310389Y345123D01*
X310389Y340677D01*
X308687Y336569D01*
X305543Y333425D01*
X301435Y331723D01*
X282765Y331723D01*
G37*
%LPD*%
%LPC*%
G36*
X282765Y306323D02*
X282765Y306323D01*
X278657Y308025D01*
X275513Y311169D01*
X273811Y315277D01*
X273811Y319723D01*
X275513Y323831D01*
X278657Y326975D01*
X282765Y328677D01*
X301435Y328677D01*
X305543Y326975D01*
X308687Y323831D01*
X310389Y319723D01*
X310389Y315277D01*
X308687Y311169D01*
X305543Y308025D01*
X301435Y306323D01*
X282765Y306323D01*
G37*
%LPD*%
%LPC*%
G36*
X282765Y280923D02*
X282765Y280923D01*
X278657Y282625D01*
X275513Y285769D01*
X273811Y289877D01*
X273811Y294323D01*
X275513Y298431D01*
X278657Y301575D01*
X282765Y303277D01*
X301435Y303277D01*
X305543Y301575D01*
X308687Y298431D01*
X310389Y294323D01*
X310389Y289877D01*
X308687Y285769D01*
X305543Y282625D01*
X301435Y280923D01*
X282765Y280923D01*
G37*
%LPD*%
%LPC*%
G36*
X206565Y280923D02*
X206565Y280923D01*
X202457Y282625D01*
X199313Y285769D01*
X197611Y289877D01*
X197611Y294323D01*
X199313Y298431D01*
X202457Y301575D01*
X206565Y303277D01*
X225235Y303277D01*
X229343Y301575D01*
X232487Y298431D01*
X234189Y294323D01*
X234189Y289877D01*
X232487Y285769D01*
X229343Y282625D01*
X225235Y280923D01*
X206565Y280923D01*
G37*
%LPD*%
%LPC*%
G36*
X282765Y255523D02*
X282765Y255523D01*
X278657Y257225D01*
X275513Y260369D01*
X273811Y264477D01*
X273811Y268923D01*
X275513Y273031D01*
X278657Y276175D01*
X282765Y277877D01*
X301435Y277877D01*
X305543Y276175D01*
X308687Y273031D01*
X310389Y268923D01*
X310389Y264477D01*
X308687Y260369D01*
X305543Y257225D01*
X301435Y255523D01*
X282765Y255523D01*
G37*
%LPD*%
%LPC*%
G36*
X282765Y230123D02*
X282765Y230123D01*
X278657Y231825D01*
X275513Y234969D01*
X273811Y239077D01*
X273811Y243523D01*
X275513Y247631D01*
X278657Y250775D01*
X282765Y252477D01*
X301435Y252477D01*
X305543Y250775D01*
X308687Y247631D01*
X310389Y243523D01*
X310389Y239077D01*
X308687Y234969D01*
X305543Y231825D01*
X301435Y230123D01*
X282765Y230123D01*
G37*
%LPD*%
%LPC*%
G36*
X206565Y255523D02*
X206565Y255523D01*
X202457Y257225D01*
X199313Y260369D01*
X197611Y264477D01*
X197611Y268923D01*
X199313Y273031D01*
X202457Y276175D01*
X206565Y277877D01*
X225235Y277877D01*
X229343Y276175D01*
X232487Y273031D01*
X234189Y268923D01*
X234189Y264477D01*
X232487Y260369D01*
X229343Y257225D01*
X225235Y255523D01*
X206565Y255523D01*
G37*
%LPD*%
%LPC*%
G36*
X206565Y382523D02*
X206565Y382523D01*
X202457Y384225D01*
X199313Y387369D01*
X197611Y391477D01*
X197611Y395923D01*
X199313Y400031D01*
X202457Y403175D01*
X206565Y404877D01*
X225235Y404877D01*
X229343Y403175D01*
X232487Y400031D01*
X234189Y395923D01*
X234189Y391477D01*
X232487Y387369D01*
X229343Y384225D01*
X225235Y382523D01*
X206565Y382523D01*
G37*
%LPD*%
%LPC*%
G36*
X206565Y77723D02*
X206565Y77723D01*
X202457Y79425D01*
X199313Y82569D01*
X197611Y86677D01*
X197611Y91123D01*
X199313Y95231D01*
X202457Y98375D01*
X206565Y100077D01*
X225235Y100077D01*
X229343Y98375D01*
X232487Y95231D01*
X234189Y91123D01*
X234189Y86677D01*
X232487Y82569D01*
X229343Y79425D01*
X225235Y77723D01*
X206565Y77723D01*
G37*
%LPD*%
%LPC*%
G36*
X206565Y103123D02*
X206565Y103123D01*
X202457Y104825D01*
X199313Y107969D01*
X197611Y112077D01*
X197611Y116523D01*
X199313Y120631D01*
X202457Y123775D01*
X206565Y125477D01*
X225235Y125477D01*
X229343Y123775D01*
X232487Y120631D01*
X234189Y116523D01*
X234189Y112077D01*
X232487Y107969D01*
X229343Y104825D01*
X225235Y103123D01*
X206565Y103123D01*
G37*
%LPD*%
%LPC*%
G36*
X206565Y357123D02*
X206565Y357123D01*
X202457Y358825D01*
X199313Y361969D01*
X197611Y366077D01*
X197611Y370523D01*
X199313Y374631D01*
X202457Y377775D01*
X206565Y379477D01*
X225235Y379477D01*
X229343Y377775D01*
X232487Y374631D01*
X234189Y370523D01*
X234189Y366077D01*
X232487Y361969D01*
X229343Y358825D01*
X225235Y357123D01*
X206565Y357123D01*
G37*
%LPD*%
%LPC*%
G36*
X189860Y39177D02*
X189860Y39177D01*
X185592Y40945D01*
X182325Y44212D01*
X180557Y48480D01*
X180557Y53100D01*
X182325Y57368D01*
X185592Y60635D01*
X189860Y62403D01*
X194480Y62403D01*
X198748Y60635D01*
X202015Y57368D01*
X203783Y53100D01*
X203783Y48480D01*
X202015Y44212D01*
X198748Y40945D01*
X194480Y39177D01*
X189860Y39177D01*
G37*
%LPD*%
%LPC*%
G36*
X239860Y39177D02*
X239860Y39177D01*
X235592Y40945D01*
X232325Y44212D01*
X230557Y48480D01*
X230557Y53100D01*
X232325Y57368D01*
X235592Y60635D01*
X239860Y62403D01*
X244480Y62403D01*
X248748Y60635D01*
X252015Y57368D01*
X253783Y53100D01*
X253783Y48480D01*
X252015Y44212D01*
X248748Y40945D01*
X244480Y39177D01*
X239860Y39177D01*
G37*
%LPD*%
%LPC*%
G36*
X214860Y39177D02*
X214860Y39177D01*
X210592Y40945D01*
X207325Y44212D01*
X205557Y48480D01*
X205557Y53100D01*
X207325Y57368D01*
X210592Y60635D01*
X214860Y62403D01*
X219480Y62403D01*
X223748Y60635D01*
X227015Y57368D01*
X228783Y53100D01*
X228783Y48480D01*
X227015Y44212D01*
X223748Y40945D01*
X219480Y39177D01*
X214860Y39177D01*
G37*
%LPD*%
%LPC*%
G36*
X189860Y6177D02*
X189860Y6177D01*
X185592Y7945D01*
X182325Y11212D01*
X180557Y15480D01*
X180557Y20100D01*
X182325Y24368D01*
X185592Y27635D01*
X189860Y29403D01*
X194480Y29403D01*
X198748Y27635D01*
X202015Y24368D01*
X203783Y20100D01*
X203783Y15480D01*
X202015Y11212D01*
X198748Y7945D01*
X194480Y6177D01*
X189860Y6177D01*
G37*
%LPD*%
%LPC*%
G36*
X214860Y6177D02*
X214860Y6177D01*
X210592Y7945D01*
X207325Y11212D01*
X205557Y15480D01*
X205557Y20100D01*
X207325Y24368D01*
X210592Y27635D01*
X214860Y29403D01*
X219480Y29403D01*
X223748Y27635D01*
X227015Y24368D01*
X228783Y20100D01*
X228783Y15480D01*
X227015Y11212D01*
X223748Y7945D01*
X219480Y6177D01*
X214860Y6177D01*
G37*
%LPD*%
%LPC*%
G36*
X239860Y6177D02*
X239860Y6177D01*
X235592Y7945D01*
X232325Y11212D01*
X230557Y15480D01*
X230557Y20100D01*
X232325Y24368D01*
X235592Y27635D01*
X239860Y29403D01*
X244480Y29403D01*
X248748Y27635D01*
X252015Y24368D01*
X253783Y20100D01*
X253783Y15480D01*
X252015Y11212D01*
X248748Y7945D01*
X244480Y6177D01*
X239860Y6177D01*
G37*
%LPD*%
%LPC*%
G36*
X146500Y466343D02*
X146500Y466343D01*
X139953Y472890D01*
X139953Y482150D01*
X146500Y488697D01*
X155760Y488697D01*
X162307Y482150D01*
X162307Y472890D01*
X155760Y466343D01*
X146500Y466343D01*
G37*
%LPD*%
%LPC*%
G36*
X179520Y103123D02*
X179520Y103123D01*
X172973Y109670D01*
X172973Y118930D01*
X179520Y125477D01*
X188780Y125477D01*
X195327Y118930D01*
X195327Y109670D01*
X188780Y103123D01*
X179520Y103123D01*
G37*
%LPD*%
%LPC*%
G36*
X127450Y434593D02*
X127450Y434593D01*
X120903Y441140D01*
X120903Y450400D01*
X127450Y456947D01*
X136710Y456947D01*
X143257Y450400D01*
X143257Y441140D01*
X136710Y434593D01*
X127450Y434593D01*
G37*
%LPD*%
%LPC*%
G36*
X325570Y204723D02*
X325570Y204723D01*
X319023Y211270D01*
X319023Y220530D01*
X325570Y227077D01*
X334830Y227077D01*
X341377Y220530D01*
X341377Y211270D01*
X334830Y204723D01*
X325570Y204723D01*
G37*
%LPD*%
%LPC*%
G36*
X293623Y192023D02*
X293623Y192023D01*
X293623Y200153D01*
X299972Y200153D01*
X301472Y199915D01*
X302917Y199446D01*
X304271Y198756D01*
X305500Y197863D01*
X306575Y196788D01*
X307468Y195559D01*
X308158Y194205D01*
X308627Y192760D01*
X308744Y192023D01*
X293623Y192023D01*
G37*
%LPD*%
%LPC*%
G36*
X293623Y395223D02*
X293623Y395223D01*
X293623Y403353D01*
X299972Y403353D01*
X301472Y403115D01*
X302917Y402646D01*
X304271Y401956D01*
X305500Y401063D01*
X306575Y399988D01*
X307468Y398759D01*
X308158Y397405D01*
X308627Y395960D01*
X308744Y395223D01*
X293623Y395223D01*
G37*
%LPD*%
%LPC*%
G36*
X217423Y242823D02*
X217423Y242823D01*
X217423Y250953D01*
X223772Y250953D01*
X225272Y250715D01*
X226717Y250246D01*
X228071Y249556D01*
X229300Y248663D01*
X230375Y247588D01*
X231268Y246359D01*
X231958Y245005D01*
X232427Y243560D01*
X232544Y242823D01*
X217423Y242823D01*
G37*
%LPD*%
%LPC*%
G36*
X275456Y395223D02*
X275456Y395223D01*
X275573Y395960D01*
X276042Y397405D01*
X276732Y398759D01*
X277625Y399988D01*
X278700Y401063D01*
X279929Y401956D01*
X281283Y402646D01*
X282728Y403115D01*
X284228Y403353D01*
X290577Y403353D01*
X290577Y395223D01*
X275456Y395223D01*
G37*
%LPD*%
%LPC*%
G36*
X199256Y242823D02*
X199256Y242823D01*
X199373Y243560D01*
X199842Y245005D01*
X200532Y246359D01*
X201425Y247588D01*
X202500Y248663D01*
X203729Y249556D01*
X205083Y250246D01*
X206528Y250715D01*
X208028Y250953D01*
X214377Y250953D01*
X214377Y242823D01*
X199256Y242823D01*
G37*
%LPD*%
%LPC*%
G36*
X275456Y192023D02*
X275456Y192023D01*
X275573Y192760D01*
X276042Y194205D01*
X276732Y195559D01*
X277625Y196788D01*
X278700Y197863D01*
X279929Y198756D01*
X281283Y199446D01*
X282728Y199915D01*
X284228Y200153D01*
X290577Y200153D01*
X290577Y192023D01*
X275456Y192023D01*
G37*
%LPD*%
%LPC*%
G36*
X293623Y384047D02*
X293623Y384047D01*
X293623Y392177D01*
X308744Y392177D01*
X308627Y391440D01*
X308158Y389995D01*
X307468Y388641D01*
X306575Y387412D01*
X305500Y386337D01*
X304271Y385444D01*
X302917Y384754D01*
X301472Y384285D01*
X299972Y384047D01*
X293623Y384047D01*
G37*
%LPD*%
%LPC*%
G36*
X293623Y180847D02*
X293623Y180847D01*
X293623Y188977D01*
X308744Y188977D01*
X308627Y188240D01*
X308158Y186795D01*
X307468Y185441D01*
X306575Y184212D01*
X305500Y183137D01*
X304271Y182244D01*
X302917Y181554D01*
X301472Y181085D01*
X299972Y180847D01*
X293623Y180847D01*
G37*
%LPD*%
%LPC*%
G36*
X217423Y231647D02*
X217423Y231647D01*
X217423Y239777D01*
X232544Y239777D01*
X232427Y239040D01*
X231958Y237595D01*
X231268Y236241D01*
X230375Y235012D01*
X229300Y233937D01*
X228071Y233044D01*
X226717Y232354D01*
X225272Y231885D01*
X223772Y231647D01*
X217423Y231647D01*
G37*
%LPD*%
%LPC*%
G36*
X208028Y231647D02*
X208028Y231647D01*
X206528Y231885D01*
X205083Y232354D01*
X203729Y233044D01*
X202500Y233937D01*
X201425Y235012D01*
X200532Y236241D01*
X199842Y237595D01*
X199373Y239040D01*
X199256Y239777D01*
X214377Y239777D01*
X214377Y231647D01*
X208028Y231647D01*
G37*
%LPD*%
%LPC*%
G36*
X284228Y384047D02*
X284228Y384047D01*
X282728Y384285D01*
X281283Y384754D01*
X279929Y385444D01*
X278700Y386337D01*
X277625Y387412D01*
X276732Y388641D01*
X276042Y389995D01*
X275573Y391440D01*
X275456Y392177D01*
X290577Y392177D01*
X290577Y384047D01*
X284228Y384047D01*
G37*
%LPD*%
%LPC*%
G36*
X284228Y180847D02*
X284228Y180847D01*
X282728Y181085D01*
X281283Y181554D01*
X279929Y182244D01*
X278700Y183137D01*
X277625Y184212D01*
X276732Y185441D01*
X276042Y186795D01*
X275573Y188240D01*
X275456Y188977D01*
X290577Y188977D01*
X290577Y180847D01*
X284228Y180847D01*
G37*
%LPD*%
%LPC*%
G36*
X21843Y472693D02*
X21843Y472693D01*
X21843Y483016D01*
X23116Y482815D01*
X24903Y482234D01*
X26577Y481381D01*
X28098Y480276D01*
X29426Y478948D01*
X30531Y477427D01*
X31384Y475753D01*
X31965Y473966D01*
X32166Y472693D01*
X21843Y472693D01*
G37*
%LPD*%
%LPC*%
G36*
X481583Y470153D02*
X481583Y470153D01*
X481583Y480476D01*
X482856Y480275D01*
X484643Y479694D01*
X486317Y478841D01*
X487838Y477736D01*
X489166Y476408D01*
X490271Y474887D01*
X491124Y473213D01*
X491705Y471426D01*
X491906Y470153D01*
X481583Y470153D01*
G37*
%LPD*%
%LPC*%
G36*
X24383Y141223D02*
X24383Y141223D01*
X24383Y151546D01*
X25656Y151345D01*
X27443Y150764D01*
X29117Y149911D01*
X30638Y148806D01*
X31966Y147478D01*
X33071Y145957D01*
X33924Y144283D01*
X34505Y142496D01*
X34706Y141223D01*
X24383Y141223D01*
G37*
%LPD*%
%LPC*%
G36*
X157733Y47243D02*
X157733Y47243D01*
X157733Y57566D01*
X159006Y57365D01*
X160793Y56784D01*
X162467Y55931D01*
X163988Y54826D01*
X165316Y53498D01*
X166421Y51977D01*
X167274Y50303D01*
X167855Y48516D01*
X168056Y47243D01*
X157733Y47243D01*
G37*
%LPD*%
%LPC*%
G36*
X8474Y472693D02*
X8474Y472693D01*
X8675Y473966D01*
X9256Y475753D01*
X10109Y477427D01*
X11214Y478948D01*
X12542Y480276D01*
X14063Y481381D01*
X15737Y482234D01*
X17524Y482815D01*
X18797Y483016D01*
X18797Y472693D01*
X8474Y472693D01*
G37*
%LPD*%
%LPC*%
G36*
X468214Y470153D02*
X468214Y470153D01*
X468415Y471426D01*
X468996Y473213D01*
X469849Y474887D01*
X470954Y476408D01*
X472282Y477736D01*
X473803Y478841D01*
X475477Y479694D01*
X477264Y480275D01*
X478537Y480476D01*
X478537Y470153D01*
X468214Y470153D01*
G37*
%LPD*%
%LPC*%
G36*
X21843Y469647D02*
X21843Y469647D01*
X32166Y469647D01*
X31965Y468374D01*
X31384Y466587D01*
X30531Y464913D01*
X29426Y463392D01*
X28098Y462064D01*
X26577Y460959D01*
X24903Y460106D01*
X23116Y459525D01*
X21843Y459324D01*
X21843Y469647D01*
G37*
%LPD*%
%LPC*%
G36*
X24383Y138177D02*
X24383Y138177D01*
X34706Y138177D01*
X34505Y136904D01*
X33924Y135117D01*
X33071Y133443D01*
X31966Y131922D01*
X30638Y130594D01*
X29117Y129489D01*
X27443Y128636D01*
X25656Y128055D01*
X24383Y127854D01*
X24383Y138177D01*
G37*
%LPD*%
%LPC*%
G36*
X481583Y467107D02*
X481583Y467107D01*
X491906Y467107D01*
X491705Y465834D01*
X491124Y464047D01*
X490271Y462373D01*
X489166Y460852D01*
X487838Y459524D01*
X486317Y458419D01*
X484643Y457566D01*
X482856Y456985D01*
X481583Y456784D01*
X481583Y467107D01*
G37*
%LPD*%
%LPC*%
G36*
X11014Y141223D02*
X11014Y141223D01*
X11215Y142496D01*
X11796Y144283D01*
X12649Y145957D01*
X13754Y147478D01*
X15082Y148806D01*
X16603Y149911D01*
X18277Y150764D01*
X20064Y151345D01*
X21337Y151546D01*
X21337Y141223D01*
X11014Y141223D01*
G37*
%LPD*%
%LPC*%
G36*
X24383Y163577D02*
X24383Y163577D01*
X34706Y163577D01*
X34505Y162304D01*
X33924Y160517D01*
X33071Y158843D01*
X31966Y157322D01*
X30638Y155994D01*
X29117Y154889D01*
X27443Y154036D01*
X25656Y153455D01*
X24383Y153254D01*
X24383Y163577D01*
G37*
%LPD*%
%LPC*%
G36*
X446023Y23877D02*
X446023Y23877D01*
X456346Y23877D01*
X456145Y22604D01*
X455564Y20817D01*
X454711Y19143D01*
X453606Y17622D01*
X452278Y16294D01*
X450757Y15189D01*
X449083Y14336D01*
X447296Y13755D01*
X446023Y13554D01*
X446023Y23877D01*
G37*
%LPD*%
%LPC*%
G36*
X144364Y47243D02*
X144364Y47243D01*
X144565Y48516D01*
X145146Y50303D01*
X145999Y51977D01*
X147104Y53498D01*
X148432Y54826D01*
X149953Y55931D01*
X151627Y56784D01*
X153414Y57365D01*
X154687Y57566D01*
X154687Y47243D01*
X144364Y47243D01*
G37*
%LPD*%
%LPC*%
G36*
X270094Y21843D02*
X270094Y21843D01*
X270295Y23116D01*
X270876Y24903D01*
X271729Y26577D01*
X272834Y28098D01*
X274162Y29426D01*
X275683Y30531D01*
X277357Y31384D01*
X279144Y31965D01*
X280417Y32166D01*
X280417Y21843D01*
X270094Y21843D01*
G37*
%LPD*%
%LPC*%
G36*
X471423Y138177D02*
X471423Y138177D01*
X481746Y138177D01*
X481545Y136904D01*
X480964Y135117D01*
X480111Y133443D01*
X479006Y131922D01*
X477678Y130594D01*
X476157Y129489D01*
X474483Y128636D01*
X472696Y128055D01*
X471423Y127854D01*
X471423Y138177D01*
G37*
%LPD*%
%LPC*%
G36*
X20064Y128055D02*
X20064Y128055D01*
X18277Y128636D01*
X16603Y129489D01*
X15082Y130594D01*
X13754Y131922D01*
X12649Y133443D01*
X11796Y135117D01*
X11215Y136904D01*
X11014Y138177D01*
X21337Y138177D01*
X21337Y127854D01*
X20064Y128055D01*
G37*
%LPD*%
%LPC*%
G36*
X477264Y456985D02*
X477264Y456985D01*
X475477Y457566D01*
X473803Y458419D01*
X472282Y459524D01*
X470954Y460852D01*
X469849Y462373D01*
X468996Y464047D01*
X468415Y465834D01*
X468214Y467107D01*
X478537Y467107D01*
X478537Y456784D01*
X477264Y456985D01*
G37*
%LPD*%
%LPC*%
G36*
X467104Y128055D02*
X467104Y128055D01*
X465317Y128636D01*
X463643Y129489D01*
X462122Y130594D01*
X460794Y131922D01*
X459689Y133443D01*
X458836Y135117D01*
X458255Y136904D01*
X458054Y138177D01*
X468377Y138177D01*
X468377Y127854D01*
X467104Y128055D01*
G37*
%LPD*%
%LPC*%
G36*
X17524Y459525D02*
X17524Y459525D01*
X15737Y460106D01*
X14063Y460959D01*
X12542Y462064D01*
X11214Y463392D01*
X10109Y464913D01*
X9256Y466587D01*
X8675Y468374D01*
X8474Y469647D01*
X18797Y469647D01*
X18797Y459324D01*
X17524Y459525D01*
G37*
%LPD*%
%LPC*%
G36*
X441704Y13755D02*
X441704Y13755D01*
X439917Y14336D01*
X438243Y15189D01*
X436722Y16294D01*
X435394Y17622D01*
X434289Y19143D01*
X433436Y20817D01*
X432855Y22604D01*
X432654Y23877D01*
X442977Y23877D01*
X442977Y13554D01*
X441704Y13755D01*
G37*
%LPD*%
%LPC*%
G36*
X20064Y153455D02*
X20064Y153455D01*
X18277Y154036D01*
X16603Y154889D01*
X15082Y155994D01*
X13754Y157322D01*
X12649Y158843D01*
X11796Y160517D01*
X11215Y162304D01*
X11014Y163577D01*
X21337Y163577D01*
X21337Y153254D01*
X20064Y153455D01*
G37*
%LPD*%
%LPC*%
G36*
X279144Y8675D02*
X279144Y8675D01*
X277357Y9256D01*
X275683Y10109D01*
X274162Y11214D01*
X272834Y12542D01*
X271729Y14063D01*
X270876Y15737D01*
X270295Y17524D01*
X270094Y18797D01*
X280417Y18797D01*
X280417Y8474D01*
X279144Y8675D01*
G37*
%LPD*%
%LPC*%
G36*
X331723Y192023D02*
X331723Y192023D01*
X331723Y200153D01*
X334198Y200153D01*
X339853Y194498D01*
X339853Y192023D01*
X331723Y192023D01*
G37*
%LPD*%
%LPC*%
G36*
X324103Y395223D02*
X324103Y395223D01*
X324103Y403353D01*
X326578Y403353D01*
X332233Y397698D01*
X332233Y395223D01*
X324103Y395223D01*
G37*
%LPD*%
%LPC*%
G36*
X133603Y371093D02*
X133603Y371093D01*
X133603Y379223D01*
X136078Y379223D01*
X141733Y373568D01*
X141733Y371093D01*
X133603Y371093D01*
G37*
%LPD*%
%LPC*%
G36*
X381253Y405383D02*
X381253Y405383D01*
X381253Y413513D01*
X383728Y413513D01*
X389383Y407858D01*
X389383Y405383D01*
X381253Y405383D01*
G37*
%LPD*%
%LPC*%
G36*
X174497Y141223D02*
X174497Y141223D01*
X174497Y143698D01*
X180152Y149353D01*
X182627Y149353D01*
X182627Y141223D01*
X174497Y141223D01*
G37*
%LPD*%
%LPC*%
G36*
X312927Y395223D02*
X312927Y395223D01*
X312927Y397698D01*
X318582Y403353D01*
X321057Y403353D01*
X321057Y395223D01*
X312927Y395223D01*
G37*
%LPD*%
%LPC*%
G36*
X370077Y405383D02*
X370077Y405383D01*
X370077Y407858D01*
X375732Y413513D01*
X378207Y413513D01*
X378207Y405383D01*
X370077Y405383D01*
G37*
%LPD*%
%LPC*%
G36*
X320547Y192023D02*
X320547Y192023D01*
X320547Y194498D01*
X326202Y200153D01*
X328677Y200153D01*
X328677Y192023D01*
X320547Y192023D01*
G37*
%LPD*%
%LPC*%
G36*
X324103Y384047D02*
X324103Y384047D01*
X324103Y392177D01*
X332233Y392177D01*
X332233Y389702D01*
X326578Y384047D01*
X324103Y384047D01*
G37*
%LPD*%
%LPC*%
G36*
X331723Y180847D02*
X331723Y180847D01*
X331723Y188977D01*
X339853Y188977D01*
X339853Y186502D01*
X334198Y180847D01*
X331723Y180847D01*
G37*
%LPD*%
%LPC*%
G36*
X185673Y130047D02*
X185673Y130047D01*
X185673Y138177D01*
X193803Y138177D01*
X193803Y135702D01*
X188148Y130047D01*
X185673Y130047D01*
G37*
%LPD*%
%LPC*%
G36*
X381253Y394207D02*
X381253Y394207D01*
X381253Y402337D01*
X389383Y402337D01*
X389383Y399862D01*
X383728Y394207D01*
X381253Y394207D01*
G37*
%LPD*%
%LPC*%
G36*
X133603Y359917D02*
X133603Y359917D01*
X133603Y368047D01*
X141733Y368047D01*
X141733Y365572D01*
X136078Y359917D01*
X133603Y359917D01*
G37*
%LPD*%
%LPC*%
G36*
X318582Y384047D02*
X318582Y384047D01*
X312927Y389702D01*
X312927Y392177D01*
X321057Y392177D01*
X321057Y384047D01*
X318582Y384047D01*
G37*
%LPD*%
%LPC*%
G36*
X375732Y394207D02*
X375732Y394207D01*
X370077Y399862D01*
X370077Y402337D01*
X378207Y402337D01*
X378207Y394207D01*
X375732Y394207D01*
G37*
%LPD*%
%LPC*%
G36*
X326202Y180847D02*
X326202Y180847D01*
X320547Y186502D01*
X320547Y188977D01*
X328677Y188977D01*
X328677Y180847D01*
X326202Y180847D01*
G37*
%LPD*%
%LPC*%
G36*
X180152Y130047D02*
X180152Y130047D01*
X174497Y135702D01*
X174497Y138177D01*
X182627Y138177D01*
X182627Y130047D01*
X180152Y130047D01*
G37*
%LPD*%
%LPC*%
G36*
X20319Y471169D02*
X20319Y471169D01*
X20319Y471171D01*
X20321Y471171D01*
X20321Y471169D01*
X20319Y471169D01*
G37*
%LPD*%
%LPC*%
G36*
X215899Y241299D02*
X215899Y241299D01*
X215899Y241301D01*
X215901Y241301D01*
X215901Y241299D01*
X215899Y241299D01*
G37*
%LPD*%
%LPC*%
G36*
X480059Y468629D02*
X480059Y468629D01*
X480059Y468631D01*
X480061Y468631D01*
X480061Y468629D01*
X480059Y468629D01*
G37*
%LPD*%
%LPC*%
G36*
X292099Y190499D02*
X292099Y190499D01*
X292099Y190501D01*
X292101Y190501D01*
X292101Y190499D01*
X292099Y190499D01*
G37*
%LPD*%
%LPC*%
G36*
X184149Y139699D02*
X184149Y139699D01*
X184149Y139701D01*
X184151Y139701D01*
X184151Y139699D01*
X184149Y139699D01*
G37*
%LPD*%
%LPC*%
G36*
X322579Y393699D02*
X322579Y393699D01*
X322579Y393701D01*
X322581Y393701D01*
X322581Y393699D01*
X322579Y393699D01*
G37*
%LPD*%
%LPC*%
G36*
X292099Y393699D02*
X292099Y393699D01*
X292099Y393701D01*
X292101Y393701D01*
X292101Y393699D01*
X292099Y393699D01*
G37*
%LPD*%
%LPC*%
G36*
X330199Y190499D02*
X330199Y190499D01*
X330199Y190501D01*
X330201Y190501D01*
X330201Y190499D01*
X330199Y190499D01*
G37*
%LPD*%
%LPC*%
G36*
X379729Y403859D02*
X379729Y403859D01*
X379729Y403861D01*
X379731Y403861D01*
X379731Y403859D01*
X379729Y403859D01*
G37*
%LPD*%
%LPC*%
G36*
X22859Y139699D02*
X22859Y139699D01*
X22859Y139701D01*
X22861Y139701D01*
X22861Y139699D01*
X22859Y139699D01*
G37*
%LPD*%
D10*
X322580Y393700D03*
X322580Y419100D03*
D11*
X330200Y215900D03*
X330200Y190500D03*
D10*
X184150Y114300D03*
X184150Y139700D03*
D12*
X331470Y477520D03*
X356870Y477520D03*
D13*
X176530Y477520D03*
X151130Y477520D03*
D10*
X379730Y403860D03*
X379730Y480060D03*
X132080Y369570D03*
X132080Y445770D03*
D11*
X406400Y459740D03*
X406400Y383540D03*
X88900Y447040D03*
X88900Y370840D03*
D14*
X208788Y419100D02*
X223012Y419100D01*
X223012Y393700D02*
X208788Y393700D01*
X208788Y368300D02*
X223012Y368300D01*
X223012Y342900D02*
X208788Y342900D01*
X208788Y317500D02*
X223012Y317500D01*
X223012Y292100D02*
X208788Y292100D01*
X208788Y266700D02*
X223012Y266700D01*
X223012Y241300D02*
X208788Y241300D01*
X208788Y215900D02*
X223012Y215900D01*
X223012Y190500D02*
X208788Y190500D01*
X208788Y165100D02*
X223012Y165100D01*
X223012Y139700D02*
X208788Y139700D01*
X208788Y114300D02*
X223012Y114300D01*
X223012Y88900D02*
X208788Y88900D01*
X284988Y88900D02*
X299212Y88900D01*
X299212Y114300D02*
X284988Y114300D01*
X284988Y139700D02*
X299212Y139700D01*
X299212Y165100D02*
X284988Y165100D01*
X284988Y190500D02*
X299212Y190500D01*
X299212Y215900D02*
X284988Y215900D01*
X284988Y241300D02*
X299212Y241300D01*
X299212Y266700D02*
X284988Y266700D01*
X284988Y292100D02*
X299212Y292100D01*
X299212Y317500D02*
X284988Y317500D01*
X284988Y342900D02*
X299212Y342900D01*
X299212Y368300D02*
X284988Y368300D01*
X284988Y393700D02*
X299212Y393700D01*
X299212Y419100D02*
X284988Y419100D01*
D15*
X406400Y101600D03*
X406400Y76200D03*
X469900Y368300D03*
X469900Y342900D03*
X469900Y317500D03*
X469900Y292100D03*
X469900Y266700D03*
X469900Y241300D03*
X469900Y215900D03*
X469900Y190500D03*
X469900Y165100D03*
X469900Y139700D03*
X22860Y241300D03*
X22860Y215900D03*
X22860Y190500D03*
X22860Y165100D03*
X22860Y139700D03*
X22860Y368300D03*
X22860Y342900D03*
X22860Y317500D03*
X22860Y292100D03*
X22860Y266700D03*
X21590Y71120D03*
X21590Y20320D03*
X21590Y45720D03*
X156210Y45720D03*
X156210Y20320D03*
D16*
X192170Y17790D03*
X217170Y17790D03*
X242170Y17790D03*
X242170Y50790D03*
X217170Y50790D03*
X192170Y50790D03*
D15*
X115570Y20320D03*
X115570Y45720D03*
X115570Y71120D03*
X115570Y96520D03*
X281940Y20320D03*
X307340Y20320D03*
X332740Y20320D03*
X358140Y20320D03*
X383540Y20320D03*
X408940Y20320D03*
X203200Y480060D03*
X228600Y480060D03*
X254000Y480060D03*
X279400Y480060D03*
X304800Y480060D03*
X444500Y25400D03*
X444500Y50800D03*
X444500Y76200D03*
X444500Y101600D03*
X429260Y468630D03*
X480060Y468630D03*
X71120Y471170D03*
X20320Y471170D03*
D17*
X292100Y419100D02*
X322580Y419100D01*
X331470Y427990D02*
X331470Y477520D01*
X322580Y419100D02*
X358140Y383540D01*
X406400Y383540D01*
X406400Y165100D01*
D18*
X406400Y165100D03*
D17*
X88900Y190500D02*
X88900Y370840D01*
D18*
X88900Y190500D03*
D17*
X426720Y144780D02*
X426720Y63500D01*
X426720Y144780D02*
X406400Y165100D01*
X88900Y190500D02*
X88900Y139700D01*
D18*
X88900Y139700D03*
D17*
X87630Y138430D01*
X87630Y20320D01*
X88900Y20320D01*
D18*
X88900Y20320D03*
X88900Y419100D03*
D17*
X88900Y370840D01*
X322580Y419100D02*
X331470Y427990D01*
X426720Y63500D02*
X439420Y50800D01*
X444500Y50800D01*
X215900Y467360D02*
X203200Y480060D01*
X215900Y467360D02*
X215900Y419100D01*
X279400Y457200D02*
X279400Y480060D01*
X279400Y457200D02*
X254000Y431800D01*
X254000Y368300D01*
X228600Y342900D01*
X215900Y342900D01*
X304800Y457200D02*
X304800Y480060D01*
X304800Y457200D02*
X266700Y419100D01*
X266700Y355600D01*
X228600Y317500D01*
X215900Y317500D01*
X187960Y466090D02*
X176530Y477520D01*
X187960Y466090D02*
X187960Y159032D01*
X207292Y139700D01*
X215900Y139700D01*
X116840Y419100D02*
X88900Y447040D01*
D18*
X116840Y166370D03*
D17*
X116840Y419100D01*
X88900Y453390D02*
X71120Y471170D01*
X88900Y453390D02*
X88900Y447040D01*
D19*
X368300Y254000D03*
D17*
X368300Y35560D01*
X383540Y20320D01*
X358140Y20320D02*
X317500Y60960D01*
X317500Y127000D01*
D18*
X317500Y127000D03*
X241300Y127000D03*
D17*
X241300Y190500D01*
X215900Y215900D01*
D18*
X355600Y215900D03*
D17*
X355600Y114300D01*
D18*
X355600Y114300D03*
X266700Y228600D03*
D17*
X266700Y88900D01*
D18*
X266700Y88900D03*
X139700Y266700D03*
D17*
X139700Y114300D01*
D18*
X139700Y114300D03*
X165100Y292100D03*
D17*
X165100Y190500D01*
D18*
X165100Y190500D03*
X63500Y215900D03*
D17*
X63500Y71120D01*
D18*
X63500Y71120D03*
X381000Y190500D03*
D17*
X381000Y71120D01*
D18*
X381000Y71120D03*
M02*
