M48
;GenerationSoftware,Autodesk,EAGLE,9.6.2*%
;CreationDate,2022-04-13T21:15:33Z*%
FMAT,2
ICI,OFF
METRIC,TZ,000.000
T5C0.350
T4C0.508
T3C0.813
T2C0.900
T1C1.016
%
G90
M71
T1
X40640Y10160
X2286Y29210
X2286Y31750
X2286Y34290
X2286Y36830
X2286Y13970
X2286Y16510
X2286Y19050
X2286Y21590
X2286Y24130
X46990Y13970
X46990Y16510
X46990Y21590
X46990Y24130
X46990Y26670
X35814Y2032
X46990Y29210
X46990Y31750
X46990Y34290
X46990Y36830
X40640Y7620
X46990Y19050
X2286Y26670
X2159Y7112
X2159Y2032
X2159Y4572
X15621Y4572
X15621Y2032
X11557Y4572
X11557Y2032
X11557Y7112
X11557Y9652
X28194Y2032
X30734Y2032
X33274Y2032
X38354Y2032
X40894Y2032
X20320Y48006
X22860Y48006
X25400Y48006
X27940Y48006
X30480Y48006
X44450Y2540
X44450Y5080
X44450Y7620
X44450Y10160
X42926Y46863
X48006Y46863
X7112Y47117
X2032Y47117
T2
X21717Y5079
X19217Y5079
X21717Y1779
X19217Y1779
X24217Y1779
X24217Y5079
T3
X29210Y16510
X29210Y19050
X29210Y21590
X29210Y24130
X29210Y26670
X21590Y24130
X29210Y31750
X29210Y34290
X29210Y36830
X29210Y39370
X29210Y41910
X29210Y29210
X15113Y47752
X32258Y39370
X32258Y41910
X33020Y21590
X33020Y19050
X18415Y11430
X18415Y13970
X33147Y47752
X35687Y47752
X17653Y47752
X37973Y40386
X37973Y48006
X13208Y36957
X13208Y44577
X40640Y45974
X40640Y38354
X8890Y44704
X8890Y37084
X21590Y41910
X21590Y39370
X21590Y36830
X21590Y34290
X21590Y31750
X21590Y29210
X21590Y26670
X21590Y21590
X21590Y19050
X21590Y16510
X21590Y13970
X21590Y11430
X21590Y8890
X29210Y8890
X29210Y11430
X29210Y13970
T4
X36830Y25400
T5
X11684Y16637
X8890Y41910
X8890Y2032
X8890Y13970
X40640Y16510
X8890Y19050
X38100Y7112
X38100Y19050
X6350Y7112
X6350Y21590
X16510Y19050
X13970Y11430
X13970Y26670
X26670Y8890
X16510Y29210
X26670Y22860
X35560Y11430
X35560Y21590
X24130Y12700
X31750Y12700
M30